EncodeSansCondensed-Regular.ufo
<glyph name="exclam" format="2">
  <advance width="448.3232323232323"/>
  <unicode hex="0021"/>
  <outline>
    <contour>
      <point x="176.0" y="372.7272727272727" type="line"/>
      <point x="273.37373737373736" y="372.7272727272727" type="line"/>
      <point x="305.33333333333326" y="917.8383838383838" type="line"/>
      <point x="305.33333333333326" y="1480.0" type="line"/>
      <point x="142.98989898989902" y="1480.0" type="line"/>
      <point x="142.98989898989902" y="917.8383838383838" type="line"/>
    </contour>
    <contour>
      <point x="224.16161616161614" y="-12.626262626262625" type="curve" smooth="yes"/>
      <point x="288.5252525252525" y="-12.626262626262625"/>
      <point x="334.48484848484844" y="30.28282828282827"/>
      <point x="334.48484848484844" y="95.07070707070704" type="curve" smooth="yes"/>
      <point x="334.48484848484844" y="159.8585858585858"/>
      <point x="289.5757575757575" y="204.2424242424242"/>
      <point x="224.16161616161614" y="204.2424242424242" type="curve" smooth="yes"/>
      <point x="158.74747474747474" y="204.2424242424242"/>
      <point x="113.83838383838386" y="160.90909090909085"/>
      <point x="113.83838383838386" y="95.07070707070704" type="curve" smooth="yes"/>
      <point x="113.83838383838386" y="29.23232323232322"/>
      <point x="159.7979797979798" y="-12.626262626262625"/>
    </contour>
  </outline>
</glyph>
<glyph name="quotedbl" format="2">
  <advance width="673.8383838383838"/>
  <unicode hex="0022"/>
  <outline>
    <contour>
      <point x="139.3939393939394" y="918.1818181818182" type="line"/>
      <point x="231.9191919191919" y="918.1818181818182" type="line"/>
      <point x="266.10101010101005" y="1616.0" type="line"/>
      <point x="105.21212121212123" y="1616.0" type="line"/>
    </contour>
    <contour>
      <point x="441.9191919191919" y="918.1818181818182" type="line"/>
      <point x="534.4444444444443" y="918.1818181818182" type="line"/>
      <point x="568.6262626262626" y="1616.0" type="line"/>
      <point x="407.73737373737373" y="1616.0" type="line"/>
    </contour>
  </outline>
</glyph>
<glyph name="dollar" format="2">
  <advance width="914.3232323232323"/>
  <unicode hex="0024"/>
  <outline>
    <contour>
      <point x="382.9090909090909" y="-18.525252525252526" type="curve" smooth="yes"/>
      <point x="687.6969696969696" y="-18.525252525252526"/>
      <point x="858.9292929292928" y="133.55555555555554"/>
      <point x="858.9292929292928" y="397.010101010101" type="curve" smooth="yes"/>
      <point x="858.9292929292928" y="612.4646464646464"/>
      <point x="739.050505050505" y="734.5656565656566"/>
      <point x="524.0" y="808.040404040404" type="curve" smooth="yes"/>
      <point x="454.1414141414141" y="831.8181818181818" type="line" smooth="yes"/>
      <point x="277.25252525252523" y="893.4141414141413"/>
      <point x="211.9595959595959" y="962.7070707070707"/>
      <point x="211.9595959595959" y="1105.6161616161617" type="curve" smooth="yes"/>
      <point x="211.9595959595959" y="1267.8989898989898"/>
      <point x="311.1515151515151" y="1363.7171717171718"/>
      <point x="543.3737373737373" y="1363.7171717171718" type="curve" smooth="yes"/>
      <point x="626.8484848484848" y="1363.7171717171718"/>
      <point x="713.1515151515151" y="1353.1919191919192"/>
      <point x="797.5757575757575" y="1327.2929292929293" type="curve"/>
      <point x="797.5757575757575" y="1463.050505050505" type="line"/>
      <point x="725.3737373737373" y="1486.0"/>
      <point x="622.7474747474747" y="1498.5252525252524"/>
      <point x="536.3434343434343" y="1498.5252525252524" type="curve" smooth="yes"/>
      <point x="218.0" y="1498.5252525252524"/>
      <point x="55.393939393939405" y="1346.020202020202"/>
      <point x="55.393939393939405" y="1094.7878787878788" type="curve" smooth="yes"/>
      <point x="55.393939393939405" y="884.3838383838385"/>
      <point x="174.84848484848484" y="763.1313131313132"/>
      <point x="376.64646464646466" y="693.2323232323232" type="curve" smooth="yes"/>
      <point x="446.5050505050505" y="669.4545454545455" type="line" smooth="yes"/>
      <point x="632.5454545454545" y="604.8080808080808"/>
      <point x="702.3636363636364" y="534.4646464646465"/>
      <point x="702.3636363636364" y="384.6060606060606" type="curve" smooth="yes"/>
      <point x="702.3636363636364" y="207.99999999999997"/>
      <point x="596.7474747474747" y="116.28282828282823"/>
      <point x="384.1818181818182" y="116.28282828282823" type="curve" smooth="yes"/>
      <point x="287.35353535353534" y="116.28282828282823"/>
      <point x="183.37373737373738" y="134.38383838383834"/>
      <point x="77.7979797979798" y="169.3333333333333" type="curve"/>
      <point x="77.7979797979798" y="33.57575757575758" type="line"/>
      <point x="175.4747474747475" y="-1.4747474747474751"/>
      <point x="292.0808080808081" y="-18.525252525252526"/>
    </contour>
    <contour>
      <point x="387.29292929292933" y="-240.0" type="line"/>
      <point x="529.030303030303" y="-240.0" type="line"/>
      <point x="529.030303030303" y="41.010101010100996" type="line"/>
      <point x="387.29292929292933" y="26.26262626262624" type="line"/>
    </contour>
    <contour>
      <point x="387.29292929292933" y="1464.2424242424242" type="line"/>
      <point x="529.030303030303" y="1464.2424242424242" type="line"/>
      <point x="529.030303030303" y="1720.0" type="line"/>
      <point x="387.29292929292933" y="1720.0" type="line"/>
    </contour>
  </outline>
</glyph>
<glyph name="percent" format="2">
  <advance width="1671.1313131313132"/>
  <unicode hex="0025"/>
  <note>
450
</note>
  <outline>
    <contour>
      <point x="496.1818181818182" y="0.0" type="line"/>
      <point x="626.1616161616162" y="0.0" type="line"/>
      <point x="1174.949494949495" y="1480.0" type="line"/>
      <point x="1044.969696969697" y="1480.0" type="line"/>
    </contour>
    <contour>
      <point x="395.4343434343434" y="574.8484848484849" type="curve" smooth="yes"/>
      <point x="580.8686868686868" y="574.8484848484849"/>
      <point x="706.9494949494949" y="699.7777777777778"/>
      <point x="706.9494949494949" y="1036.949494949495" type="curve" smooth="yes"/>
      <point x="706.9494949494949" y="1374.1212121212122"/>
      <point x="582.3434343434343" y="1498.5252525252524"/>
      <point x="395.4343434343434" y="1498.5252525252524" type="curve" smooth="yes"/>
      <point x="208.5252525252525" y="1498.5252525252524"/>
      <point x="83.91919191919193" y="1374.1212121212122"/>
      <point x="83.91919191919193" y="1036.949494949495" type="curve" smooth="yes"/>
      <point x="83.91919191919193" y="699.7777777777778"/>
      <point x="210.0" y="574.8484848484849"/>
    </contour>
    <contour>
      <point x="395.4343434343434" y="684.6464646464647" type="curve" smooth="yes"/>
      <point x="286.86868686868684" y="684.6464646464647"/>
      <point x="213.47474747474743" y="764.5656565656566"/>
      <point x="213.47474747474743" y="1038.4242424242425" type="curve" smooth="yes"/>
      <point x="213.47474747474743" y="1309.3333333333333"/>
      <point x="286.86868686868684" y="1388.7272727272727"/>
      <point x="395.4343434343434" y="1388.7272727272727" type="curve" smooth="yes"/>
      <point x="504.0" y="1388.7272727272727"/>
      <point x="577.3939393939394" y="1309.3333333333333"/>
      <point x="577.3939393939394" y="1035.4747474747476" type="curve" smooth="yes"/>
      <point x="577.3939393939394" y="764.5656565656566"/>
      <point x="504.0" y="684.6464646464647"/>
    </contour>
    <contour>
      <point x="1275.6969696969695" y="-18.0" type="curve" smooth="yes"/>
      <point x="1462.6060606060605" y="-18.0"/>
      <point x="1587.212121212121" y="106.92929292929293"/>
      <point x="1587.212121212121" y="444.1010101010101" type="curve" smooth="yes"/>
      <point x="1587.212121212121" y="781.2727272727273"/>
      <point x="1461.1313131313132" y="905.6767676767677"/>
      <point x="1275.6969696969695" y="905.6767676767677" type="curve" smooth="yes"/>
      <point x="1090.262626262626" y="905.6767676767677"/>
      <point x="964.1818181818181" y="781.2727272727273"/>
      <point x="964.1818181818181" y="444.1010101010101" type="curve" smooth="yes"/>
      <point x="964.1818181818181" y="106.92929292929293"/>
      <point x="1088.7878787878788" y="-18.0"/>
    </contour>
    <contour>
      <point x="1275.6969696969695" y="91.79797979797976" type="curve" smooth="yes"/>
      <point x="1167.1313131313132" y="91.79797979797976"/>
      <point x="1093.7373737373737" y="171.71717171717168"/>
      <point x="1093.7373737373737" y="445.57575757575756" type="curve" smooth="yes"/>
      <point x="1093.7373737373737" y="716.4848484848485"/>
      <point x="1167.1313131313132" y="795.8787878787879"/>
      <point x="1275.6969696969695" y="795.8787878787879" type="curve" smooth="yes"/>
      <point x="1384.262626262626" y="795.8787878787879"/>
      <point x="1457.6565656565656" y="716.4848484848485"/>
      <point x="1457.6565656565656" y="442.62626262626264" type="curve" smooth="yes"/>
      <point x="1457.6565656565656" y="171.71717171717168"/>
      <point x="1384.262626262626" y="91.79797979797976"/>
    </contour>
  </outline>
</glyph>
<glyph name="ampersand" format="2">
  <advance width="1314.7070707070707"/>
  <unicode hex="0026"/>
  <outline>
    <contour>
      <point x="1226.6868686868686" y="-20.0" type="line"/>
      <point x="1314.7070707070707" y="95.6565656565656" type="line"/>
      <point x="616.1818181818181" y="709.9797979797979" type="line" smooth="yes"/>
      <point x="454.4242424242424" y="859.6363636363636"/>
      <point x="408.7272727272727" y="951.2525252525253"/>
      <point x="408.7272727272727" y="1080.5656565656566" type="curve" smooth="yes"/>
      <point x="408.7272727272727" y="1266.4242424242425"/>
      <point x="511.5959595959596" y="1363.7171717171718"/>
      <point x="736.5656565656566" y="1363.7171717171718" type="curve" smooth="yes"/>
      <point x="795.1919191919192" y="1363.7171717171718"/>
      <point x="857.070707070707" y="1358.141414141414"/>
      <point x="927.9191919191919" y="1340.2424242424242" type="curve"/>
      <point x="927.9191919191919" y="1476.0" type="line"/>
      <point x="865.7171717171717" y="1490.0"/>
      <point x="798.989898989899" y="1498.5252525252524"/>
      <point x="729.5353535353535" y="1498.5252525252524" type="curve" smooth="yes"/>
      <point x="411.8181818181818" y="1498.5252525252524"/>
      <point x="252.1616161616162" y="1347.4949494949494"/>
      <point x="252.1616161616162" y="1078.5656565656566" type="curve" smooth="yes"/>
      <point x="252.1616161616162" y="909.2929292929293"/>
      <point x="317.6363636363637" y="783.1919191919192"/>
      <point x="528.1616161616162" y="594.3232323232323" type="curve" smooth="yes"/>
    </contour>
    <contour>
      <point x="589.9797979797979" y="-18.0" type="curve" smooth="yes"/>
      <point x="902.020202020202" y="-18.0"/>
      <point x="1102.5050505050503" y="164.8080808080808"/>
      <point x="1102.5050505050503" y="533.2727272727273" type="curve" smooth="yes"/>
      <point x="1102.5050505050503" y="614.1212121212121"/>
      <point x="1092.5050505050503" y="710.969696969697"/>
      <point x="1070.080808080808" y="798.3434343434343" type="curve"/>
      <point x="936.0" y="798.3434343434343" type="line"/>
      <point x="959.89898989899" y="710.969696969697"/>
      <point x="971.3737373737374" y="613.5959595959596"/>
      <point x="971.3737373737374" y="530.7474747474747" type="curve" smooth="yes"/>
      <point x="971.3737373737374" y="223.89898989898987"/>
      <point x="824.10101010101" y="106.30303030303025"/>
      <point x="603.5353535353535" y="106.30303030303025" type="curve" smooth="yes"/>
      <point x="395.7979797979798" y="106.30303030303025"/>
      <point x="274.50505050505046" y="226.86868686868684"/>
      <point x="274.50505050505046" y="421.55555555555554" type="curve" smooth="yes"/>
      <point x="274.50505050505046" y="558.5454545454545"/>
      <point x="333.47474747474746" y="661.2121212121212"/>
      <point x="443.83838383838383" y="727.8585858585859" type="curve"/>
      <point x="366.24242424242425" y="809.5959595959596" type="line"/>
      <point x="213.91919191919192" y="734.10101010101"/>
      <point x="118.989898989899" y="591.6767676767677"/>
      <point x="118.989898989899" y="404.52525252525254" type="curve" smooth="yes"/>
      <point x="118.989898989899" y="148.0"/>
      <point x="294.24242424242425" y="-18.0"/>
    </contour>
  </outline>
</glyph>
<glyph name="quotesingle" format="2">
  <advance width="371.3131313131313"/>
  <unicode hex="0027"/>
  <outline>
    <contour>
      <point x="139.3939393939394" y="918.1818181818182" type="line"/>
      <point x="231.9191919191919" y="918.1818181818182" type="line"/>
      <point x="266.10101010101005" y="1616.0" type="line"/>
      <point x="105.21212121212123" y="1616.0" type="line"/>
    </contour>
  </outline>
</glyph>
<glyph name="parenleft" format="2">
  <advance width="579.6161616161615"/>
  <unicode hex="0028"/>
  <outline>
    <contour>
      <point x="398.04040404040404" y="-440.0" type="curve"/>
      <point x="550.5050505050505" y="-440.0" type="line"/>
      <point x="356.48484848484844" y="-134.72727272727272"/>
      <point x="265.1111111111111" y="212.74747474747474"/>
      <point x="265.1111111111111" y="588.0" type="curve" smooth="yes"/>
      <point x="265.1111111111111" y="963.2525252525253"/>
      <point x="356.48484848484844" y="1310.7272727272727"/>
      <point x="550.5050505050505" y="1616.0" type="curve"/>
      <point x="398.04040404040404" y="1616.0" type="line"/>
      <point x="195.81818181818184" y="1316.3030303030303"/>
      <point x="106.44444444444446" y="970.3030303030303"/>
      <point x="106.44444444444446" y="588.0" type="curve" smooth="yes"/>
      <point x="106.44444444444446" y="205.6969696969697"/>
      <point x="195.81818181818184" y="-140.3030303030303"/>
    </contour>
  </outline>
</glyph>
<glyph name="parenright" format="2">
  <advance width="579.6161616161615"/>
  <unicode hex="0029"/>
  <outline>
    <contour>
      <point x="29.111111111111132" y="-440.0" type="curve"/>
      <point x="181.57575757575754" y="-440.0" type="line"/>
      <point x="383.7979797979798" y="-140.3030303030303"/>
      <point x="473.17171717171715" y="205.6969696969697"/>
      <point x="473.17171717171715" y="588.0" type="curve" smooth="yes"/>
      <point x="473.17171717171715" y="970.3030303030303"/>
      <point x="383.7979797979798" y="1316.3030303030303"/>
      <point x="181.57575757575754" y="1616.0" type="curve"/>
      <point x="29.111111111111132" y="1616.0" type="line"/>
      <point x="223.13131313131316" y="1310.7272727272727"/>
      <point x="314.5050505050505" y="963.2525252525253"/>
      <point x="314.5050505050505" y="588.0" type="curve" smooth="yes"/>
      <point x="314.5050505050505" y="212.74747474747474"/>
      <point x="223.13131313131316" y="-134.72727272727272"/>
    </contour>
  </outline>
</glyph>
<glyph name="asterisk" format="2">
  <advance width="876.3232323232323"/>
  <unicode hex="002A"/>
  <outline>
    <contour>
      <point x="494.10101010101005" y="1187.2121212121212" type="line"/>
      <point x="692.6262626262626" y="1227.3333333333333" type="line"/>
      <point x="846.3232323232323" y="1277.2323232323233" type="line"/>
      <point x="810.040404040404" y="1387.6565656565656" type="line"/>
      <point x="657.8181818181818" y="1337.2323232323233" type="line"/>
      <point x="472.5454545454545" y="1252.4040404040404" type="line"/>
      <point x="496.4242424242424" y="1454.3030303030303" type="line"/>
      <point x="496.4242424242424" y="1616.0" type="line"/>
      <point x="379.8989898989899" y="1616.0" type="line"/>
      <point x="379.8989898989899" y="1454.3030303030303" type="line"/>
      <point x="403.77777777777777" y="1252.4040404040404" type="line"/>
      <point x="218.5050505050505" y="1337.2323232323233" type="line"/>
      <point x="66.28282828282826" y="1387.6565656565656" type="line"/>
      <point x="30.0" y="1277.2323232323233" type="line"/>
      <point x="183.6969696969697" y="1227.3333333333333" type="line"/>
      <point x="382.22222222222223" y="1187.2121212121212" type="line"/>
      <point x="244.96969696969697" y="1038.0404040404042" type="line"/>
      <point x="149.17171717171718" y="907.2929292929293" type="line"/>
      <point x="243.71717171717168" y="838.3030303030304" type="line"/>
      <point x="339.5151515151515" y="969.0505050505051" type="line"/>
      <point x="438.16161616161617" y="1146.7272727272727" type="line"/>
      <point x="536.8080808080808" y="969.0505050505051" type="line"/>
      <point x="632.6060606060606" y="838.3030303030304" type="line"/>
      <point x="727.1515151515151" y="907.2929292929293" type="line"/>
      <point x="631.3535353535353" y="1038.0404040404042" type="line"/>
    </contour>
  </outline>
</glyph>
<glyph name="plus" format="2">
  <advance width="1021.2525252525253"/>
  <unicode hex="002B"/>
  <outline>
    <contour>
      <point x="444.5858585858586" y="362.24242424242425" type="line"/>
      <point x="576.6666666666666" y="362.24242424242425" type="line"/>
      <point x="576.6666666666666" y="697.010101010101" type="line"/>
      <point x="894.5858585858585" y="697.010101010101" type="line"/>
      <point x="894.5858585858585" y="822.989898989899" type="line"/>
      <point x="576.6666666666666" y="822.989898989899" type="line"/>
      <point x="576.6666666666666" y="1157.7575757575758" type="line"/>
      <point x="444.5858585858586" y="1157.7575757575758" type="line"/>
      <point x="444.5858585858586" y="822.989898989899" type="line"/>
      <point x="126.66666666666669" y="822.989898989899" type="line"/>
      <point x="126.66666666666669" y="697.010101010101" type="line"/>
      <point x="444.5858585858586" y="697.010101010101" type="line"/>
    </contour>
  </outline>
</glyph>
<glyph name="comma" format="2">
  <advance width="408.3232323232323"/>
  <unicode hex="002C"/>
  <outline>
    <contour>
      <point x="126.32323232323233" y="-315.75757575757575" type="curve"/>
      <point x="217.07070707070704" y="-315.75757575757575" type="line"/>
      <point x="273.4545454545454" y="-209.15151515151516"/>
      <point x="314.48484848484844" y="-74.14141414141416"/>
      <point x="314.48484848484844" y="62.98989898989897" type="curve" smooth="yes"/>
      <point x="314.48484848484844" y="161.8585858585858"/>
      <point x="272.20202020202015" y="207.39393939393932"/>
      <point x="201.1111111111111" y="207.39393939393932" type="curve" smooth="yes"/>
      <point x="137.27272727272728" y="207.39393939393932"/>
      <point x="93.83838383838386" y="165.63636363636357"/>
      <point x="93.83838383838386" y="98.1212121212121" type="curve" smooth="yes"/>
      <point x="93.83838383838386" y="30.707070707070695"/>
      <point x="140.84848484848484" y="-12.626262626262625"/>
      <point x="204.16161616161614" y="-12.626262626262625" type="curve" smooth="yes"/>
      <point x="225.6161616161616" y="-12.626262626262625" type="line"/>
      <point x="199.03030303030303" y="22.505050505050498" type="line"/>
      <point x="199.03030303030303" y="-87.8989898989899"/>
      <point x="171.77777777777777" y="-191.25252525252526"/>
    </contour>
  </outline>
</glyph>
<glyph name="hyphen" format="2">
  <advance width="698.5858585858585"/>
  <unicode hex="002D"/>
  <outline>
    <contour>
      <point x="126.66666666666669" y="498.06060606060606" type="line"/>
      <point x="571.9191919191919" y="498.06060606060606" type="line"/>
      <point x="571.9191919191919" y="627.1919191919192" type="line"/>
      <point x="126.66666666666669" y="627.1919191919192" type="line"/>
    </contour>
  </outline>
</glyph>
<glyph name="period" format="2">
  <advance width="408.3232323232323"/>
  <unicode hex="002E"/>
  <outline>
    <contour>
      <point x="204.16161616161614" y="-12.626262626262625" type="curve" smooth="yes"/>
      <point x="268.5252525252525" y="-12.626262626262625"/>
      <point x="314.48484848484844" y="30.28282828282827"/>
      <point x="314.48484848484844" y="96.64646464646461" type="curve" smooth="yes"/>
      <point x="314.48484848484844" y="163.01010101010095"/>
      <point x="269.5757575757575" y="207.39393939393932"/>
      <point x="204.16161616161614" y="207.39393939393932" type="curve" smooth="yes"/>
      <point x="138.74747474747474" y="207.39393939393932"/>
      <point x="93.83838383838386" y="164.060606060606"/>
      <point x="93.83838383838386" y="96.64646464646461" type="curve" smooth="yes"/>
      <point x="93.83838383838386" y="29.23232323232322"/>
      <point x="139.7979797979798" y="-12.626262626262625"/>
    </contour>
  </outline>
</glyph>
<glyph name="zero" format="2">
  <advance width="1084.3232323232323"/>
  <unicode hex="0030"/>
  <note>
600
</note>
  <outline>
    <contour>
      <point x="542.1616161616162" y="-18.525252525252526" type="curve" smooth="yes"/>
      <point x="819.4747474747475" y="-18.525252525252526"/>
      <point x="987.8787878787879" y="183.45454545454544"/>
      <point x="987.8787878787879" y="740.0" type="curve" smooth="yes"/>
      <point x="987.8787878787879" y="1296.5454545454545"/>
      <point x="820.9494949494949" y="1498.5252525252524"/>
      <point x="542.1616161616162" y="1498.5252525252524" type="curve" smooth="yes"/>
      <point x="263.37373737373736" y="1498.5252525252524"/>
      <point x="96.44444444444446" y="1296.5454545454545"/>
      <point x="96.44444444444446" y="740.0" type="curve" smooth="yes"/>
      <point x="96.44444444444446" y="183.45454545454544"/>
      <point x="264.8484848484849" y="-18.525252525252526"/>
    </contour>
    <contour>
      <point x="542.1616161616162" y="115.23232323232318" type="curve" smooth="yes"/>
      <point x="362.3232323232323" y="115.23232323232318"/>
      <point x="250.90909090909085" y="258.5252525252525"/>
      <point x="250.90909090909085" y="742.9494949494949" type="curve" smooth="yes"/>
      <point x="250.90909090909085" y="1221.4747474747476"/>
      <point x="362.3232323232323" y="1364.767676767677"/>
      <point x="542.1616161616162" y="1364.767676767677" type="curve" smooth="yes"/>
      <point x="722.0" y="1364.767676767677"/>
      <point x="833.4141414141415" y="1221.4747474747476"/>
      <point x="833.4141414141415" y="737.0505050505051" type="curve" smooth="yes"/>
      <point x="833.4141414141415" y="258.5252525252525"/>
      <point x="722.0" y="115.23232323232318"/>
    </contour>
  </outline>
</glyph>
<glyph name="one" format="2">
  <advance width="597.1717171717171"/>
  <unicode hex="0031"/>
  <outline>
    <contour>
      <point x="290.04040404040404" y="0.0" type="line"/>
      <point x="443.13131313131305" y="0.0" type="line"/>
      <point x="443.13131313131305" y="1484.5252525252524" type="line"/>
      <point x="352.0808080808081" y="1484.5252525252524" type="line"/>
      <point x="16.84848484848485" y="1240.7272727272727" type="line"/>
      <point x="16.84848484848485" y="1091.0909090909092" type="line"/>
      <point x="352.0808080808081" y="1334.888888888889" type="line"/>
      <point x="290.04040404040404" y="1354.6060606060607" type="line"/>
    </contour>
  </outline>
</glyph>
<glyph name="two" format="2">
  <advance width="850.7474747474747"/>
  <unicode hex="0032"/>
  <outline>
    <contour>
      <point x="46.747474747474755" y="0.0" type="line"/>
      <point x="796.5252525252524" y="0.0" type="line"/>
      <point x="796.5252525252524" y="137.01010101010095" type="line"/>
      <point x="199.91919191919186" y="137.01010101010095" type="line"/>
      <point x="216.3434343434343" y="94.62626262626259" type="line"/>
      <point x="546.8282828282828" y="612.4444444444445" type="line" smooth="yes"/>
      <point x="685.2525252525252" y="828.3636363636364"/>
      <point x="731.1515151515151" y="968.5656565656566"/>
      <point x="732.6262626262626" y="1114.3636363636365" type="curve" smooth="yes"/>
      <point x="735.5757575757575" y="1388.2222222222222"/>
      <point x="572.3434343434343" y="1498.5252525252524"/>
      <point x="313.030303030303" y="1498.5252525252524" type="curve" smooth="yes"/>
      <point x="216.82828282828282" y="1498.5252525252524"/>
      <point x="101.8989898989899" y="1478.5252525252524"/>
      <point x="29.696969696969703" y="1445.5757575757575" type="curve"/>
      <point x="29.696969696969703" y="1309.818181818182" type="line"/>
      <point x="114.12121212121212" y="1346.2424242424242"/>
      <point x="201.7979797979798" y="1363.7171717171718"/>
      <point x="296.74747474747477" y="1363.7171717171718" type="curve" smooth="yes"/>
      <point x="480.24242424242425" y="1363.7171717171718"/>
      <point x="579.1111111111111" y="1294.4444444444446"/>
      <point x="579.1111111111111" y="1105.4343434343434" type="curve" smooth="yes"/>
      <point x="579.1111111111111" y="980.5656565656566"/>
      <point x="531.2121212121212" y="854.969696969697"/>
      <point x="412.4646464646465" y="667.1515151515151" type="curve" smooth="yes"/>
      <point x="46.747474747474755" y="87.27272727272724" type="line"/>
    </contour>
  </outline>
</glyph>
<glyph name="three" format="2">
  <advance width="891.090909090909"/>
  <unicode hex="0033"/>
  <outline>
    <contour>
      <point x="350.52525252525254" y="-18.525252525252526" type="curve" smooth="yes"/>
      <point x="645.9393939393939" y="-18.525252525252526"/>
      <point x="825.5959595959596" y="127.15151515151516"/>
      <point x="825.5959595959596" y="390.4040404040404" type="curve" smooth="yes"/>
      <point x="825.5959595959596" y="603.0505050505051"/>
      <point x="704.9494949494949" y="741.3737373737374"/>
      <point x="471.9797979797979" y="776.8484848484849" type="curve"/>
      <point x="470.50505050505046" y="757.4747474747475" type="line"/>
      <point x="669.8989898989898" y="799.3737373737374"/>
      <point x="780.6464646464647" y="940.6464646464647"/>
      <point x="780.6464646464647" y="1128.5454545454545" type="curve" smooth="yes"/>
      <point x="780.6464646464647" y="1366.8484848484848"/>
      <point x="633.090909090909" y="1498.5252525252524"/>
      <point x="354.4040404040404" y="1498.5252525252524" type="curve" smooth="yes"/>
      <point x="253.15151515151516" y="1498.5252525252524"/>
      <point x="138.22222222222223" y="1478.5252525252524"/>
      <point x="64.96969696969698" y="1445.5757575757575" type="curve"/>
      <point x="64.96969696969698" y="1315.5959595959596" type="line"/>
      <point x="149.91919191919192" y="1351.4949494949497"/>
      <point x="240.74747474747474" y="1369.4949494949497"/>
      <point x="341.1717171717172" y="1369.4949494949497" type="curve" smooth="yes"/>
      <point x="535.4141414141415" y="1369.4949494949497"/>
      <point x="630.8080808080808" y="1287.1515151515152"/>
      <point x="630.8080808080808" y="1117.939393939394" type="curve" smooth="yes"/>
      <point x="630.8080808080808" y="939.4545454545455"/>
      <point x="507.9191919191919" y="824.989898989899"/>
      <point x="264.3838383838384" y="824.989898989899" type="curve" smooth="yes"/>
      <point x="193.61616161616163" y="824.989898989899" type="line"/>
      <point x="193.61616161616163" y="693.8585858585859" type="line"/>
      <point x="318.62626262626264" y="693.8585858585859" type="line" smooth="yes"/>
      <point x="566.4646464646465" y="693.8585858585859"/>
      <point x="675.7575757575758" y="579.9191919191919"/>
      <point x="675.7575757575758" y="396.2828282828283" type="curve" smooth="yes"/>
      <point x="675.7575757575758" y="204.7474747474747"/>
      <point x="553.7171717171717" y="110.50505050505046"/>
      <point x="346.42424242424244" y="110.50505050505046" type="curve" smooth="yes"/>
      <point x="251.4747474747475" y="110.50505050505046"/>
      <point x="140.64646464646466" y="127.45454545454541"/>
      <point x="42.121212121212125" y="162.30303030303025" type="curve"/>
      <point x="42.121212121212125" y="32.323232323232325" type="line"/>
      <point x="137.7979797979798" y="-1.5757575757575746"/>
      <point x="240.94949494949495" y="-18.525252525252526"/>
    </contour>
  </outline>
</glyph>
<glyph name="four" format="2">
  <advance width="1041.7979797979797"/>
  <unicode hex="0034"/>
  <outline>
    <contour>
      <point x="43.6969696969697" y="358.26262626262627" type="line"/>
      <point x="1005.050505050505" y="358.26262626262627" type="line"/>
      <point x="1005.050505050505" y="484.2424242424242" type="line"/>
      <point x="173.6565656565656" y="484.2424242424242" type="line"/>
      <point x="197.63636363636357" y="444.06060606060606" type="line"/>
      <point x="695.2727272727273" y="1480.0" type="line"/>
      <point x="543.5353535353536" y="1480.0" type="line"/>
      <point x="43.6969696969697" y="445.5353535353535" type="line"/>
    </contour>
    <contour>
      <point x="674.5454545454545" y="0.0" type="line"/>
      <point x="815.5555555555555" y="0.0" type="line"/>
      <point x="815.5555555555555" y="980.0" type="line"/>
      <point x="695.3737373737374" y="980.0" type="line"/>
      <point x="674.5454545454545" y="484.2424242424242" type="line"/>
    </contour>
  </outline>
</glyph>
<glyph name="five" format="2">
  <advance width="895.2929292929292"/>
  <unicode hex="0035"/>
  <outline>
    <contour>
      <point x="377.57575757575756" y="-18.525252525252526" type="curve" smooth="yes"/>
      <point x="680.2626262626262" y="-18.525252525252526"/>
      <point x="849.5959595959596" y="130.1010101010101"/>
      <point x="849.5959595959596" y="413.2323232323232" type="curve" smooth="yes"/>
      <point x="849.5959595959596" y="689.5353535353535"/>
      <point x="679.070707070707" y="827.1111111111111"/>
      <point x="330.68686868686865" y="849.2121212121212" type="curve" smooth="yes"/>
      <point x="177.29292929292927" y="858.6868686868687" type="line"/>
      <point x="262.38383838383834" y="788.10101010101" type="line"/>
      <point x="303.2323232323232" y="1416.6868686868688" type="line"/>
      <point x="233.9393939393939" y="1348.2424242424242" type="line"/>
      <point x="790.2222222222222" y="1348.2424242424242" type="line"/>
      <point x="790.2222222222222" y="1480.0" type="line"/>
      <point x="160.02020202020202" y="1480.0" type="line"/>
      <point x="114.02020202020202" y="731.2323232323232" type="line"/>
      <point x="267.41414141414145" y="721.7575757575758" type="line" smooth="yes"/>
      <point x="581.1919191919192" y="702.7070707070708"/>
      <point x="699.7575757575758" y="609.4141414141415"/>
      <point x="699.7575757575758" y="407.55555555555554" type="curve" smooth="yes"/>
      <point x="699.7575757575758" y="210.6464646464646"/>
      <point x="590.989898989899" y="110.50505050505046"/>
      <point x="374.949494949495" y="110.50505050505046" type="curve" smooth="yes"/>
      <point x="275.57575757575756" y="110.50505050505046"/>
      <point x="164.74747474747474" y="129.4545454545454"/>
      <point x="67.6969696969697" y="163.3535353535353" type="curve"/>
      <point x="67.6969696969697" y="33.37373737373738" type="line"/>
      <point x="160.42424242424244" y="-1.0505050505050497"/>
      <point x="266.52525252525254" y="-18.525252525252526"/>
    </contour>
  </outline>
</glyph>
<glyph name="six" format="2">
  <advance width="1007.1515151515151"/>
  <unicode hex="0036"/>
  <outline>
    <contour>
      <point x="561.5353535353535" y="-18.525252525252526" type="curve" smooth="yes"/>
      <point x="785.7979797979798" y="-18.525252525252526"/>
      <point x="960.8282828282828" y="127.03030303030302"/>
      <point x="960.8282828282828" y="422.70707070707067" type="curve" smooth="yes"/>
      <point x="960.8282828282828" y="716.060606060606"/>
      <point x="778.4242424242424" y="850.060606060606"/>
      <point x="560.7474747474747" y="850.060606060606" type="curve" smooth="yes"/>
      <point x="419.5757575757575" y="850.060606060606"/>
      <point x="289.7777777777777" y="792.2626262626262"/>
      <point x="224.8282828282828" y="694.4646464646464" type="curve"/>
      <point x="224.8282828282828" y="553.0909090909091" type="line"/>
      <point x="292.6262626262626" y="677.4343434343434"/>
      <point x="420.86868686868684" y="724.7070707070708"/>
      <point x="536.7878787878788" y="724.7070707070708" type="curve" smooth="yes"/>
      <point x="692.7272727272727" y="724.7070707070708"/>
      <point x="816.2424242424242" y="637.3131313131313"/>
      <point x="816.2424242424242" y="416.0808080808081" type="curve" smooth="yes"/>
      <point x="816.2424242424242" y="195.27272727272725"/>
      <point x="700.10101010101" y="107.87878787878783"/>
      <point x="564.060606060606" y="107.87878787878783" type="curve" smooth="yes"/>
      <point x="392.2222222222222" y="107.87878787878783"/>
      <point x="262.8080808080808" y="222.020202020202"/>
      <point x="262.8080808080808" y="675.1919191919192" type="curve" smooth="yes"/>
      <point x="262.8080808080808" y="727.6363636363636" type="line" smooth="yes"/>
      <point x="262.8080808080808" y="1201.7777777777778"/>
      <point x="407.25252525252523" y="1367.3939393939395"/>
      <point x="672.1212121212121" y="1367.3939393939395" type="curve" smooth="yes"/>
      <point x="755.8989898989898" y="1367.3939393939395"/>
      <point x="829.3737373737373" y="1354.4444444444446"/>
      <point x="897.1515151515151" y="1327.4949494949497" type="curve"/>
      <point x="897.1515151515151" y="1459.5757575757575" type="line"/>
      <point x="833.050505050505" y="1487.050505050505"/>
      <point x="750.7474747474747" y="1498.5252525252524"/>
      <point x="671.9191919191919" y="1498.5252525252524" type="curve" smooth="yes"/>
      <point x="317.55555555555554" y="1498.5252525252524"/>
      <point x="110.34343434343435" y="1275.171717171717"/>
      <point x="110.34343434343435" y="693.1515151515151" type="curve" smooth="yes"/>
      <point x="110.34343434343435" y="151.45454545454544"/>
      <point x="303.37373737373736" y="-18.525252525252526"/>
    </contour>
  </outline>
</glyph>
<glyph name="seven" format="2">
  <advance width="822.8686868686868"/>
  <unicode hex="0037"/>
  <outline>
    <contour>
      <point x="138.56565656565658" y="0.0" type="line"/>
      <point x="296.8080808080808" y="0.0" type="line"/>
      <point x="766.8686868686868" y="1392.7272727272727" type="line"/>
      <point x="766.8686868686868" y="1480.0" type="line"/>
      <point x="8.525252525252524" y="1480.0" type="line"/>
      <point x="8.525252525252524" y="1342.989898989899" type="line"/>
      <point x="662.6464646464647" y="1342.989898989899" type="line"/>
      <point x="617.979797979798" y="1394.2020202020203" type="line"/>
    </contour>
  </outline>
</glyph>
<glyph name="eight" format="2">
  <advance width="1084.3232323232323"/>
  <unicode hex="0038"/>
  <outline>
    <contour>
      <point x="551.5353535353535" y="-18.525252525252526" type="curve" smooth="yes"/>
      <point x="831.1717171717171" y="-18.525252525252526"/>
      <point x="1003.2525252525252" y="138.3030303030303"/>
      <point x="1003.2525252525252" y="372.1818181818182" type="curve" smooth="yes"/>
      <point x="1003.2525252525252" y="587.7575757575758"/>
      <point x="897.3535353535353" y="704.4848484848485"/>
      <point x="589.7979797979798" y="805.8383838383838" type="curve" smooth="yes"/>
      <point x="338.7272727272727" y="887.8383838383838"/>
      <point x="271.6565656565656" y="969.1313131313132"/>
      <point x="271.6565656565656" y="1122.969696969697" type="curve" smooth="yes"/>
      <point x="271.6565656565656" y="1278.6060606060607"/>
      <point x="369.050505050505" y="1376.848484848485"/>
      <point x="544.4646464646464" y="1376.848484848485" type="curve" smooth="yes"/>
      <point x="719.7777777777778" y="1376.848484848485"/>
      <point x="824.5454545454545" y="1285.1313131313132"/>
      <point x="824.5454545454545" y="1117.4949494949494" type="curve" smooth="yes"/>
      <point x="824.5454545454545" y="961.6565656565656"/>
      <point x="753.0505050505051" y="870.060606060606"/>
      <point x="589.1111111111111" y="789.3131313131313" type="curve"/>
      <point x="701.131313131313" y="739.7777777777778" type="line"/>
      <point x="873.8585858585858" y="822.5050505050505"/>
      <point x="961.8787878787879" y="957.4545454545455"/>
      <point x="961.8787878787879" y="1125.3737373737374" type="curve" smooth="yes"/>
      <point x="961.8787878787879" y="1354.0"/>
      <point x="799.7979797979798" y="1498.5252525252524"/>
      <point x="543.4141414141413" y="1498.5252525252524" type="curve" smooth="yes"/>
      <point x="282.0" y="1498.5252525252524"/>
      <point x="121.3939393939394" y="1348.7474747474748"/>
      <point x="121.3939393939394" y="1118.3434343434344" type="curve" smooth="yes"/>
      <point x="121.3939393939394" y="906.3434343434344"/>
      <point x="232.8686868686869" y="776.8888888888889"/>
      <point x="532.5252525252525" y="681.1111111111111" type="curve" smooth="yes"/>
      <point x="779.9191919191919" y="602.2626262626263"/>
      <point x="854.5656565656566" y="528.2424242424242"/>
      <point x="854.5656565656566" y="363.030303030303" type="curve" smooth="yes"/>
      <point x="854.5656565656566" y="199.39393939393938"/>
      <point x="743.4747474747475" y="103.15151515151511"/>
      <point x="551.5353535353535" y="103.15151515151511" type="curve" smooth="yes"/>
      <point x="335.050505050505" y="103.15151515151511"/>
      <point x="229.23232323232318" y="203.39393939393938"/>
      <point x="229.23232323232318" y="378.0808080808081" type="curve" smooth="yes"/>
      <point x="229.23232323232318" y="539.1919191919192"/>
      <point x="325.47474747474746" y="664.1616161616162"/>
      <point x="486.1414141414141" y="717.010101010101" type="curve"/>
      <point x="373.9191919191919" y="769.4949494949495" type="line"/>
      <point x="190.7676767676768" y="701.8181818181819"/>
      <point x="80.54545454545455" y="551.1717171717172"/>
      <point x="80.54545454545455" y="369.1515151515151" type="curve" smooth="yes"/>
      <point x="80.54545454545455" y="130.3030303030303"/>
      <point x="247.8989898989899" y="-18.525252525252526"/>
    </contour>
  </outline>
</glyph>
<glyph name="nine" format="2">
  <advance width="1007.1515151515151"/>
  <unicode hex="0039"/>
  <outline>
    <contour>
      <point x="445.6161616161616" y="1498.5252525252524" type="curve" smooth="yes"/>
      <point x="221.35353535353534" y="1498.5252525252524"/>
      <point x="46.323232323232325" y="1352.969696969697"/>
      <point x="46.323232323232325" y="1057.2929292929293" type="curve" smooth="yes"/>
      <point x="46.323232323232325" y="763.939393939394"/>
      <point x="228.72727272727272" y="629.939393939394"/>
      <point x="446.4040404040404" y="629.939393939394" type="curve" smooth="yes"/>
      <point x="587.5757575757576" y="629.939393939394"/>
      <point x="717.3737373737374" y="687.7373737373738"/>
      <point x="782.3232323232323" y="785.5353535353536" type="curve"/>
      <point x="782.3232323232323" y="926.9090909090909" type="line"/>
      <point x="714.5252525252525" y="802.5656565656566"/>
      <point x="586.2828282828283" y="755.2929292929292"/>
      <point x="470.3636363636363" y="755.2929292929292" type="curve" smooth="yes"/>
      <point x="314.4242424242424" y="755.2929292929292"/>
      <point x="190.90909090909085" y="842.6868686868687"/>
      <point x="190.90909090909085" y="1063.919191919192" type="curve" smooth="yes"/>
      <point x="190.90909090909085" y="1284.7272727272727"/>
      <point x="307.050505050505" y="1372.1212121212122"/>
      <point x="443.09090909090907" y="1372.1212121212122" type="curve" smooth="yes"/>
      <point x="614.929292929293" y="1372.1212121212122"/>
      <point x="744.3434343434344" y="1257.979797979798"/>
      <point x="744.3434343434344" y="804.8080808080808" type="curve" smooth="yes"/>
      <point x="744.3434343434344" y="752.3636363636364" type="line" smooth="yes"/>
      <point x="744.3434343434344" y="278.2222222222222"/>
      <point x="599.89898989899" y="112.60606060606055"/>
      <point x="335.030303030303" y="112.60606060606055" type="curve" smooth="yes"/>
      <point x="251.25252525252526" y="112.60606060606055"/>
      <point x="177.77777777777777" y="125.55555555555551"/>
      <point x="110.0" y="152.50505050505046" type="curve"/>
      <point x="110.0" y="20.424242424242426" type="line"/>
      <point x="174.1010101010101" y="-7.05050505050505"/>
      <point x="256.4040404040404" y="-18.525252525252526"/>
      <point x="335.2323232323232" y="-18.525252525252526" type="curve" smooth="yes"/>
      <point x="689.5959595959596" y="-18.525252525252526"/>
      <point x="896.8080808080807" y="204.82828282828282"/>
      <point x="896.8080808080807" y="786.8484848484849" type="curve" smooth="yes"/>
      <point x="896.8080808080807" y="1328.5454545454545"/>
      <point x="703.7777777777777" y="1498.5252525252524"/>
    </contour>
  </outline>
</glyph>
<glyph name="colon" format="2">
  <advance width="408.3232323232323"/>
  <unicode hex="003A"/>
  <outline>
    <contour>
      <point x="204.16161616161614" y="-12.626262626262625" type="curve" smooth="yes"/>
      <point x="268.5252525252525" y="-12.626262626262625"/>
      <point x="314.48484848484844" y="30.28282828282827"/>
      <point x="314.48484848484844" y="96.64646464646461" type="curve" smooth="yes"/>
      <point x="314.48484848484844" y="163.01010101010095"/>
      <point x="269.5757575757575" y="207.39393939393932"/>
      <point x="204.16161616161614" y="207.39393939393932" type="curve" smooth="yes"/>
      <point x="138.74747474747474" y="207.39393939393932"/>
      <point x="93.83838383838386" y="164.060606060606"/>
      <point x="93.83838383838386" y="96.64646464646461" type="curve" smooth="yes"/>
      <point x="93.83838383838386" y="29.23232323232322"/>
      <point x="139.7979797979798" y="-12.626262626262625"/>
    </contour>
    <contour>
      <point x="204.16161616161614" y="877.8585858585859" type="curve" smooth="yes"/>
      <point x="268.5252525252525" y="877.8585858585859"/>
      <point x="314.48484848484844" y="920.7676767676768"/>
      <point x="314.48484848484844" y="987.1313131313132" type="curve" smooth="yes"/>
      <point x="314.48484848484844" y="1053.4949494949494"/>
      <point x="269.5757575757575" y="1097.8787878787878"/>
      <point x="204.16161616161614" y="1097.8787878787878" type="curve" smooth="yes"/>
      <point x="138.74747474747474" y="1097.8787878787878"/>
      <point x="93.83838383838386" y="1054.5454545454545"/>
      <point x="93.83838383838386" y="987.1313131313132" type="curve" smooth="yes"/>
      <point x="93.83838383838386" y="919.7171717171718"/>
      <point x="139.7979797979798" y="877.8585858585859"/>
    </contour>
  </outline>
</glyph>
<glyph name="semicolon" format="2">
  <advance width="408.3232323232323"/>
  <unicode hex="003B"/>
  <outline>
    <contour>
      <point x="126.32323232323233" y="-315.75757575757575" type="curve"/>
      <point x="217.07070707070704" y="-315.75757575757575" type="line"/>
      <point x="273.4545454545454" y="-209.15151515151516"/>
      <point x="314.48484848484844" y="-74.14141414141416"/>
      <point x="314.48484848484844" y="62.98989898989897" type="curve" smooth="yes"/>
      <point x="314.48484848484844" y="161.8585858585858"/>
      <point x="272.20202020202015" y="207.39393939393932"/>
      <point x="201.1111111111111" y="207.39393939393932" type="curve" smooth="yes"/>
      <point x="137.27272727272728" y="207.39393939393932"/>
      <point x="93.83838383838386" y="165.63636363636357"/>
      <point x="93.83838383838386" y="98.1212121212121" type="curve" smooth="yes"/>
      <point x="93.83838383838386" y="30.707070707070695"/>
      <point x="140.84848484848484" y="-12.626262626262625"/>
      <point x="204.16161616161614" y="-12.626262626262625" type="curve" smooth="yes"/>
      <point x="225.6161616161616" y="-12.626262626262625" type="line"/>
      <point x="199.03030303030303" y="22.505050505050498" type="line"/>
      <point x="199.03030303030303" y="-87.8989898989899"/>
      <point x="171.77777777777777" y="-191.25252525252526"/>
    </contour>
    <contour>
      <point x="204.16161616161614" y="877.8585858585859" type="curve" smooth="yes"/>
      <point x="268.5252525252525" y="877.8585858585859"/>
      <point x="314.48484848484844" y="920.7676767676768"/>
      <point x="314.48484848484844" y="987.1313131313132" type="curve" smooth="yes"/>
      <point x="314.48484848484844" y="1053.4949494949494"/>
      <point x="269.5757575757575" y="1097.8787878787878"/>
      <point x="204.16161616161614" y="1097.8787878787878" type="curve" smooth="yes"/>
      <point x="138.74747474747474" y="1097.8787878787878"/>
      <point x="93.83838383838386" y="1054.5454545454545"/>
      <point x="93.83838383838386" y="987.1313131313132" type="curve" smooth="yes"/>
      <point x="93.83838383838386" y="919.7171717171718"/>
      <point x="139.7979797979798" y="877.8585858585859"/>
    </contour>
  </outline>
</glyph>
<glyph name="less" format="2">
  <advance width="1021.2525252525253"/>
  <unicode hex="003C"/>
  <outline>
    <contour>
      <point x="894.5858585858585" y="360.30303030303037" type="line"/>
      <point x="894.5858585858585" y="492.1818181818182" type="line"/>
      <point x="230.58585858585857" y="772.0" type="line"/>
      <point x="230.58585858585857" y="748.0" type="line"/>
      <point x="894.5858585858585" y="1027.8181818181818" type="line"/>
      <point x="894.5858585858585" y="1159.6969696969697" type="line"/>
      <point x="126.66666666666669" y="830.1212121212121" type="line"/>
      <point x="126.66666666666669" y="689.8787878787879" type="line"/>
    </contour>
  </outline>
</glyph>
<glyph name="equal" format="2">
  <advance width="1021.2525252525253"/>
  <unicode hex="003D"/>
  <outline>
    <contour>
      <point x="126.66666666666669" y="891.6161616161617" type="line"/>
      <point x="894.5858585858585" y="891.6161616161617" type="line"/>
      <point x="894.5858585858585" y="1017.5959595959596" type="line"/>
      <point x="126.66666666666669" y="1017.5959595959596" type="line"/>
    </contour>
    <contour>
      <point x="126.66666666666669" y="502.4040404040404" type="line"/>
      <point x="894.5858585858585" y="502.4040404040404" type="line"/>
      <point x="894.5858585858585" y="628.3838383838383" type="line"/>
      <point x="126.66666666666669" y="628.3838383838383" type="line"/>
    </contour>
  </outline>
</glyph>
<glyph name="greater" format="2">
  <advance width="1021.2525252525253"/>
  <unicode hex="003E"/>
  <outline>
    <contour>
      <point x="126.66666666666669" y="360.30303030303037" type="line"/>
      <point x="894.5858585858585" y="689.8787878787879" type="line"/>
      <point x="894.5858585858585" y="830.1212121212121" type="line"/>
      <point x="126.66666666666669" y="1159.6969696969697" type="line"/>
      <point x="126.66666666666669" y="1027.8181818181818" type="line"/>
      <point x="790.6666666666666" y="748.0" type="line"/>
      <point x="790.6666666666666" y="772.0" type="line"/>
      <point x="126.66666666666669" y="492.1818181818182" type="line"/>
    </contour>
  </outline>
</glyph>
<glyph name="question" format="2">
  <advance width="799.9191919191919"/>
  <unicode hex="003F"/>
  <outline>
    <contour>
      <point x="297.5959595959596" y="360.9292929292929" type="line"/>
      <point x="394.96969696969694" y="360.9292929292929" type="line"/>
      <point x="410.2222222222222" y="693.4747474747475" type="line"/>
      <point x="652.1414141414141" y="797.7171717171717"/>
      <point x="747.7979797979798" y="925.9191919191919"/>
      <point x="747.7979797979798" y="1128.5454545454545" type="curve" smooth="yes"/>
      <point x="747.7979797979798" y="1366.8484848484848"/>
      <point x="600.2424242424242" y="1498.5252525252524"/>
      <point x="321.55555555555554" y="1498.5252525252524" type="curve" smooth="yes"/>
      <point x="220.3030303030303" y="1498.5252525252524"/>
      <point x="105.37373737373737" y="1478.5252525252524"/>
      <point x="32.121212121212125" y="1445.5757575757575" type="curve"/>
      <point x="32.121212121212125" y="1315.5959595959596" type="line"/>
      <point x="117.07070707070707" y="1351.4949494949497"/>
      <point x="207.8989898989899" y="1369.4949494949497"/>
      <point x="306.8484848484849" y="1369.4949494949497" type="curve" smooth="yes"/>
      <point x="502.5656565656566" y="1369.4949494949497"/>
      <point x="597.959595959596" y="1287.1515151515152"/>
      <point x="597.959595959596" y="1117.939393939394" type="curve" smooth="yes"/>
      <point x="597.959595959596" y="958.6262626262626"/>
      <point x="518.7878787878788" y="857.4343434343434"/>
      <point x="271.41414141414145" y="770.6666666666666" type="curve"/>
    </contour>
    <contour>
      <point x="346.2828282828283" y="-12.626262626262625" type="curve" smooth="yes"/>
      <point x="412.12121212121207" y="-12.626262626262625"/>
      <point x="456.60606060606057" y="31.757575757575744"/>
      <point x="456.60606060606057" y="95.07070707070704" type="curve" smooth="yes"/>
      <point x="456.60606060606057" y="159.8585858585858"/>
      <point x="411.69696969696963" y="204.2424242424242"/>
      <point x="346.2828282828283" y="204.2424242424242" type="curve" smooth="yes"/>
      <point x="280.8686868686869" y="204.2424242424242"/>
      <point x="235.959595959596" y="160.90909090909085"/>
      <point x="235.959595959596" y="95.07070707070704" type="curve" smooth="yes"/>
      <point x="235.959595959596" y="30.707070707070695"/>
      <point x="281.9191919191919" y="-12.626262626262625"/>
    </contour>
  </outline>
</glyph>
<glyph name="at" format="2">
  <advance width="1661.030303030303"/>
  <unicode hex="0040"/>
  <outline>
    <contour>
      <point x="871.7777777777777" y="-460.0" type="curve" smooth="yes"/>
      <point x="997.131313131313" y="-460.0"/>
      <point x="1114.060606060606" y="-437.57575757575756"/>
      <point x="1212.7676767676767" y="-404.52525252525254" type="curve"/>
      <point x="1212.7676767676767" y="-287.1515151515152" type="line"/>
      <point x="1098.7878787878788" y="-324.62626262626264"/>
      <point x="991.2323232323232" y="-344.10101010101016"/>
      <point x="871.7777777777777" y="-344.10101010101016" type="curve" smooth="yes"/>
      <point x="444.3434343434343" y="-344.10101010101016"/>
      <point x="218.84848484848482" y="-140.30303030303034"/>
      <point x="218.84848484848482" y="522.9494949494949" type="curve" smooth="yes"/>
      <point x="218.84848484848482" y="1178.828282828283"/>
      <point x="444.3434343434343" y="1382.1010101010102"/>
      <point x="836.8282828282828" y="1382.1010101010102" type="curve" smooth="yes"/>
      <point x="1229.3131313131312" y="1382.1010101010102"/>
      <point x="1450.9090909090908" y="1180.929292929293"/>
      <point x="1451.4343434343434" y="560.8282828282828" type="curve" smooth="yes"/>
      <point x="1451.9595959595958" y="202.66666666666663"/>
      <point x="1366.141414141414" y="99.99999999999997"/>
      <point x="1279.2929292929293" y="99.99999999999997" type="curve" smooth="yes"/>
      <point x="1208.7474747474746" y="99.99999999999997"/>
      <point x="1180.7474747474746" y="147.17171717171715"/>
      <point x="1180.7474747474746" y="242.24242424242422" type="curve" smooth="yes"/>
      <point x="1180.7474747474746" y="727.4343434343434" type="line" smooth="yes"/>
      <point x="1180.7474747474746" y="1002.5454545454545"/>
      <point x="1055.919191919192" y="1096.5252525252524"/>
      <point x="815.3535353535353" y="1096.5252525252524" type="curve" smooth="yes"/>
      <point x="730.0" y="1096.5252525252524"/>
      <point x="621.1717171717171" y="1080.0"/>
      <point x="542.3434343434343" y="1050.949494949495" type="curve"/>
      <point x="541.2929292929292" y="920.969696969697" type="line"/>
      <point x="629.1919191919192" y="952.969696969697"/>
      <point x="722.2424242424242" y="967.4949494949495"/>
      <point x="793.9191919191919" y="967.4949494949495" type="curve" smooth="yes"/>
      <point x="952.5656565656566" y="967.4949494949495"/>
      <point x="1032.3838383838383" y="914.2222222222223"/>
      <point x="1032.3838383838383" y="733.6363636363636" type="curve" smooth="yes"/>
      <point x="1032.3838383838383" y="239.33333333333331" type="line"/>
      <point x="968.5656565656566" y="137.27272727272725"/>
      <point x="882.10101010101" y="106.20202020202015"/>
      <point x="807.9595959595958" y="106.20202020202015" type="curve" smooth="yes"/>
      <point x="693.5959595959596" y="106.20202020202015"/>
      <point x="627.151515151515" y="165.69696969696966"/>
      <point x="627.151515151515" y="295.010101010101" type="curve" smooth="yes"/>
      <point x="627.151515151515" y="415.050505050505"/>
      <point x="694.6464646464646" y="481.0707070707071"/>
      <point x="841.8585858585858" y="496.8686868686869" type="curve" smooth="yes"/>
      <point x="1089.939393939394" y="522.5656565656566" type="line"/>
      <point x="1068.909090909091" y="625.8585858585858" type="line"/>
      <point x="830.7272727272726" y="600.1616161616162" type="line" smooth="yes"/>
      <point x="584.5656565656566" y="575.7373737373737"/>
      <point x="474.3636363636363" y="469.4343434343434"/>
      <point x="474.3636363636363" y="276.5050505050505" type="curve" smooth="yes"/>
      <point x="474.3636363636363" y="87.87878787878788"/>
      <point x="593.5151515151515" y="-17.575757575757574"/>
      <point x="766.2424242424242" y="-17.575757575757574" type="curve" smooth="yes"/>
      <point x="877.090909090909" y="-17.575757575757574"/>
      <point x="976.5656565656566" y="25.7979797979798"/>
      <point x="1035.6363636363635" y="124.62626262626263" type="curve"/>
      <point x="1046.2626262626263" y="124.62626262626263" type="line"/>
      <point x="1074.4444444444443" y="36.323232323232325"/>
      <point x="1144.6262626262626" y="-17.575757575757574"/>
      <point x="1255.858585858586" y="-17.575757575757574" type="curve" smooth="yes"/>
      <point x="1433.5757575757575" y="-17.575757575757574"/>
      <point x="1574.5858585858584" y="144.42424242424244"/>
      <point x="1574.5858585858584" y="567.3535353535353" type="curve" smooth="yes"/>
      <point x="1574.5858585858584" y="1230.8686868686868"/>
      <point x="1302.949494949495" y="1498.0"/>
      <point x="836.8282828282828" y="1498.0" type="curve" smooth="yes"/>
      <point x="369.2323232323232" y="1498.0"/>
      <point x="86.44444444444446" y="1230.8686868686868"/>
      <point x="86.44444444444446" y="520.0" type="curve" smooth="yes"/>
      <point x="86.44444444444446" y="-196.7676767676768"/>
      <point x="372.1818181818182" y="-460.0"/>
    </contour>
  </outline>
</glyph>
<glyph name="A" format="2">
  <advance width="1174.6464646464647"/>
  <unicode hex="0041"/>
  <note>
520
</note>
  <anchor x="588.060606060606" y="0.0" name="bottom"/>
  <anchor x="1157.5757575757575" y="0.0" name="ogonek"/>
  <anchor x="588.060606060606" y="1520.0" name="top"/>
  <outline>
    <contour>
      <point x="17.07070707070708" y="0.0" type="line"/>
      <point x="169.9595959595959" y="0.0" type="line"/>
      <point x="599.1111111111111" y="1404.8080808080808" type="line"/>
      <point x="571.959595959596" y="1404.8080808080808" type="line"/>
      <point x="1002.1616161616162" y="0.0" type="line"/>
      <point x="1157.5757575757575" y="0.0" type="line"/>
      <point x="696.2424242424241" y="1480.0" type="line"/>
      <point x="478.4040404040404" y="1480.0" type="line"/>
    </contour>
    <contour>
      <point x="246.0" y="479.6767676767677" type="line"/>
      <point x="928.1212121212121" y="479.6767676767677" type="line"/>
      <point x="894.4646464646464" y="615.010101010101" type="line"/>
      <point x="279.65656565656565" y="615.010101010101" type="line"/>
    </contour>
  </outline>
</glyph>
<glyph name="B" format="2">
  <advance width="1129.919191919192"/>
  <unicode hex="0042"/>
  <anchor x="577.6565656565656" y="0.0" name="bottom"/>
  <anchor x="577.6565656565656" y="1480.0" name="top"/>
  <outline>
    <contour>
      <point x="461.65656565656565" y="-12.626262626262625" type="curve" smooth="yes"/>
      <point x="889.9191919191919" y="-12.626262626262625"/>
      <point x="1067.050505050505" y="127.05050505050505"/>
      <point x="1067.050505050505" y="397.35353535353534" type="curve" smooth="yes"/>
      <point x="1067.050505050505" y="605.4545454545455"/>
      <point x="955.3737373737373" y="742.4242424242424"/>
      <point x="734.9090909090909" y="770.9494949494949" type="curve"/>
      <point x="734.9090909090909" y="757.4747474747475" type="line"/>
      <point x="946.7474747474747" y="792.0"/>
      <point x="1025.050505050505" y="942.1212121212121"/>
      <point x="1025.050505050505" y="1105.5959595959596" type="curve" smooth="yes"/>
      <point x="1025.050505050505" y="1374.0"/>
      <point x="863.3939393939394" y="1495.5757575757575"/>
      <point x="495.4343434343434" y="1495.5757575757575" type="curve" smooth="yes"/>
      <point x="361.65656565656565" y="1495.5757575757575"/>
      <point x="243.17171717171718" y="1481.4747474747476"/>
      <point x="144.04040404040404" y="1461.79797979798" type="curve"/>
      <point x="144.04040404040404" y="6.6262626262626245" type="line"/>
      <point x="245.3939393939394" y="-6.0"/>
      <point x="358.4040404040404" y="-12.626262626262625"/>
    </contour>
    <contour>
      <point x="492.5454545454545" y="114.82828282828278" type="curve" smooth="yes"/>
      <point x="427.89898989898984" y="114.82828282828278"/>
      <point x="361.35353535353534" y="116.82828282828278"/>
      <point x="294.50505050505046" y="123.77777777777774" type="curve"/>
      <point x="294.50505050505046" y="1351.6969696969697" type="line"/>
      <point x="359.25252525252523" y="1362.6464646464647"/>
      <point x="423.89898989898984" y="1368.1212121212122"/>
      <point x="509.8181818181818" y="1368.1212121212122" type="curve" smooth="yes"/>
      <point x="777.5959595959596" y="1368.1212121212122"/>
      <point x="876.7878787878788" y="1290.7272727272727"/>
      <point x="876.7878787878788" y="1098.2424242424242" type="curve" smooth="yes"/>
      <point x="876.7878787878788" y="922.5050505050505"/>
      <point x="792.8686868686868" y="824.4646464646464"/>
      <point x="516.989898989899" y="824.4646464646464" type="curve" smooth="yes"/>
      <point x="274.30303030303025" y="824.4646464646464" type="line"/>
      <point x="274.30303030303025" y="693.8585858585859" type="line"/>
      <point x="553.3131313131313" y="693.8585858585859" type="line" smooth="yes"/>
      <point x="807.070707070707" y="693.8585858585859"/>
      <point x="918.7878787878788" y="596.2424242424242"/>
      <point x="918.7878787878788" y="400.70707070707067" type="curve" smooth="yes"/>
      <point x="918.7878787878788" y="203.59595959595956"/>
      <point x="803.6969696969697" y="114.82828282828278"/>
    </contour>
  </outline>
</glyph>
<glyph name="F" format="2">
  <advance width="952.020202020202"/>
  <unicode hex="0046"/>
  <outline>
    <contour>
      <point x="144.04040404040404" y="0.0" type="line"/>
      <point x="297.13131313131305" y="0.0" type="line"/>
      <point x="297.13131313131305" y="1342.5656565656566" type="line"/>
      <point x="936.1212121212121" y="1342.5656565656566" type="line"/>
      <point x="936.1212121212121" y="1480.0" type="line"/>
      <point x="144.04040404040404" y="1480.0" type="line"/>
    </contour>
    <contour>
      <point x="261.2929292929293" y="678.1010101010102" type="line"/>
      <point x="844.020202020202" y="678.1010101010102" type="line"/>
      <point x="844.020202020202" y="815.5353535353535" type="line"/>
      <point x="261.2929292929293" y="815.5353535353535" type="line"/>
    </contour>
  </outline>
</glyph>
<glyph name="I" format="2">
  <advance width="441.17171717171715"/>
  <unicode hex="0049"/>
  <anchor x="220.58585858585857" y="0.0" name="bottom"/>
  <anchor x="297.13131313131305" y="0.0" name="ogonek"/>
  <anchor x="220.58585858585857" y="1520.0" name="top"/>
  <outline>
    <contour>
      <point x="144.04040404040404" y="0.0" type="line"/>
      <point x="297.13131313131305" y="0.0" type="line"/>
      <point x="297.13131313131305" y="1480.0" type="line"/>
      <point x="144.04040404040404" y="1480.0" type="line"/>
    </contour>
  </outline>
</glyph>
<glyph name="J" format="2">
  <advance width="441.17171717171715"/>
  <unicode hex="004A"/>
  <anchor x="326.6262626262626" y="0.0" name="bottom"/>
  <anchor x="220.58585858585857" y="1520.0" name="top"/>
  <outline>
    <contour>
      <point x="86.5454545454545" y="-342.62626262626264" type="line"/>
      <point x="235.97979797979792" y="-134.94949494949495"/>
      <point x="291.2323232323232" y="35.13131313131312"/>
      <point x="297.13131313131305" y="273.3333333333333" type="curve"/>
      <point x="297.13131313131305" y="1480.0" type="line"/>
      <point x="144.04040404040404" y="1480.0" type="line"/>
      <point x="144.04040404040404" y="291.25252525252523" type="line" smooth="yes"/>
      <point x="144.04040404040404" y="52.808080808080796"/>
      <point x="99.2929292929293" y="-92.36363636363637"/>
      <point x="-17.555555555555546" y="-273.4343434343435" type="curve"/>
    </contour>
  </outline>
</glyph>
<glyph name="K" format="2">
  <advance width="1092.0"/>
  <unicode hex="004B"/>
  <anchor x="579.6363636363636" y="0.0" name="bottom"/>
  <anchor x="576.4848484848485" y="1480.0" name="top"/>
  <outline>
    <contour>
      <point x="968.1616161616162" y="0.0" type="line"/>
      <point x="1138.4040404040404" y="0.0" type="line"/>
      <point x="570.7474747474747" y="785.030303030303" type="line"/>
      <point x="569.6969696969696" y="738.4444444444445" type="line"/>
      <point x="1097.979797979798" y="1480.0" type="line"/>
      <point x="932.3636363636364" y="1480.0" type="line"/>
      <point x="418.2828282828283" y="755.89898989899" type="line"/>
    </contour>
    <contour>
      <point x="144.04040404040404" y="0.0" type="line"/>
      <point x="297.13131313131305" y="0.0" type="line"/>
      <point x="297.13131313131305" y="1480.0" type="line"/>
      <point x="144.04040404040404" y="1480.0" type="line"/>
    </contour>
    <contour>
      <point x="271.6767676767676" y="688.0808080808081" type="line"/>
      <point x="485.4949494949495" y="688.0808080808081" type="line"/>
      <point x="485.4949494949495" y="829.2929292929292" type="line"/>
      <point x="271.6767676767676" y="829.2929292929292" type="line"/>
    </contour>
  </outline>
</glyph>
<glyph name="L" format="2">
  <advance width="928.3434343434343"/>
  <unicode hex="004C"/>
  <anchor x="534.929292929293" y="0.0" name="bottom"/>
  <anchor x="603.7373737373737" y="1616.0" name="caronalt"/>
  <anchor x="680.969696969697" y="805.5151515151515" name="periodcentered"/>
  <anchor x="222.68686868686868" y="795.010101010101" name="slash"/>
  <anchor x="222.68686868686868" y="1520.0" name="top"/>
  <outline>
    <contour>
      <point x="144.04040404040404" y="0.0" type="line"/>
      <point x="924.3434343434343" y="0.0" type="line"/>
      <point x="924.3434343434343" y="139.53535353535347" type="line"/>
      <point x="297.13131313131305" y="139.53535353535347" type="line"/>
      <point x="297.13131313131305" y="1480.0" type="line"/>
      <point x="144.04040404040404" y="1480.0" type="line"/>
    </contour>
  </outline>
</glyph>
<glyph name="M" format="2">
  <advance width="1573.7777777777778"/>
  <unicode hex="004D"/>
  <anchor x="793.7171717171717" y="0.0" name="bottom"/>
  <anchor x="793.7171717171717" y="1480.0" name="top"/>
  <outline>
    <contour>
      <point x="148.04040404040404" y="0.0" type="line"/>
      <point x="292.30303030303025" y="0.0" type="line"/>
      <point x="292.30303030303025" y="1336.4848484848485" type="line"/>
      <point x="245.79797979797976" y="1336.4848484848485" type="line"/>
      <point x="718.9494949494949" y="205.25252525252526" type="line"/>
      <point x="854.8282828282828" y="205.25252525252526" type="line"/>
      <point x="1322.828282828283" y="1336.4848484848485" type="line"/>
      <point x="1281.4747474747476" y="1336.4848484848485" type="line"/>
      <point x="1281.4747474747476" y="0.0" type="line"/>
      <point x="1425.7373737373737" y="0.0" type="line"/>
      <point x="1425.7373737373737" y="1480.0" type="line"/>
      <point x="1242.5858585858587" y="1480.0" type="line"/>
      <point x="774.4646464646464" y="333.3737373737373" type="line"/>
      <point x="805.9393939393939" y="333.3737373737373" type="line"/>
      <point x="331.1919191919191" y="1480.0" type="line"/>
      <point x="148.04040404040404" y="1480.0" type="line"/>
    </contour>
  </outline>
</glyph>
<glyph name="N" format="2">
  <advance width="1282.6666666666667"/>
  <unicode hex="004E"/>
  <anchor x="641.3333333333334" y="0.0" name="bottom"/>
  <anchor x="641.3333333333334" y="1520.0" name="top"/>
  <outline>
    <contour>
      <point x="144.04040404040404" y="0.0" type="line"/>
      <point x="288.8282828282828" y="0.0" type="line"/>
      <point x="288.8282828282828" y="1291.3131313131314" type="line"/>
      <point x="249.99999999999997" y="1291.3131313131314" type="line"/>
      <point x="980.1616161616162" y="0.0" type="line"/>
      <point x="1138.6262626262626" y="0.0" type="line"/>
      <point x="1138.6262626262626" y="1480.0" type="line"/>
      <point x="993.8383838383838" y="1480.0" type="line"/>
      <point x="993.8383838383838" y="188.6868686868686" type="line"/>
      <point x="1032.6666666666667" y="188.6868686868686" type="line"/>
      <point x="302.50505050505046" y="1480.0" type="line"/>
      <point x="144.04040404040404" y="1480.0" type="line"/>
    </contour>
  </outline>
</glyph>
<glyph name="P" format="2">
  <advance width="1097.070707070707"/>
  <unicode hex="0050"/>
  <outline>
    <contour>
      <point x="144.04040404040404" y="0.0" type="line"/>
      <point x="297.13131313131305" y="0.0" type="line"/>
      <point x="297.13131313131305" y="491.8585858585859" type="line"/>
      <point x="348.8282828282828" y="487.4343434343435"/>
      <point x="395.89898989898984" y="485.4343434343435"/>
      <point x="451.5959595959596" y="485.4343434343435" type="curve" smooth="yes"/>
      <point x="833.5959595959596" y="485.4343434343435"/>
      <point x="1017.1515151515151" y="659.2121212121212"/>
      <point x="1017.1515151515151" y="988.7676767676768" type="curve" smooth="yes"/>
      <point x="1017.1515151515151" y="1337.3737373737374"/>
      <point x="833.5959595959596" y="1495.5757575757575"/>
      <point x="471.010101010101" y="1495.5757575757575" type="curve" smooth="yes"/>
      <point x="353.77777777777777" y="1495.5757575757575"/>
      <point x="243.17171717171718" y="1481.4747474747476"/>
      <point x="144.04040404040404" y="1463.2727272727273" type="curve"/>
    </contour>
    <contour>
      <point x="457.07070707070704" y="616.5656565656566" type="curve" smooth="yes"/>
      <point x="400.8484848484848" y="616.5656565656566"/>
      <point x="349.25252525252523" y="618.5656565656566"/>
      <point x="297.13131313131305" y="625.5151515151515" type="curve"/>
      <point x="297.13131313131305" y="1350.5454545454545" type="line"/>
      <point x="355.5757575757575" y="1359.4949494949497"/>
      <point x="414.4444444444444" y="1364.4444444444446"/>
      <point x="480.98989898989896" y="1364.4444444444446" type="curve" smooth="yes"/>
      <point x="742.1212121212121" y="1364.4444444444446"/>
      <point x="864.2626262626263" y="1251.1515151515152"/>
      <point x="864.2626262626263" y="984.7676767676768" type="curve" smooth="yes"/>
      <point x="864.2626262626263" y="731.6565656565656"/>
      <point x="734.7474747474747" y="616.5656565656566"/>
    </contour>
  </outline>
</glyph>
<glyph name="Q" format="2">
  <advance width="1224.9292929292928"/>
  <unicode hex="0051"/>
  <outline>
    <contour>
      <point x="1087.6767676767677" y="-225.69696969696966" type="curve"/>
      <point x="1115.9595959595958" y="-93.51515151515153" type="line"/>
      <point x="934.6868686868686" y="-73.93939393939395"/>
      <point x="734.7676767676767" y="-34.36363636363638"/>
      <point x="555.5555555555555" y="50.363636363636346" type="curve"/>
      <point x="536.6868686868687" y="3.0303030303030223" type="line"/>
      <point x="933.8989898989898" y="-53.17171717171718"/>
      <point x="1138.4848484848485" y="207.77777777777777"/>
      <point x="1138.4848484848485" y="740.0" type="curve" smooth="yes"/>
      <point x="1138.4848484848485" y="1292.2222222222222"/>
      <point x="930.5252525252524" y="1498.5252525252524"/>
      <point x="612.4646464646464" y="1498.5252525252524" type="curve" smooth="yes"/>
      <point x="294.4040404040404" y="1498.5252525252524"/>
      <point x="86.44444444444446" y="1292.2222222222222"/>
      <point x="86.44444444444446" y="740.0" type="curve" smooth="yes"/>
      <point x="86.44444444444446" y="127.95959595959594"/>
      <point x="321.8787878787879" y="-113.63636363636363"/>
    </contour>
    <contour>
      <point x="612.4646464646464" y="115.23232323232318" type="curve" smooth="yes"/>
      <point x="389.1515151515151" y="115.23232323232318"/>
      <point x="245.63636363636357" y="260.6262626262626"/>
      <point x="245.63636363636357" y="745.0505050505051" type="curve" smooth="yes"/>
      <point x="245.63636363636357" y="1219.3737373737374"/>
      <point x="389.1515151515151" y="1364.767676767677"/>
      <point x="612.4646464646464" y="1364.767676767677" type="curve" smooth="yes"/>
      <point x="835.7777777777778" y="1364.767676767677"/>
      <point x="979.2929292929293" y="1219.3737373737374"/>
      <point x="979.2929292929293" y="734.9494949494949" type="curve" smooth="yes"/>
      <point x="979.2929292929293" y="260.6262626262626"/>
      <point x="835.7777777777778" y="115.23232323232318"/>
    </contour>
  </outline>
</glyph>
<glyph name="T" format="2">
  <advance width="1034.1010101010102"/>
  <unicode hex="0054"/>
  <anchor x="517.3131313131313" y="0.0" name="bottom"/>
  <anchor x="517.3131313131313" y="773.7373737373738" name="center"/>
  <anchor x="517.3131313131313" y="1520.0" name="top"/>
  <outline>
    <contour>
      <point x="440.24242424242425" y="0.0" type="line"/>
      <point x="593.8585858585858" y="0.0" type="line"/>
      <point x="593.8585858585858" y="1340.4646464646464" type="line"/>
      <point x="1027.151515151515" y="1340.4646464646464" type="line"/>
      <point x="1027.151515151515" y="1480.0" type="line"/>
      <point x="6.94949494949495" y="1480.0" type="line"/>
      <point x="6.94949494949495" y="1340.4646464646464" type="line"/>
      <point x="440.24242424242425" y="1340.4646464646464" type="line"/>
    </contour>
  </outline>
</glyph>
<glyph name="V" format="2">
  <advance width="1145.7979797979797"/>
  <unicode hex="0056"/>
  <outline>
    <contour>
      <point x="459.4545454545455" y="0.0" type="line"/>
      <point x="686.3434343434343" y="0.0" type="line"/>
      <point x="1143.151515151515" y="1480.0" type="line"/>
      <point x="993.3131313131313" y="1480.0" type="line"/>
      <point x="560.3838383838383" y="68.88888888888887" type="line"/>
      <point x="592.1414141414141" y="68.88888888888887" type="line"/>
      <point x="162.78787878787873" y="1480.0" type="line"/>
      <point x="2.6464646464646524" y="1480.0" type="line"/>
    </contour>
  </outline>
</glyph>
<glyph name="X" format="2">
  <advance width="1132.20202020202"/>
  <unicode hex="0058"/>
  <outline>
    <contour>
      <point x="948.3434343434344" y="0.0" type="line"/>
      <point x="1119.6363636363635" y="0.0" type="line"/>
      <point x="655.2121212121211" y="755.8787878787879" type="line"/>
      <point x="565.8383838383838" y="885.1111111111111" type="line"/>
      <point x="200.78787878787873" y="1480.0" type="line"/>
      <point x="29.393939393939405" y="1480.0" type="line"/>
      <point x="476.4646464646465" y="755.3535353535353" type="line"/>
      <point x="565.8383838383838" y="626.2222222222223" type="line"/>
    </contour>
    <contour>
      <point x="9.939393939393955" y="0.0" type="line"/>
      <point x="181.3333333333333" y="0.0" type="line"/>
      <point x="565.8383838383838" y="626.2222222222223" type="line"/>
      <point x="655.2121212121211" y="755.8787878787879" type="line"/>
      <point x="1100.181818181818" y="1480.0" type="line"/>
      <point x="930.8888888888889" y="1480.0" type="line"/>
      <point x="565.8383838383838" y="885.1111111111111" type="line"/>
      <point x="476.4646464646465" y="755.3535353535353" type="line"/>
    </contour>
  </outline>
</glyph>
<glyph name="bracketleft" format="2">
  <advance width="579.6161616161615"/>
  <unicode hex="005B"/>
  <outline>
    <contour>
      <point x="164.04040404040404" y="-440.0" type="line"/>
      <point x="616.989898989899" y="-440.0" type="line"/>
      <point x="616.989898989899" y="-314.0202020202021" type="line"/>
      <point x="315.5555555555555" y="-314.0202020202021" type="line"/>
      <point x="315.5555555555555" y="1490.020202020202" type="line"/>
      <point x="616.989898989899" y="1490.020202020202" type="line"/>
      <point x="616.989898989899" y="1616.0" type="line"/>
      <point x="164.04040404040404" y="1616.0" type="line"/>
    </contour>
  </outline>
</glyph>
<glyph name="backslash" format="2">
  <advance width="504.66666666666663"/>
  <unicode hex="005C"/>
  <outline>
    <contour>
      <point x="355.8787878787879" y="-240.0" type="line"/>
      <point x="504.66666666666663" y="-240.0" type="line"/>
      <point x="148.78787878787873" y="1616.0" type="line"/>
      <point x="0.0" y="1616.0" type="line"/>
    </contour>
  </outline>
</glyph>
<glyph name="bracketright" format="2">
  <advance width="579.6161616161615"/>
  <unicode hex="005D"/>
  <outline>
    <contour>
      <point x="-37.37373737373738" y="-440.0" type="line"/>
      <point x="415.5757575757575" y="-440.0" type="line"/>
      <point x="415.5757575757575" y="1616.0" type="line"/>
      <point x="-37.37373737373738" y="1616.0" type="line"/>
      <point x="-37.37373737373738" y="1490.020202020202" type="line"/>
      <point x="264.06060606060606" y="1490.020202020202" type="line"/>
      <point x="264.06060606060606" y="-314.0202020202021" type="line"/>
      <point x="-37.37373737373738" y="-314.0202020202021" type="line"/>
    </contour>
  </outline>
</glyph>
<glyph name="asciicircum" format="2">
  <advance width="1052.5252525252524"/>
  <unicode hex="005E"/>
  <outline>
    <contour>
      <point x="98.24242424242425" y="740.0" type="line"/>
      <point x="247.2525252525252" y="740.0" type="line"/>
      <point x="548.1212121212121" y="1393.878787878788" type="line"/>
      <point x="504.4040404040404" y="1393.878787878788" type="line"/>
      <point x="805.2727272727273" y="740.0" type="line"/>
      <point x="954.2828282828282" y="740.0" type="line"/>
      <point x="601.6767676767677" y="1480.0" type="line"/>
      <point x="449.37373737373736" y="1480.0" type="line"/>
    </contour>
  </outline>
</glyph>
<glyph name="underscore" format="2">
  <advance width="965.5959595959596"/>
  <unicode hex="005F"/>
  <outline>
    <contour>
      <point x="87.37373737373737" y="-125.97979797979794" type="line"/>
      <point x="878.2222222222222" y="-125.97979797979794" type="line"/>
      <point x="878.2222222222222" y="0.0" type="line"/>
      <point x="87.37373737373737" y="0.0" type="line"/>
    </contour>
  </outline>
</glyph>
<glyph name="grave" format="2">
  <advance width="905.050505050505"/>
  <unicode hex="0060"/>
  <anchor x="452.5252525252525" y="1200.0" name="_top"/>
  <anchor x="452.5252525252525" y="1582.2626262626263" name="top"/>
  <outline>
    <contour>
      <point x="387.75757575757575" y="1252.4444444444443" type="line"/>
      <point x="517.2929292929292" y="1252.4444444444443" type="line"/>
      <point x="353.53535353535347" y="1616.0" type="line"/>
      <point x="198.54545454545456" y="1616.0" type="line"/>
    </contour>
  </outline>
</glyph>
<glyph name="b" format="2">
  <advance width="963.8989898989898"/>
  <unicode hex="0062"/>
  <anchor x="486.78787878787875" y="0.0" name="bottom"/>
  <anchor x="202.68686868686868" y="1616.0" name="top"/>
  <outline>
    <contour>
      <point x="400.3636363636363" y="-18.525252525252526" type="curve" smooth="yes"/>
      <point x="717.9797979797979" y="-19.05050505050505"/>
      <point x="888.5050505050505" y="163.45454545454544"/>
      <point x="888.5050505050505" y="561.5757575757576" type="curve" smooth="yes"/>
      <point x="888.5050505050505" y="968.6464646464647"/>
      <point x="721.4545454545454" y="1101.7777777777778"/>
      <point x="531.8787878787879" y="1101.7777777777778" type="curve" smooth="yes"/>
      <point x="418.60606060606057" y="1101.7777777777778"/>
      <point x="333.7575757575757" y="1046.9292929292928"/>
      <point x="287.33333333333326" y="980.6262626262626" type="curve"/>
      <point x="278.18181818181813" y="980.6262626262626" type="line"/>
      <point x="278.18181818181813" y="1616.0" type="line"/>
      <point x="126.66666666666669" y="1616.0" type="line"/>
      <point x="126.66666666666669" y="25.35353535353535" type="line"/>
      <point x="201.8989898989899" y="-2.4242424242424256"/>
      <point x="309.1313131313131" y="-18.525252525252526"/>
    </contour>
    <contour>
      <point x="408.76767676767673" y="106.82828282828278" type="curve" smooth="yes"/>
      <point x="364.7474747474747" y="106.82828282828278"/>
      <point x="311.8787878787878" y="114.72727272727269"/>
      <point x="278.18181818181813" y="124.62626262626259" type="curve"/>
      <point x="278.18181818181813" y="849.8383838383838" type="line"/>
      <point x="321.25252525252523" y="927.1515151515152"/>
      <point x="404.2424242424242" y="968.0202020202021"/>
      <point x="483.75757575757575" y="968.0202020202021" type="curve" smooth="yes"/>
      <point x="624.4242424242424" y="968.0202020202021"/>
      <point x="731.939393939394" y="891.0505050505051"/>
      <point x="731.939393939394" y="546.7474747474747" type="curve" smooth="yes"/>
      <point x="731.939393939394" y="222.76767676767673"/>
      <point x="616.0" y="106.82828282828278"/>
    </contour>
  </outline>
</glyph>
<glyph name="f" format="2">
  <advance width="608.7474747474747"/>
  <unicode hex="0066"/>
  <outline>
    <contour>
      <point x="192.24242424242425" y="0.0" type="line"/>
      <point x="342.18181818181813" y="0.0" type="line"/>
      <point x="342.18181818181813" y="1302.2020202020203" type="line" smooth="yes"/>
      <point x="342.18181818181813" y="1447.0707070707072"/>
      <point x="409.8787878787878" y="1505.919191919192"/>
      <point x="546.4040404040404" y="1505.919191919192" type="curve" smooth="yes"/>
      <point x="588.6262626262626" y="1505.919191919192"/>
      <point x="620.5252525252524" y="1502.4444444444446"/>
      <point x="659.8989898989898" y="1495.4949494949497" type="curve"/>
      <point x="659.8989898989898" y="1625.4747474747476" type="line"/>
      <point x="618.8484848484848" y="1633.4747474747476"/>
      <point x="570.7474747474747" y="1636.0"/>
      <point x="533.070707070707" y="1636.0" type="curve" smooth="yes"/>
      <point x="306.62626262626264" y="1636.0"/>
      <point x="192.24242424242425" y="1517.4141414141413"/>
      <point x="192.24242424242425" y="1296.848484848485" type="curve" smooth="yes"/>
    </contour>
    <contour>
      <point x="8.0" y="959.2727272727274" type="line"/>
      <point x="623.7979797979798" y="959.2727272727274" type="line"/>
      <point x="623.7979797979798" y="1085.2525252525252" type="line"/>
      <point x="8.0" y="1085.2525252525252" type="line"/>
    </contour>
  </outline>
</glyph>
<glyph name="h" format="2">
  <advance width="974.1212121212121"/>
  <unicode hex="0068"/>
  <anchor x="491.5353535353535" y="0.0" name="bottom"/>
  <anchor x="491.5353535353535" y="542.6262626262626" name="center"/>
  <anchor x="126.66666666666669" y="1354.4242424242425" name="stroke"/>
  <anchor x="491.5353535353535" y="1616.0" name="top"/>
  <outline>
    <contour>
      <point x="126.66666666666669" y="0.0" type="line"/>
      <point x="278.18181818181813" y="0.0" type="line"/>
      <point x="278.18181818181813" y="820.0606060606061" type="line"/>
      <point x="338.5252525252525" y="926.6464646464647"/>
      <point x="446.3636363636363" y="961.8181818181819"/>
      <point x="523.1313131313132" y="961.8181818181819" type="curve" smooth="yes"/>
      <point x="631.070707070707" y="961.8181818181819"/>
      <point x="704.3636363636364" y="911.2727272727274"/>
      <point x="704.3636363636364" y="747.2121212121212" type="curve" smooth="yes"/>
      <point x="704.3636363636364" y="0.0" type="line"/>
      <point x="855.8787878787879" y="0.0" type="line"/>
      <point x="855.8787878787879" y="753.7171717171717" type="line" smooth="yes"/>
      <point x="855.8787878787879" y="1017.3737373737374"/>
      <point x="729.6767676767677" y="1101.7777777777778"/>
      <point x="570.2020202020202" y="1101.7777777777778" type="curve" smooth="yes"/>
      <point x="455.99999999999994" y="1101.7777777777778"/>
      <point x="358.9292929292929" y="1056.20202020202"/>
      <point x="287.33333333333326" y="964.4040404040404" type="curve"/>
      <point x="278.18181818181813" y="964.4040404040404" type="line"/>
      <point x="278.18181818181813" y="1616.0" type="line"/>
      <point x="126.66666666666669" y="1616.0" type="line"/>
    </contour>
  </outline>
</glyph>
<glyph name="j" format="2">
  <advance width="405.37373737373736"/>
  <unicode hex="006A"/>
  <anchor x="202.68686868686868" y="1200.0" name="_top"/>
  <anchor x="202.68686868686868" y="1200.0" name="top"/>
  <outline>
    <contour>
      <point x="69.17171717171715" y="-464.2020202020202" type="line"/>
      <point x="218.08080808080803" y="-256.52525252525254"/>
      <point x="278.70707070707067" y="-86.44444444444446"/>
      <point x="278.70707070707067" y="181.25252525252526" type="curve" smooth="yes"/>
      <point x="278.70707070707067" y="1085.2525252525252" type="line"/>
      <point x="126.66666666666669" y="1085.2525252525252" type="line"/>
      <point x="126.66666666666669" y="169.67676767676767" type="line" smooth="yes"/>
      <point x="126.66666666666669" y="-68.76767676767678"/>
      <point x="81.91919191919193" y="-213.93939393939397"/>
      <point x="-34.92929292929292" y="-395.01010101010104" type="curve"/>
    </contour>
    <contour>
      <point x="202.68686868686868" y="1320.6060606060607" type="curve" smooth="yes"/>
      <point x="271.7777777777777" y="1320.6060606060607"/>
      <point x="309.8585858585858" y="1358.7878787878788"/>
      <point x="309.8585858585858" y="1420.949494949495" type="curve" smooth="yes"/>
      <point x="309.8585858585858" y="1483.111111111111"/>
      <point x="271.7777777777777" y="1522.7676767676767"/>
      <point x="202.68686868686868" y="1522.7676767676767" type="curve" smooth="yes"/>
      <point x="133.5959595959596" y="1522.7676767676767"/>
      <point x="95.51515151515153" y="1483.111111111111"/>
      <point x="95.51515151515153" y="1420.949494949495" type="curve" smooth="yes"/>
      <point x="95.51515151515153" y="1358.7878787878788"/>
      <point x="133.5959595959596" y="1320.6060606060607"/>
    </contour>
  </outline>
</glyph>
<glyph name="k" format="2">
  <advance width="899.7575757575758"/>
  <unicode hex="006B"/>
  <guideline x="565.7575757575758" y="555.6767676767677" angle="0.0"/>
  <anchor x="494.5656565656565" y="0.0" name="bottom"/>
  <anchor x="202.68686868686868" y="1616.0" name="top"/>
  <outline>
    <contour>
      <point x="758.8686868686868" y="0.0" type="line"/>
      <point x="929.0101010101009" y="0.0" type="line"/>
      <point x="529.070707070707" y="580.8080808080808" type="line"/>
      <point x="529.070707070707" y="534.2222222222222" type="line"/>
      <point x="895.9595959595958" y="1085.2525252525252" type="line"/>
      <point x="729.9191919191919" y="1085.2525252525252" type="line"/>
      <point x="375.2323232323232" y="555.6767676767677" type="line"/>
    </contour>
    <contour>
      <point x="257.9797979797979" y="492.6868686868687" type="line"/>
      <point x="438.3434343434343" y="492.6868686868687" type="line"/>
      <point x="438.3434343434343" y="618.6666666666666" type="line"/>
      <point x="257.9797979797979" y="618.6666666666666" type="line"/>
    </contour>
    <contour>
      <point x="126.66666666666669" y="0.0" type="line"/>
      <point x="278.18181818181813" y="0.0" type="line"/>
      <point x="278.18181818181813" y="1616.0" type="line"/>
      <point x="126.66666666666669" y="1616.0" type="line"/>
    </contour>
  </outline>
</glyph>
<glyph name="l" format="2">
  <advance width="404.8484848484848"/>
  <unicode hex="006C"/>
  <anchor x="202.68686868686868" y="0.0" name="bottom"/>
  <anchor x="372.9292929292929" y="1616.0" name="caronalt"/>
  <anchor x="442.9696969696969" y="794.0" name="periodcentered"/>
  <anchor x="202.68686868686868" y="714.0" name="slash"/>
  <anchor x="202.68686868686868" y="1616.0" name="top"/>
  <outline>
    <contour>
      <point x="126.66666666666669" y="0.0" type="line"/>
      <point x="278.18181818181813" y="0.0" type="line"/>
      <point x="278.18181818181813" y="1616.0" type="line"/>
      <point x="126.66666666666669" y="1616.0" type="line"/>
    </contour>
  </outline>
</glyph>
<glyph name="m" format="2">
  <advance width="1496.7474747474748"/>
  <unicode hex="006D"/>
  <anchor x="754.5858585858585" y="0.0" name="bottom"/>
  <anchor x="754.5858585858585" y="1200.0" name="top"/>
  <outline>
    <contour>
      <point x="126.66666666666669" y="0.0" type="line"/>
      <point x="278.18181818181813" y="0.0" type="line"/>
      <point x="278.18181818181813" y="815.6363636363636" type="line"/>
      <point x="336.5252525252525" y="926.6464646464647"/>
      <point x="439.4141414141414" y="963.2929292929293"/>
      <point x="509.75757575757575" y="963.2929292929293" type="curve" smooth="yes"/>
      <point x="608.3232323232323" y="963.2929292929293"/>
      <point x="679.6161616161617" y="911.7979797979798"/>
      <point x="679.6161616161617" y="746.8888888888889" type="curve" smooth="yes"/>
      <point x="679.6161616161617" y="0.0" type="line"/>
      <point x="829.030303030303" y="0.0" type="line"/>
      <point x="829.030303030303" y="758.969696969697" type="line" smooth="yes"/>
      <point x="829.030303030303" y="1018.4242424242424"/>
      <point x="708.3030303030303" y="1101.7777777777778"/>
      <point x="556.6262626262626" y="1101.7777777777778" type="curve" smooth="yes"/>
      <point x="448.9494949494949" y="1101.7777777777778"/>
      <point x="351.6767676767676" y="1057.7777777777778"/>
      <point x="276.8282828282828" y="962.929292929293" type="curve"/>
      <point x="266.7272727272727" y="962.929292929293" type="line"/>
      <point x="254.94949494949492" y="1085.2525252525252" type="line"/>
      <point x="126.66666666666669" y="1085.2525252525252" type="line"/>
    </contour>
    <contour>
      <point x="1226.989898989899" y="0.0" type="line"/>
      <point x="1378.5050505050503" y="0.0" type="line"/>
      <point x="1378.5050505050503" y="752.6666666666666" type="line" smooth="yes"/>
      <point x="1378.5050505050503" y="1017.3737373737374"/>
      <point x="1251.2525252525252" y="1101.7777777777778"/>
      <point x="1093.7979797979797" y="1101.7777777777778" type="curve" smooth="yes"/>
      <point x="985.5959595959596" y="1101.7777777777778"/>
      <point x="863.2727272727273" y="1054.1010101010102"/>
      <point x="776.6262626262626" y="917.6565656565656" type="curve"/>
      <point x="813.5555555555555" y="797.939393939394" type="line"/>
      <point x="872.9494949494949" y="926.6464646464647"/>
      <point x="982.7878787878788" y="963.2929292929293"/>
      <point x="1053.1313131313132" y="963.2929292929293" type="curve" smooth="yes"/>
      <point x="1151.6969696969697" y="963.2929292929293"/>
      <point x="1226.989898989899" y="911.7979797979798"/>
      <point x="1226.989898989899" y="746.8888888888889" type="curve" smooth="yes"/>
    </contour>
  </outline>
</glyph>
<glyph name="p" format="2">
  <advance width="963.8989898989898"/>
  <unicode hex="0070"/>
  <outline>
    <contour>
      <point x="126.66666666666669" y="-440.0" type="line"/>
      <point x="278.18181818181813" y="-440.0" type="line"/>
      <point x="278.18181818181813" y="-11.151515151515149" type="line"/>
      <point x="315.1515151515151" y="-15.575757575757574"/>
      <point x="358.96969696969694" y="-18.525252525252526"/>
      <point x="395.93939393939394" y="-18.525252525252526" type="curve" smooth="yes"/>
      <point x="719.4545454545454" y="-18.525252525252526"/>
      <point x="888.5050505050505" y="163.97979797979798"/>
      <point x="888.5050505050505" y="562.10101010101" type="curve" smooth="yes"/>
      <point x="888.5050505050505" y="969.1717171717172"/>
      <point x="717.2525252525252" y="1101.7777777777778"/>
      <point x="522.10101010101" y="1101.7777777777778" type="curve" smooth="yes"/>
      <point x="408.6262626262626" y="1101.7777777777778"/>
      <point x="323.7777777777777" y="1044.828282828283"/>
      <point x="277.8787878787878" y="973.0505050505051" type="curve"/>
      <point x="267.7777777777777" y="973.0505050505051" type="line"/>
      <point x="256.5252525252525" y="1085.2525252525252" type="line"/>
      <point x="126.66666666666669" y="1085.2525252525252" type="line"/>
    </contour>
    <contour>
      <point x="405.8181818181818" y="106.82828282828278" type="curve" smooth="yes"/>
      <point x="366.3232323232323" y="106.82828282828278"/>
      <point x="311.8787878787878" y="111.77777777777774"/>
      <point x="278.18181818181813" y="118.20202020202015" type="curve"/>
      <point x="278.18181818181813" y="845.3131313131313" type="line"/>
      <point x="321.7777777777777" y="926.6262626262627"/>
      <point x="405.8181818181818" y="968.5454545454546"/>
      <point x="485.4343434343434" y="968.5454545454546" type="curve" smooth="yes"/>
      <point x="624.4242424242424" y="968.5454545454546"/>
      <point x="731.939393939394" y="891.5757575757576"/>
      <point x="731.939393939394" y="547.2727272727273" type="curve" smooth="yes"/>
      <point x="731.939393939394" y="222.76767676767673"/>
      <point x="616.0" y="106.82828282828278"/>
    </contour>
  </outline>
</glyph>
<glyph name="q" format="2">
  <advance width="963.8989898989898"/>
  <unicode hex="0071"/>
  <outline>
    <contour>
      <point x="685.7171717171717" y="-440.0" type="line"/>
      <point x="837.2323232323232" y="-440.0" type="line"/>
      <point x="837.2323232323232" y="1057.8989898989898" type="line"/>
      <point x="764.9494949494949" y="1084.20202020202"/>
      <point x="654.7676767676768" y="1101.7777777777778"/>
      <point x="563.5353535353535" y="1101.7777777777778" type="curve" smooth="yes"/>
      <point x="245.91919191919192" y="1101.7777777777778"/>
      <point x="75.3939393939394" y="919.7979797979798"/>
      <point x="75.3939393939394" y="521.6767676767677" type="curve" smooth="yes"/>
      <point x="75.3939393939394" y="114.6060606060606"/>
      <point x="242.44444444444446" y="-18.525252525252526"/>
      <point x="432.020202020202" y="-18.525252525252526" type="curve" smooth="yes"/>
      <point x="545.2929292929293" y="-18.525252525252526"/>
      <point x="630.1414141414142" y="36.323232323232325"/>
      <point x="676.5656565656566" y="102.62626262626263" type="curve"/>
      <point x="685.7171717171717" y="102.62626262626263" type="line"/>
    </contour>
    <contour>
      <point x="480.1414141414141" y="115.23232323232318" type="curve" smooth="yes"/>
      <point x="339.47474747474746" y="115.23232323232318"/>
      <point x="231.9595959595959" y="192.20202020202015"/>
      <point x="231.9595959595959" y="536.5050505050505" type="curve" smooth="yes"/>
      <point x="231.9595959595959" y="860.4848484848485"/>
      <point x="348.9494949494949" y="976.4242424242425"/>
      <point x="554.6060606060606" y="976.4242424242425" type="curve" smooth="yes"/>
      <point x="598.6262626262626" y="976.4242424242425"/>
      <point x="652.0202020202021" y="968.5252525252525"/>
      <point x="685.7171717171717" y="960.6262626262627" type="curve"/>
      <point x="685.7171717171717" y="233.4141414141414" type="line"/>
      <point x="642.6464646464647" y="156.10101010101005"/>
      <point x="559.6565656565656" y="115.23232323232318"/>
    </contour>
  </outline>
</glyph>
<glyph name="v" format="2">
  <advance width="908.9494949494949"/>
  <unicode hex="0076"/>
  <anchor x="455.2121212121212" y="0.0" name="bottom"/>
  <anchor x="455.2121212121212" y="1200.0" name="top"/>
  <outline>
    <contour>
      <point x="354.16161616161617" y="0.0" type="line"/>
      <point x="554.7878787878788" y="0.0" type="line"/>
      <point x="902.7272727272726" y="1085.2525252525252" type="line"/>
      <point x="746.8888888888889" y="1085.2525252525252" type="line"/>
      <point x="444.78787878787875" y="108.58585858585853" type="line"/>
      <point x="468.3636363636363" y="108.58585858585853" type="line"/>
      <point x="166.2626262626262" y="1085.2525252525252" type="line"/>
      <point x="6.222222222222227" y="1085.2525252525252" type="line"/>
    </contour>
  </outline>
</glyph>
<glyph name="w" format="2">
  <advance width="1492.8484848484848"/>
  <unicode hex="0077"/>
  <anchor x="746.6868686868687" y="0.0" name="bottom"/>
  <anchor x="748.1616161616162" y="1200.0" name="top"/>
  <outline>
    <contour>
      <point x="318.3636363636364" y="0.0" type="line"/>
      <point x="495.35353535353534" y="0.0" type="line"/>
      <point x="756.2626262626262" y="954.8888888888889" type="line"/>
      <point x="740.1616161616162" y="954.8888888888889" type="line"/>
      <point x="998.0202020202021" y="0.0" type="line"/>
      <point x="1175.010101010101" y="0.0" type="line"/>
      <point x="1453.4545454545455" y="1085.2525252525252" type="line"/>
      <point x="1312.5454545454545" y="1085.2525252525252" type="line"/>
      <point x="1074.2626262626263" y="139.79797979797974" type="line"/>
      <point x="1091.8383838383838" y="139.79797979797974" type="line"/>
      <point x="838.2828282828282" y="1085.2525252525252" type="line"/>
      <point x="661.2929292929293" y="1085.2525252525252" type="line"/>
      <point x="406.16161616161617" y="139.2727272727272" type="line"/>
      <point x="421.6363636363636" y="139.2727272727272" type="line"/>
      <point x="185.4545454545454" y="1085.2525252525252" type="line"/>
      <point x="39.393939393939405" y="1085.2525252525252" type="line"/>
    </contour>
  </outline>
</glyph>
<glyph name="x" format="2">
  <advance width="855.8585858585858"/>
  <unicode hex="0078"/>
  <anchor x="428.66666666666663" y="0.0" name="bottom"/>
  <anchor x="429.19191919191917" y="1200.0" name="top"/>
  <outline>
    <contour>
      <point x="687.2727272727273" y="0.0" type="line"/>
      <point x="855.5151515151515" y="0.0" type="line"/>
      <point x="517.090909090909" y="549.1515151515151" type="line"/>
      <point x="429.7171717171717" y="668.5050505050505" type="line"/>
      <point x="175.63636363636357" y="1085.2525252525252" type="line"/>
      <point x="7.393939393939403" y="1085.2525252525252" type="line"/>
      <point x="338.24242424242425" y="546.6262626262626" type="line"/>
      <point x="426.66666666666663" y="429.79797979797985" type="line"/>
    </contour>
    <contour>
      <point x="2.868686868686879" y="0.0" type="line"/>
      <point x="166.48484848484844" y="0.0" type="line"/>
      <point x="426.66666666666663" y="429.79797979797985" type="line"/>
      <point x="517.090909090909" y="549.1515151515151" type="line"/>
      <point x="847.4141414141413" y="1085.2525252525252" type="line"/>
      <point x="683.7979797979798" y="1085.2525252525252" type="line"/>
      <point x="429.7171717171717" y="668.5050505050505" type="line"/>
      <point x="338.24242424242425" y="546.6262626262626" type="line"/>
    </contour>
  </outline>
</glyph>
<glyph name="z" format="2">
  <advance width="777.1919191919192"/>
  <unicode hex="007A"/>
  <anchor x="392.9090909090909" y="0.0" name="bottom"/>
  <anchor x="392.9090909090909" y="1200.0" name="top"/>
  <outline>
    <contour>
      <point x="50.84848484848485" y="0.0" type="line"/>
      <point x="733.4949494949494" y="0.0" type="line"/>
      <point x="733.4949494949494" y="125.97979797979794" type="line"/>
      <point x="203.73737373737367" y="125.97979797979794" type="line"/>
      <point x="203.73737373737367" y="87.89898989898987" type="line"/>
      <point x="723.4949494949494" y="992.7272727272727" type="line"/>
      <point x="723.4949494949494" y="1085.2525252525252" type="line"/>
      <point x="60.84848484848485" y="1085.2525252525252" type="line"/>
      <point x="60.84848484848485" y="959.2727272727274" type="line"/>
      <point x="570.6060606060606" y="959.2727272727274" type="line"/>
      <point x="570.6060606060606" y="997.3535353535353" type="line"/>
      <point x="50.84848484848485" y="92.52525252525248" type="line"/>
    </contour>
  </outline>
</glyph>
<glyph name="braceleft" format="2">
  <advance width="619.6161616161615"/>
  <unicode hex="007B"/>
  <outline>
    <contour>
      <point x="521.2323232323232" y="-460.0" type="curve" smooth="yes"/>
      <point x="572.060606060606" y="-460.0"/>
      <point x="621.2121212121212" y="-455.47474747474746"/>
      <point x="656.989898989899" y="-448.949494949495" type="curve"/>
      <point x="656.989898989899" y="-330.969696969697" type="line"/>
      <point x="536.1414141414141" y="-330.969696969697" type="line" smooth="yes"/>
      <point x="414.6262626262626" y="-330.969696969697"/>
      <point x="355.5555555555555" y="-274.00000000000006"/>
      <point x="355.5555555555555" y="-154.0606060606061" type="curve" smooth="yes"/>
      <point x="355.5555555555555" y="397.7171717171717" type="line" smooth="yes"/>
      <point x="355.5555555555555" y="534.7272727272727"/>
      <point x="296.4242424242424" y="616.1818181818181"/>
      <point x="153.57575757575756" y="635.3535353535353" type="curve"/>
      <point x="153.57575757575756" y="613.89898989899" type="line"/>
      <point x="296.4242424242424" y="633.070707070707"/>
      <point x="355.5555555555555" y="714.5252525252525"/>
      <point x="355.5555555555555" y="851.5353535353535" type="curve" smooth="yes"/>
      <point x="355.5555555555555" y="1330.060606060606" type="line" smooth="yes"/>
      <point x="355.5555555555555" y="1450.0"/>
      <point x="414.6262626262626" y="1506.969696969697"/>
      <point x="536.1414141414141" y="1506.969696969697" type="curve" smooth="yes"/>
      <point x="656.989898989899" y="1506.969696969697" type="line"/>
      <point x="656.989898989899" y="1624.949494949495" type="line"/>
      <point x="621.2121212121212" y="1631.4747474747476"/>
      <point x="572.060606060606" y="1636.0"/>
      <point x="521.2323232323232" y="1636.0" type="curve" smooth="yes"/>
      <point x="311.5959595959596" y="1636.0"/>
      <point x="204.04040404040404" y="1529.4949494949494"/>
      <point x="204.04040404040404" y="1323.111111111111" type="curve" smooth="yes"/>
      <point x="204.04040404040404" y="843.6565656565656" type="line" smooth="yes"/>
      <point x="204.04040404040404" y="737.9393939393939"/>
      <point x="147.81818181818184" y="687.6161616161615"/>
      <point x="49.474747474747474" y="687.6161616161615" type="curve" smooth="yes"/>
      <point x="30.242424242424256" y="687.6161616161615" type="line"/>
      <point x="30.242424242424256" y="561.6363636363636" type="line"/>
      <point x="49.474747474747474" y="561.6363636363636" type="line" smooth="yes"/>
      <point x="147.81818181818184" y="561.6363636363636"/>
      <point x="204.04040404040404" y="511.31313131313135"/>
      <point x="204.04040404040404" y="405.5959595959596" type="curve" smooth="yes"/>
      <point x="204.04040404040404" y="-147.11111111111114" type="line" smooth="yes"/>
      <point x="204.04040404040404" y="-353.4949494949495"/>
      <point x="311.5959595959596" y="-460.0"/>
    </contour>
  </outline>
</glyph>
<glyph name="bar" format="2">
  <advance width="427.5151515151515"/>
  <unicode hex="007C"/>
  <outline>
    <contour>
      <point x="144.04040404040404" y="-440.0" type="line"/>
      <point x="283.47474747474746" y="-440.0" type="line"/>
      <point x="283.47474747474746" y="1616.0" type="line"/>
      <point x="144.04040404040404" y="1616.0" type="line"/>
    </contour>
  </outline>
</glyph>
<glyph name="braceright" format="2">
  <advance width="619.6161616161615"/>
  <unicode hex="007D"/>
  <outline>
    <contour>
      <point x="98.38383838383837" y="-460.0" type="curve" smooth="yes"/>
      <point x="308.02020202020196" y="-460.0"/>
      <point x="415.5757575757575" y="-353.4949494949495"/>
      <point x="415.5757575757575" y="-147.11111111111114" type="curve" smooth="yes"/>
      <point x="415.5757575757575" y="405.5959595959596" type="line" smooth="yes"/>
      <point x="415.5757575757575" y="511.31313131313135"/>
      <point x="471.7979797979798" y="561.6363636363636"/>
      <point x="570.1414141414141" y="561.6363636363636" type="curve" smooth="yes"/>
      <point x="589.3737373737373" y="561.6363636363636" type="line"/>
      <point x="589.3737373737373" y="687.6161616161615" type="line"/>
      <point x="570.1414141414141" y="687.6161616161615" type="line" smooth="yes"/>
      <point x="471.7979797979798" y="687.6161616161615"/>
      <point x="415.5757575757575" y="737.9393939393939"/>
      <point x="415.5757575757575" y="843.6565656565656" type="curve" smooth="yes"/>
      <point x="415.5757575757575" y="1323.111111111111" type="line" smooth="yes"/>
      <point x="415.5757575757575" y="1529.4949494949494"/>
      <point x="308.02020202020196" y="1636.0"/>
      <point x="98.38383838383837" y="1636.0" type="curve" smooth="yes"/>
      <point x="47.55555555555554" y="1636.0"/>
      <point x="-1.5959595959596022" y="1631.4747474747476"/>
      <point x="-37.37373737373738" y="1624.949494949495" type="curve"/>
      <point x="-37.37373737373738" y="1506.969696969697" type="line"/>
      <point x="83.47474747474747" y="1506.969696969697" type="line" smooth="yes"/>
      <point x="204.98989898989902" y="1506.969696969697"/>
      <point x="264.06060606060606" y="1450.0"/>
      <point x="264.06060606060606" y="1330.060606060606" type="curve" smooth="yes"/>
      <point x="264.06060606060606" y="851.5353535353535" type="line" smooth="yes"/>
      <point x="264.06060606060606" y="714.5252525252525"/>
      <point x="324.7676767676768" y="633.070707070707"/>
      <point x="466.04040404040404" y="613.89898989899" type="curve"/>
      <point x="466.04040404040404" y="635.3535353535353" type="line"/>
      <point x="324.7676767676768" y="616.1818181818181"/>
      <point x="264.06060606060606" y="534.7272727272727"/>
      <point x="264.06060606060606" y="397.7171717171717" type="curve" smooth="yes"/>
      <point x="264.06060606060606" y="-154.0606060606061" type="line" smooth="yes"/>
      <point x="264.06060606060606" y="-274.00000000000006"/>
      <point x="204.98989898989902" y="-330.969696969697"/>
      <point x="83.47474747474747" y="-330.969696969697" type="curve" smooth="yes"/>
      <point x="-37.37373737373738" y="-330.969696969697" type="line"/>
      <point x="-37.37373737373738" y="-448.949494949495" type="line"/>
      <point x="-1.5959595959596022" y="-455.47474747474746"/>
      <point x="47.55555555555554" y="-460.0"/>
    </contour>
  </outline>
</glyph>
<glyph name="asciitilde" format="2">
  <advance width="1021.2525252525253"/>
  <unicode hex="007E"/>
  <outline>
    <contour>
      <point x="688.929292929293" y="635.1111111111111" type="curve" smooth="yes"/>
      <point x="774.2828282828283" y="635.1111111111111"/>
      <point x="844.8080808080808" y="666.5858585858587"/>
      <point x="894.5858585858585" y="728.2626262626263" type="curve"/>
      <point x="894.5858585858585" y="868.040404040404" type="line"/>
      <point x="834.2828282828283" y="794.4646464646464"/>
      <point x="768.7070707070707" y="759.5151515151515"/>
      <point x="688.5050505050505" y="759.5151515151515" type="curve" smooth="yes"/>
      <point x="578.7272727272727" y="759.5151515151515"/>
      <point x="470.62626262626264" y="876.040404040404"/>
      <point x="332.32323232323233" y="876.040404040404" type="curve" smooth="yes"/>
      <point x="246.96969696969697" y="876.040404040404"/>
      <point x="176.44444444444446" y="844.5656565656566"/>
      <point x="126.66666666666669" y="782.8888888888889" type="curve"/>
      <point x="126.66666666666669" y="643.1111111111111" type="line"/>
      <point x="186.96969696969697" y="716.6868686868687"/>
      <point x="252.54545454545456" y="751.6363636363636"/>
      <point x="332.74747474747477" y="751.6363636363636" type="curve" smooth="yes"/>
      <point x="442.52525252525254" y="751.6363636363636"/>
      <point x="550.6262626262626" y="635.1111111111111"/>
    </contour>
  </outline>
</glyph>
<glyph name="exclamdown" format="2">
  <advance width="448.3232323232323"/>
  <unicode hex="00A1"/>
  <outline>
    <contour>
      <point x="176.0" y="709.3737373737374" type="line"/>
      <point x="142.98989898989902" y="165.83838383838386" type="line"/>
      <point x="142.98989898989902" y="-380.0" type="line"/>
      <point x="305.33333333333326" y="-380.0" type="line"/>
      <point x="305.33333333333326" y="165.83838383838386" type="line"/>
      <point x="273.37373737373736" y="709.3737373737374" type="line"/>
    </contour>
    <contour>
      <point x="224.16161616161614" y="1097.8787878787878" type="curve" smooth="yes"/>
      <point x="159.7979797979798" y="1097.8787878787878"/>
      <point x="113.83838383838386" y="1056.020202020202"/>
      <point x="113.83838383838386" y="988.6060606060606" type="curve" smooth="yes"/>
      <point x="113.83838383838386" y="921.1919191919193"/>
      <point x="158.74747474747474" y="877.8585858585859"/>
      <point x="224.16161616161614" y="877.8585858585859" type="curve" smooth="yes"/>
      <point x="289.5757575757575" y="877.8585858585859"/>
      <point x="334.48484848484844" y="922.2424242424242"/>
      <point x="334.48484848484844" y="988.6060606060606" type="curve" smooth="yes"/>
      <point x="334.48484848484844" y="1054.969696969697"/>
      <point x="288.5252525252525" y="1097.8787878787878"/>
    </contour>
  </outline>
</glyph>
<glyph name="cent" format="2">
  <advance width="735.3939393939394"/>
  <unicode hex="00A2"/>
  <outline>
    <contour>
      <point x="493.73737373737373" y="-19.05050505050505" type="curve" smooth="yes"/>
      <point x="565.8383838383838" y="-19.05050505050505"/>
      <point x="640.5656565656566" y="-7.05050505050505"/>
      <point x="717.5151515151515" y="19.8989898989899" type="curve"/>
      <point x="717.5151515151515" y="151.97979797979792" type="line"/>
      <point x="640.8686868686868" y="125.13131313131308"/>
      <point x="577.5959595959596" y="113.6565656565656"/>
      <point x="522.7474747474747" y="113.6565656565656" type="curve" smooth="yes"/>
      <point x="332.080808080808" y="113.6565656565656"/>
      <point x="234.060606060606" y="213.47474747474743"/>
      <point x="234.060606060606" y="546.6262626262626" type="curve" smooth="yes"/>
      <point x="234.060606060606" y="871.5757575757576"/>
      <point x="339.4545454545454" y="969.0707070707072"/>
      <point x="555.5959595959596" y="969.0707070707072" type="curve" smooth="yes"/>
      <point x="599.070707070707" y="969.0707070707072"/>
      <point x="658.3434343434343" y="963.5959595959596"/>
      <point x="717.5151515151515" y="948.7474747474748" type="curve"/>
      <point x="717.5151515151515" y="1080.828282828283" type="line"/>
      <point x="657.9393939393939" y="1095.7777777777778"/>
      <point x="594.8888888888889" y="1101.7777777777778"/>
      <point x="538.5858585858585" y="1101.7777777777778" type="curve" smooth="yes"/>
      <point x="242.82828282828282" y="1101.7777777777778"/>
      <point x="75.3939393939394" y="953.4747474747475"/>
      <point x="75.3939393939394" y="542.10101010101" type="curve" smooth="yes"/>
      <point x="75.3939393939394" y="134.4040404040404"/>
      <point x="225.57575757575756" y="-19.05050505050505"/>
    </contour>
    <contour>
      <point x="419.7171717171717" y="-240.0" type="line"/>
      <point x="550.9494949494949" y="-240.0" type="line"/>
      <point x="550.9494949494949" y="15.757575757575745" type="line"/>
      <point x="419.7171717171717" y="15.757575757575745" type="line"/>
    </contour>
    <contour>
      <point x="419.7171717171717" y="1069.4949494949494" type="line"/>
      <point x="550.9494949494949" y="1069.4949494949494" type="line"/>
      <point x="550.9494949494949" y="1325.2525252525252" type="line"/>
      <point x="419.7171717171717" y="1325.2525252525252" type="line"/>
    </contour>
  </outline>
</glyph>
<glyph name="yen" format="2">
  <advance width="1075.3939393939393"/>
  <unicode hex="00A5"/>
  <outline>
    <contour>
      <point x="461.41414141414145" y="0.0" type="line"/>
      <point x="614.5050505050505" y="0.0" type="line"/>
      <point x="614.5050505050505" y="724.2828282828283" type="line"/>
      <point x="581.6969696969696" y="601.5757575757576" type="line"/>
      <point x="1085.3535353535353" y="1480.0" type="line"/>
      <point x="930.5656565656566" y="1480.0" type="line"/>
      <point x="517.6565656565656" y="762.3434343434343" type="line"/>
      <point x="564.5656565656566" y="762.3434343434343" type="line"/>
      <point x="153.6565656565656" y="1480.0" type="line"/>
      <point x="-11.535353535353519" y="1480.0" type="line"/>
      <point x="494.22222222222223" y="601.5757575757576" type="line"/>
      <point x="461.41414141414145" y="725.8585858585858" type="line"/>
    </contour>
    <contour>
      <point x="164.04040404040404" y="302.14141414141415" type="line"/>
      <point x="911.8787878787879" y="302.14141414141415" type="line"/>
      <point x="911.8787878787879" y="410.78787878787875" type="line"/>
      <point x="164.04040404040404" y="410.78787878787875" type="line"/>
    </contour>
    <contour>
      <point x="164.04040404040404" y="637.2121212121212" type="line"/>
      <point x="911.8787878787879" y="637.2121212121212" type="line"/>
      <point x="911.8787878787879" y="745.8585858585858" type="line"/>
      <point x="164.04040404040404" y="745.8585858585858" type="line"/>
    </contour>
  </outline>
</glyph>
<glyph name="brokenbar" format="2">
  <advance width="427.5151515151515"/>
  <unicode hex="00A6"/>
  <outline>
    <contour>
      <point x="144.04040404040404" y="836.0" type="line"/>
      <point x="283.47474747474746" y="836.0" type="line"/>
      <point x="283.47474747474746" y="1616.0" type="line"/>
      <point x="144.04040404040404" y="1616.0" type="line"/>
    </contour>
    <contour>
      <point x="144.04040404040404" y="-440.0" type="line"/>
      <point x="283.47474747474746" y="-440.0" type="line"/>
      <point x="283.47474747474746" y="340.0" type="line"/>
      <point x="144.04040404040404" y="340.0" type="line"/>
    </contour>
  </outline>
</glyph>
<glyph name="section" format="2">
  <advance width="859.070707070707"/>
  <unicode hex="00A7"/>
  <outline>
    <contour>
      <point x="365.2323232323232" y="-19.05050505050505" type="curve" smooth="yes"/>
      <point x="602.2424242424242" y="-19.05050505050505"/>
      <point x="740.9494949494949" y="99.35353535353535"/>
      <point x="740.9494949494949" y="294.2828282828283" type="curve" smooth="yes"/>
      <point x="740.9494949494949" y="439.010101010101"/>
      <point x="676.4444444444445" y="530.8080808080808"/>
      <point x="493.37373737373736" y="580.6060606060606" type="curve" smooth="yes"/>
      <point x="374.06060606060606" y="611.8585858585858" type="line" smooth="yes"/>
      <point x="270.86868686868684" y="640.6060606060606"/>
      <point x="222.42424242424238" y="696.10101010101"/>
      <point x="222.42424242424238" y="793.1919191919192" type="curve" smooth="yes"/>
      <point x="222.42424242424238" y="859.4141414141415"/>
      <point x="252.7474747474747" y="914.4848484848485"/>
      <point x="310.4444444444444" y="957.1111111111111" type="curve"/>
      <point x="218.94949494949495" y="1024.2222222222222" type="line"/>
      <point x="142.64646464646466" y="969.5959595959596"/>
      <point x="92.86868686868688" y="887.4949494949495"/>
      <point x="92.86868686868688" y="786.5656565656566" type="curve" smooth="yes"/>
      <point x="92.86868686868688" y="634.909090909091"/>
      <point x="163.37373737373738" y="541.4343434343434"/>
      <point x="332.34343434343435" y="495.6363636363637" type="curve" smooth="yes"/>
      <point x="451.65656565656565" y="463.8585858585859" type="line" smooth="yes"/>
      <point x="547.070707070707" y="436.6868686868687"/>
      <point x="597.939393939394" y="390.7676767676768"/>
      <point x="597.939393939394" y="286.6060606060606" type="curve" smooth="yes"/>
      <point x="597.939393939394" y="169.49494949494948"/>
      <point x="518.8484848484849" y="103.67676767676764"/>
      <point x="364.1818181818182" y="103.67676767676764" type="curve" smooth="yes"/>
      <point x="286.3030303030303" y="103.67676767676764"/>
      <point x="208.84848484848484" y="116.20202020202015"/>
      <point x="121.37373737373737" y="143.15151515151513" type="curve"/>
      <point x="121.37373737373737" y="18.94949494949495" type="line"/>
      <point x="198.2020202020202" y="-5.575757575757574"/>
      <point x="281.030303030303" y="-19.05050505050505"/>
    </contour>
    <contour>
      <point x="637.3939393939394" y="451.1515151515151" type="line"/>
      <point x="715.7979797979798" y="504.8282828282828"/>
      <point x="766.2020202020202" y="586.5050505050505"/>
      <point x="766.2020202020202" y="696.9090909090909" type="curve" smooth="yes"/>
      <point x="766.2020202020202" y="850.5656565656566"/>
      <point x="701.6969696969696" y="945.4141414141413"/>
      <point x="522.8282828282828" y="994.1616161616162" type="curve" smooth="yes"/>
      <point x="403.5151515151515" y="1025.4141414141413" type="line" smooth="yes"/>
      <point x="306.6262626262626" y="1052.5858585858587"/>
      <point x="261.13131313131305" y="1102.4040404040404"/>
      <point x="261.13131313131305" y="1194.2424242424242" type="curve" smooth="yes"/>
      <point x="261.13131313131305" y="1292.6060606060607"/>
      <point x="332.4242424242424" y="1373.79797979798"/>
      <point x="506.4444444444444" y="1373.79797979798" type="curve" smooth="yes"/>
      <point x="576.020202020202" y="1373.79797979798"/>
      <point x="635.2727272727273" y="1367.79797979798"/>
      <point x="707.7979797979798" y="1350.3232323232323" type="curve"/>
      <point x="707.7979797979798" y="1474.5252525252524" type="line"/>
      <point x="644.1212121212121" y="1488.5252525252524"/>
      <point x="577.2929292929292" y="1496.5252525252524"/>
      <point x="499.09090909090907" y="1496.5252525252524" type="curve" smooth="yes"/>
      <point x="250.1010101010101" y="1496.5252525252524"/>
      <point x="118.12121212121212" y="1367.2727272727273"/>
      <point x="118.12121212121212" y="1186.5656565656566" type="curve" smooth="yes"/>
      <point x="118.12121212121212" y="1046.4646464646464"/>
      <point x="188.1010101010101" y="954.989898989899"/>
      <point x="361.7979797979798" y="908.6666666666666" type="curve" smooth="yes"/>
      <point x="481.1111111111111" y="877.4141414141415" type="line" smooth="yes"/>
      <point x="582.8282828282828" y="848.6666666666666"/>
      <point x="636.6464646464647" y="797.070707070707"/>
      <point x="636.6464646464647" y="690.2828282828283" type="curve" smooth="yes"/>
      <point x="636.6464646464647" y="620.3636363636364"/>
      <point x="607.89898989899" y="568.7676767676768"/>
      <point x="547.7979797979798" y="526.040404040404" type="curve"/>
    </contour>
  </outline>
</glyph>
<glyph name="copyright" format="2">
  <advance width="1664.0404040404042"/>
  <unicode hex="00A9"/>
  <outline>
    <contour>
      <point x="832.0202020202021" y="-22.0" type="curve" smooth="yes"/>
      <point x="1279.5959595959596" y="-22.0"/>
      <point x="1577.5959595959596" y="282.0"/>
      <point x="1577.5959595959596" y="740.0" type="curve" smooth="yes"/>
      <point x="1577.5959595959596" y="1198.0"/>
      <point x="1279.5959595959596" y="1502.0"/>
      <point x="832.0202020202021" y="1502.0" type="curve" smooth="yes"/>
      <point x="384.44444444444446" y="1502.0"/>
      <point x="86.44444444444446" y="1198.0"/>
      <point x="86.44444444444446" y="740.0" type="curve" smooth="yes"/>
      <point x="86.44444444444446" y="282.0"/>
      <point x="384.44444444444446" y="-22.0"/>
    </contour>
    <contour>
      <point x="875.4747474747475" y="324.0" type="curve" smooth="yes"/>
      <point x="954.5252525252525" y="324.0"/>
      <point x="1026.5252525252524" y="336.0"/>
      <point x="1089.79797979798" y="362.8484848484849" type="curve"/>
      <point x="1089.79797979798" y="477.17171717171715" type="line"/>
      <point x="1008.8484848484849" y="448.8484848484848"/>
      <point x="944.7272727272727" y="439.89898989898984"/>
      <point x="887.2525252525253" y="439.89898989898984" type="curve" smooth="yes"/>
      <point x="713.3131313131313" y="439.89898989898984"/>
      <point x="607.070707070707" y="535.1919191919192"/>
      <point x="607.070707070707" y="736.4242424242424" type="curve" smooth="yes"/>
      <point x="607.070707070707" y="933.7575757575758"/>
      <point x="711.7373737373737" y="1028.1010101010102"/>
      <point x="906.6262626262626" y="1028.1010101010102" type="curve" smooth="yes"/>
      <point x="972.9494949494949" y="1028.1010101010102"/>
      <point x="1028.3232323232323" y="1019.1515151515152"/>
      <point x="1089.79797979798" y="1003.2525252525253" type="curve"/>
      <point x="1089.79797979798" y="1117.5757575757575" type="line"/>
      <point x="1027.8989898989898" y="1136.0"/>
      <point x="967.3737373737374" y="1144.0"/>
      <point x="897.7979797979798" y="1144.0" type="curve" smooth="yes"/>
      <point x="629.5959595959596" y="1144.0"/>
      <point x="475.1919191919192" y="994.9494949494949"/>
      <point x="475.1919191919192" y="733.4747474747475" type="curve" smooth="yes"/>
      <point x="475.1919191919192" y="465.1515151515151"/>
      <point x="634.4444444444445" y="324.0"/>
    </contour>
    <contour>
      <point x="832.0202020202021" y="83.81818181818178" type="curve" smooth="yes"/>
      <point x="443.8787878787879" y="83.81818181818178"/>
      <point x="194.88888888888886" y="342.4848484848485"/>
      <point x="194.88888888888886" y="740.0" type="curve" smooth="yes"/>
      <point x="194.88888888888886" y="1137.5151515151515"/>
      <point x="443.8787878787879" y="1396.1818181818182"/>
      <point x="832.0202020202021" y="1396.1818181818182" type="curve" smooth="yes"/>
      <point x="1220.1616161616162" y="1396.1818181818182"/>
      <point x="1469.1515151515152" y="1137.5151515151515"/>
      <point x="1469.1515151515152" y="740.0" type="curve" smooth="yes"/>
      <point x="1469.1515151515152" y="342.4848484848485"/>
      <point x="1220.1616161616162" y="83.81818181818178"/>
    </contour>
  </outline>
</glyph>
<glyph name="ordfeminine" format="2">
  <advance width="748.040404040404"/>
  <unicode hex="00AA"/>
  <outline>
    <contour>
      <point x="294.020202020202" y="594.9494949494949" type="curve" smooth="yes"/>
      <point x="385.8181818181818" y="594.9494949494949"/>
      <point x="466.6666666666667" y="629.7979797979798"/>
      <point x="517.4141414141415" y="705.3737373737374" type="curve"/>
      <point x="526.040404040404" y="705.3737373737374" type="line"/>
      <point x="537.2929292929293" y="610.0" type="line"/>
      <point x="654.7474747474747" y="610.0" type="line"/>
      <point x="654.7474747474747" y="1184.2626262626263" type="line" smooth="yes"/>
      <point x="654.7474747474747" y="1415.6969696969697"/>
      <point x="549.3939393939394" y="1494.6262626262626"/>
      <point x="337.030303030303" y="1494.6262626262626" type="curve" smooth="yes"/>
      <point x="261.67676767676767" y="1494.6262626262626"/>
      <point x="171.8989898989899" y="1481.1515151515152"/>
      <point x="103.5959595959596" y="1458.20202020202" type="curve"/>
      <point x="103.5959595959596" y="1339.050505050505" type="line"/>
      <point x="176.96969696969697" y="1362.949494949495"/>
      <point x="250.96969696969697" y="1375.8989898989898"/>
      <point x="313.0707070707071" y="1375.8989898989898" type="curve" smooth="yes"/>
      <point x="451.29292929292933" y="1375.8989898989898"/>
      <point x="515.1111111111111" y="1332.6262626262626"/>
      <point x="515.1111111111111" y="1195.6161616161617" type="curve" smooth="yes"/>
      <point x="515.1111111111111" y="805.6565656565656" type="line"/>
      <point x="466.34343434343435" y="731.3939393939394"/>
      <point x="397.35353535353534" y="706.3232323232323"/>
      <point x="339.73737373737373" y="706.3232323232323" type="curve" smooth="yes"/>
      <point x="245.79797979797976" y="706.3232323232323"/>
      <point x="189.77777777777774" y="753.8181818181818"/>
      <point x="189.77777777777774" y="853.959595959596" type="curve" smooth="yes"/>
      <point x="189.77777777777774" y="946.10101010101"/>
      <point x="245.27272727272725" y="995.5959595959596"/>
      <point x="366.06060606060606" y="1006.4444444444445" type="curve" smooth="yes"/>
      <point x="567.1919191919192" y="1024.6666666666667" type="line"/>
      <point x="547.6363636363636" y="1116.1818181818182" type="line"/>
      <point x="353.45454545454544" y="1097.4343434343434" type="line" smooth="yes"/>
      <point x="139.4949494949495" y="1079.5353535353536"/>
      <point x="49.2929292929293" y="990.9090909090909"/>
      <point x="49.2929292929293" y="834.4040404040404" type="curve" smooth="yes"/>
      <point x="49.2929292929293" y="687.7777777777778"/>
      <point x="149.3939393939394" y="594.9494949494949"/>
    </contour>
  </outline>
</glyph>
<glyph name="guillemetleft" format="2">
  <advance width="831.0101010101009"/>
  <unicode hex="00AB"/>
  <outline>
    <contour>
      <point x="287.4949494949495" y="137.37373737373738" type="line"/>
      <point x="437.43434343434336" y="137.37373737373738" type="line"/>
      <point x="246.80808080808077" y="562.6262626262626" type="line"/>
      <point x="437.43434343434336" y="987.8787878787879" type="line"/>
      <point x="287.4949494949495" y="987.8787878787879" type="line"/>
      <point x="96.86868686868688" y="562.6262626262626" type="line"/>
    </contour>
    <contour>
      <point x="624.2020202020202" y="137.37373737373738" type="line"/>
      <point x="774.1414141414141" y="137.37373737373738" type="line"/>
      <point x="583.5151515151514" y="562.6262626262626" type="line"/>
      <point x="774.1414141414141" y="987.8787878787879" type="line"/>
      <point x="624.2020202020202" y="987.8787878787879" type="line"/>
      <point x="433.5757575757575" y="562.6262626262626" type="line"/>
    </contour>
  </outline>
</glyph>
<glyph name="logicalnot" format="2">
  <advance width="1240.0"/>
  <unicode hex="00AC"/>
  <outline>
    <contour>
      <point x="989.6767676767677" y="191.4747474747475" type="line"/>
      <point x="1121.7575757575758" y="191.4747474747475" type="line"/>
      <point x="1121.7575757575758" y="822.989898989899" type="line"/>
      <point x="126.66666666666669" y="822.989898989899" type="line"/>
      <point x="126.66666666666669" y="697.010101010101" type="line"/>
      <point x="989.6767676767677" y="697.010101010101" type="line"/>
    </contour>
  </outline>
</glyph>
<glyph name="softhyphen" format="2">
  <advance width="698.5858585858585"/>
  <unicode hex="00AD"/>
  <outline>
    <contour>
      <point x="126.66666666666669" y="498.06060606060606" type="line"/>
      <point x="571.9191919191919" y="498.06060606060606" type="line"/>
      <point x="571.9191919191919" y="627.1919191919192" type="line"/>
      <point x="126.66666666666669" y="627.1919191919192" type="line"/>
    </contour>
  </outline>
</glyph>
<glyph name="registered" format="2">
  <advance width="1453.3333333333333"/>
  <unicode hex="00AE"/>
  <outline>
    <contour>
      <point x="726.6666666666666" y="268.0" type="curve" smooth="yes"/>
      <point x="1088.6666666666667" y="268.0"/>
      <point x="1336.6666666666667" y="518.0"/>
      <point x="1336.6666666666667" y="882.0" type="curve" smooth="yes"/>
      <point x="1336.6666666666667" y="1246.0"/>
      <point x="1088.6666666666667" y="1498.0"/>
      <point x="726.6666666666666" y="1498.0" type="curve" smooth="yes"/>
      <point x="364.6666666666667" y="1498.0"/>
      <point x="116.66666666666669" y="1246.0"/>
      <point x="116.66666666666669" y="882.0" type="curve" smooth="yes"/>
      <point x="116.66666666666669" y="518.0"/>
      <point x="364.6666666666667" y="268.0"/>
    </contour>
    <contour>
      <point x="885.7575757575758" y="600.0" type="line"/>
      <point x="989.5959595959596" y="600.0" type="line"/>
      <point x="819.89898989899" y="849.4949494949495" type="line"/>
      <point x="732.5858585858587" y="823.4949494949495" type="line"/>
    </contour>
    <contour>
      <point x="726.6666666666666" y="357.6363636363636" type="curve" smooth="yes"/>
      <point x="414.42424242424244" y="357.6363636363636"/>
      <point x="210.92929292929293" y="564.1818181818181"/>
      <point x="210.92929292929293" y="882.0" type="curve" smooth="yes"/>
      <point x="210.92929292929293" y="1200.3434343434344"/>
      <point x="414.42424242424244" y="1408.3636363636365"/>
      <point x="726.6666666666666" y="1408.3636363636365" type="curve" smooth="yes"/>
      <point x="1038.909090909091" y="1408.3636363636365"/>
      <point x="1242.4040404040404" y="1200.3434343434344"/>
      <point x="1242.4040404040404" y="882.0" type="curve" smooth="yes"/>
      <point x="1242.4040404040404" y="564.1818181818181"/>
      <point x="1038.909090909091" y="357.6363636363636"/>
    </contour>
    <contour>
      <point x="514.989898989899" y="600.0" type="line"/>
      <point x="607.2525252525253" y="600.0" type="line"/>
      <point x="608.8282828282828" y="815.4949494949495" type="line"/>
      <point x="714.2424242424242" y="815.4949494949495" type="line" smooth="yes"/>
      <point x="880.969696969697" y="815.4949494949495"/>
      <point x="963.4949494949495" y="880.969696969697"/>
      <point x="963.4949494949495" y="1002.7474747474747" type="curve" smooth="yes"/>
      <point x="963.4949494949495" y="1124.5252525252524"/>
      <point x="878.969696969697" y="1192.0"/>
      <point x="714.2424242424242" y="1192.0" type="curve" smooth="yes"/>
      <point x="514.989898989899" y="1192.0" type="line"/>
    </contour>
    <contour>
      <point x="608.8282828282828" y="895.8787878787879" type="line"/>
      <point x="608.8282828282828" y="1111.6161616161617" type="line"/>
      <point x="729.9191919191919" y="1111.6161616161617" type="line" smooth="yes"/>
      <point x="825.1111111111111" y="1111.6161616161617"/>
      <point x="872.2828282828283" y="1075.8181818181818"/>
      <point x="872.2828282828283" y="1002.7474747474747" type="curve" smooth="yes"/>
      <point x="872.2828282828283" y="929.6767676767677"/>
      <point x="827.1111111111111" y="895.8787878787879"/>
      <point x="729.9191919191919" y="895.8787878787879" type="curve" smooth="yes"/>
    </contour>
  </outline>
</glyph>
<glyph name="degree" format="2">
  <advance width="910.9494949494949"/>
  <unicode hex="00B0"/>
  <outline>
    <contour>
      <point x="455.47474747474746" y="823.1111111111111" type="curve" smooth="yes"/>
      <point x="652.4040404040404" y="823.1111111111111"/>
      <point x="794.2828282828283" y="965.4141414141415"/>
      <point x="794.2828282828283" y="1160.3434343434344" type="curve" smooth="yes"/>
      <point x="794.2828282828283" y="1355.2727272727273"/>
      <point x="652.4040404040404" y="1497.050505050505"/>
      <point x="455.47474747474746" y="1497.050505050505" type="curve" smooth="yes"/>
      <point x="258.54545454545456" y="1497.050505050505"/>
      <point x="116.66666666666669" y="1355.2727272727273"/>
      <point x="116.66666666666669" y="1160.3434343434344" type="curve" smooth="yes"/>
      <point x="116.66666666666669" y="965.4141414141415"/>
      <point x="258.54545454545456" y="823.1111111111111"/>
    </contour>
    <contour>
      <point x="455.47474747474746" y="929.6565656565656" type="curve" smooth="yes"/>
      <point x="324.8080808080808" y="929.6565656565656"/>
      <point x="230.36363636363635" y="1018.6262626262626"/>
      <point x="230.36363636363635" y="1160.3434343434344" type="curve" smooth="yes"/>
      <point x="230.36363636363635" y="1302.060606060606"/>
      <point x="325.3333333333333" y="1390.5050505050506"/>
      <point x="455.47474747474746" y="1390.5050505050506" type="curve" smooth="yes"/>
      <point x="585.6161616161617" y="1390.5050505050506"/>
      <point x="680.5858585858587" y="1302.060606060606"/>
      <point x="680.5858585858587" y="1160.3434343434344" type="curve" smooth="yes"/>
      <point x="680.5858585858587" y="1018.6262626262626"/>
      <point x="586.1414141414142" y="929.6565656565656"/>
    </contour>
  </outline>
</glyph>
<glyph name="plusminus" format="2">
  <advance width="1021.2525252525253"/>
  <unicode hex="00B1"/>
  <outline>
    <contour>
      <point x="444.5858585858586" y="334.3838383838384" type="line"/>
      <point x="576.6666666666666" y="334.3838383838384" type="line"/>
      <point x="576.6666666666666" y="669.1515151515151" type="line"/>
      <point x="894.5858585858585" y="669.1515151515151" type="line"/>
      <point x="894.5858585858585" y="795.131313131313" type="line"/>
      <point x="576.6666666666666" y="795.131313131313" type="line"/>
      <point x="576.6666666666666" y="1129.8989898989898" type="line"/>
      <point x="444.5858585858586" y="1129.8989898989898" type="line"/>
      <point x="444.5858585858586" y="795.131313131313" type="line"/>
      <point x="126.66666666666669" y="795.131313131313" type="line"/>
      <point x="126.66666666666669" y="669.1515151515151" type="line"/>
      <point x="444.5858585858586" y="669.1515151515151" type="line"/>
    </contour>
    <contour>
      <point x="126.66666666666669" y="0.5252525252525249" type="line"/>
      <point x="894.5858585858585" y="0.5252525252525249" type="line"/>
      <point x="894.5858585858585" y="126.50505050505046" type="line"/>
      <point x="126.66666666666669" y="126.50505050505046" type="line"/>
    </contour>
  </outline>
</glyph>
<glyph name="twosuperior" format="2">
  <advance width="716.7676767676768"/>
  <unicode hex="00B2"/>
  <outline>
    <contour>
      <point x="89.8989898989899" y="-136.0" type="line"/>
      <point x="615.2727272727273" y="-136.0" type="line"/>
      <point x="615.2727272727273" y="-23.050505050505087" type="line"/>
      <point x="220.90909090909085" y="-23.050505050505087" type="line"/>
      <point x="233.8585858585858" y="-56.18181818181821" type="line"/>
      <point x="452.2222222222222" y="274.1212121212121" type="line" smooth="yes"/>
      <point x="546.6464646464647" y="415.7171717171717"/>
      <point x="583.5959595959596" y="510.7676767676768"/>
      <point x="585.070707070707" y="609.7171717171717" type="curve" smooth="yes"/>
      <point x="586.5454545454545" y="800.3232323232323"/>
      <point x="468.4646464646464" y="876.5252525252525"/>
      <point x="281.45454545454544" y="876.5252525252525" type="curve" smooth="yes"/>
      <point x="207.35353535353534" y="876.5252525252525"/>
      <point x="130.0" y="864.0"/>
      <point x="77.37373737373737" y="841.0505050505051" type="curve"/>
      <point x="77.37373737373737" y="730.3030303030304" type="line"/>
      <point x="134.32323232323233" y="754.7272727272727"/>
      <point x="196.5252525252525" y="766.7272727272727"/>
      <point x="264.8484848484849" y="766.7272727272727" type="curve" smooth="yes"/>
      <point x="392.1212121212121" y="766.7272727272727"/>
      <point x="457.6161616161616" y="720.4040404040404"/>
      <point x="457.6161616161616" y="601.4141414141415" type="curve" smooth="yes"/>
      <point x="457.6161616161616" y="520.8686868686868"/>
      <point x="421.7171717171717" y="440.1212121212121"/>
      <point x="340.8686868686869" y="317.57575757575756" type="curve" smooth="yes"/>
      <point x="89.8989898989899" y="-63.43434343434346" type="line"/>
    </contour>
  </outline>
</glyph>
<glyph name="threesuperior" format="2">
  <advance width="716.7676767676768"/>
  <unicode hex="00B3"/>
  <outline>
    <contour>
      <point x="292.3030303030303" y="-148.5252525252525" type="curve" smooth="yes"/>
      <point x="503.83838383838383" y="-148.5252525252525"/>
      <point x="633.8181818181818" y="-49.8989898989899"/>
      <point x="633.8181818181818" y="129.77777777777777" type="curve" smooth="yes"/>
      <point x="633.8181818181818" y="272.52525252525254"/>
      <point x="552.1212121212121" y="365.8989898989899"/>
      <point x="393.99999999999994" y="389.37373737373736" type="curve"/>
      <point x="393.99999999999994" y="376.949494949495" type="line"/>
      <point x="527.070707070707" y="405.37373737373736"/>
      <point x="602.8686868686868" y="497.27272727272725"/>
      <point x="602.8686868686868" y="623.6969696969697" type="curve" smooth="yes"/>
      <point x="602.8686868686868" y="787.3737373737374"/>
      <point x="495.93939393939394" y="876.5252525252525"/>
      <point x="295.55555555555554" y="876.5252525252525" type="curve" smooth="yes"/>
      <point x="223.35353535353534" y="876.5252525252525"/>
      <point x="141.05050505050505" y="864.0"/>
      <point x="88.84848484848484" y="841.0505050505051" type="curve"/>
      <point x="88.84848484848484" y="733.979797979798" type="line"/>
      <point x="147.7979797979798" y="758.929292929293"/>
      <point x="213.05050505050505" y="770.929292929293"/>
      <point x="282.0" y="770.929292929293" type="curve" smooth="yes"/>
      <point x="414.969696969697" y="770.929292929293"/>
      <point x="480.04040404040404" y="719.8585858585859"/>
      <point x="480.04040404040404" y="612.7676767676768" type="curve" smooth="yes"/>
      <point x="480.04040404040404" y="502.3030303030303"/>
      <point x="399.37373737373736" y="431.010101010101"/>
      <point x="241.1111111111111" y="431.010101010101" type="curve" smooth="yes"/>
      <point x="175.5959595959596" y="431.010101010101" type="line"/>
      <point x="175.5959595959596" y="322.3636363636364" type="line"/>
      <point x="274.6060606060606" y="322.3636363636364" type="line" smooth="yes"/>
      <point x="438.54545454545456" y="322.3636363636364"/>
      <point x="510.989898989899" y="252.12121212121212"/>
      <point x="510.989898989899" y="137.03030303030303" type="curve" smooth="yes"/>
      <point x="510.989898989899" y="16.040404040404013"/>
      <point x="429.6969696969697" y="-42.92929292929296"/>
      <point x="287.67676767676767" y="-42.92929292929296" type="curve" smooth="yes"/>
      <point x="220.2020202020202" y="-42.92929292929296"/>
      <point x="142.0" y="-31.45454545454549"/>
      <point x="73.47474747474747" y="-7.555555555555586" type="curve"/>
      <point x="73.47474747474747" y="-114.62626262626263" type="line"/>
      <point x="140.62626262626262" y="-137.05050505050505"/>
      <point x="214.3030303030303" y="-148.5252525252525"/>
    </contour>
  </outline>
</glyph>
<glyph name="acute" format="2">
  <advance width="905.050505050505"/>
  <unicode hex="00B4"/>
  <anchor x="452.5252525252525" y="1200.0" name="_top"/>
  <anchor x="452.5252525252525" y="1582.2626262626263" name="top"/>
  <outline>
    <contour>
      <point x="387.75757575757575" y="1252.4444444444443" type="line"/>
      <point x="517.2929292929292" y="1252.4444444444443" type="line"/>
      <point x="706.5050505050505" y="1616.0" type="line"/>
      <point x="551.5151515151515" y="1616.0" type="line"/>
    </contour>
  </outline>
</glyph>
<glyph name="micro" format="2">
  <advance width="964.6464646464647"/>
  <unicode hex="00B5"/>
  <outline>
    <contour>
      <point x="434.4848484848485" y="-18.525252525252526" type="curve" smooth="yes"/>
      <point x="528.5050505050505" y="-18.525252525252526"/>
      <point x="619.2727272727273" y="25.474747474747474"/>
      <point x="687.8181818181819" y="117.8989898989899" type="curve"/>
      <point x="697.9191919191919" y="117.8989898989899" type="line"/>
      <point x="709.6969696969697" y="0.0" type="line"/>
      <point x="837.9797979797979" y="0.0" type="line"/>
      <point x="837.9797979797979" y="1085.2525252525252" type="line"/>
      <point x="686.4646464646465" y="1085.2525252525252" type="line"/>
      <point x="686.4646464646465" y="261.7171717171717" type="line"/>
      <point x="627.5959595959596" y="156.60606060606057"/>
      <point x="519.7575757575758" y="119.9595959595959"/>
      <point x="446.98989898989896" y="119.9595959595959" type="curve" smooth="yes"/>
      <point x="343.050505050505" y="119.9595959595959"/>
      <point x="269.7575757575757" y="171.97979797979792"/>
      <point x="269.7575757575757" y="334.98989898989896" type="curve" smooth="yes"/>
      <point x="269.7575757575757" y="523.030303030303" type="line"/>
      <point x="193.39393939393938" y="523.030303030303" type="line"/>
      <point x="193.39393939393938" y="328.4848484848485" type="line" smooth="yes"/>
      <point x="193.39393939393938" y="65.87878787878788"/>
      <point x="290.1414141414141" y="-18.525252525252526"/>
    </contour>
    <contour>
      <point x="118.24242424242425" y="-440.0" type="line"/>
      <point x="269.7575757575757" y="-440.0" type="line"/>
      <point x="269.7575757575757" y="1085.2525252525252" type="line"/>
      <point x="118.24242424242425" y="1085.2525252525252" type="line"/>
    </contour>
  </outline>
</glyph>
<glyph name="paragraph" format="2">
  <advance width="1097.070707070707"/>
  <unicode hex="00B6"/>
  <outline>
    <contour>
      <point x="587.2323232323232" y="0.0" type="line"/>
      <point x="707.7575757575758" y="0.0" type="line"/>
      <point x="707.7575757575758" y="1480.0" type="line"/>
      <point x="641.7575757575758" y="1489.050505050505"/>
      <point x="563.9797979797979" y="1495.5757575757575"/>
      <point x="484.4040404040404" y="1495.5757575757575" type="curve" smooth="yes"/>
      <point x="210.96969696969697" y="1495.5757575757575"/>
      <point x="79.91919191919193" y="1337.3737373737374"/>
      <point x="79.91919191919193" y="988.7676767676768" type="curve" smooth="yes"/>
      <point x="79.91919191919193" y="659.2121212121212"/>
      <point x="210.96969696969697" y="485.4343434343435"/>
      <point x="485.93939393939394" y="485.4343434343435" type="curve" smooth="yes"/>
      <point x="523.2121212121212" y="485.4343434343435"/>
      <point x="550.4848484848485" y="486.90909090909093"/>
      <point x="587.2323232323232" y="489.8585858585859" type="curve"/>
    </contour>
    <contour>
      <point x="832.5050505050505" y="0.0" type="line"/>
      <point x="953.030303030303" y="0.0" type="line"/>
      <point x="953.030303030303" y="1480.0" type="line"/>
      <point x="832.5050505050505" y="1480.0" type="line"/>
    </contour>
  </outline>
</glyph>
<glyph name="ordmasculine" format="2">
  <advance width="796.040404040404"/>
  <unicode hex="00BA"/>
  <outline>
    <contour>
      <point x="398.2828282828283" y="594.9494949494949" type="curve" smooth="yes"/>
      <point x="608.8686868686868" y="594.9494949494949"/>
      <point x="740.6464646464647" y="730.5050505050505"/>
      <point x="740.6464646464647" y="1045.4747474747476" type="curve" smooth="yes"/>
      <point x="740.6464646464647" y="1360.4444444444443"/>
      <point x="608.8686868686868" y="1494.6262626262626"/>
      <point x="398.2828282828283" y="1494.6262626262626" type="curve" smooth="yes"/>
      <point x="187.6969696969697" y="1494.6262626262626"/>
      <point x="55.393939393939405" y="1363.0707070707072"/>
      <point x="55.393939393939405" y="1045.4747474747476" type="curve" smooth="yes"/>
      <point x="55.393939393939405" y="727.8787878787879"/>
      <point x="187.6969696969697" y="594.9494949494949"/>
    </contour>
    <contour>
      <point x="398.2828282828283" y="707.3737373737373" type="curve" smooth="yes"/>
      <point x="278.2222222222222" y="707.3737373737373"/>
      <point x="199.55555555555551" y="777.5151515151515"/>
      <point x="199.55555555555551" y="1045.4747474747476" type="curve" smooth="yes"/>
      <point x="199.55555555555551" y="1313.959595959596"/>
      <point x="278.2222222222222" y="1382.2020202020203"/>
      <point x="398.2828282828283" y="1382.2020202020203" type="curve" smooth="yes"/>
      <point x="518.3434343434344" y="1382.2020202020203"/>
      <point x="596.4848484848485" y="1313.959595959596"/>
      <point x="596.4848484848485" y="1045.4747474747476" type="curve" smooth="yes"/>
      <point x="596.4848484848485" y="777.5151515151515"/>
      <point x="518.3434343434344" y="707.3737373737373"/>
    </contour>
  </outline>
</glyph>
<glyph name="guillemetright" format="2">
  <advance width="831.0101010101009"/>
  <unicode hex="00BB"/>
  <outline>
    <contour>
      <point x="56.86868686868688" y="137.37373737373738" type="line"/>
      <point x="206.80808080808077" y="137.37373737373738" type="line"/>
      <point x="397.43434343434336" y="562.6262626262626" type="line"/>
      <point x="206.80808080808077" y="987.8787878787879" type="line"/>
      <point x="56.86868686868688" y="987.8787878787879" type="line"/>
      <point x="247.4949494949495" y="562.6262626262626" type="line"/>
    </contour>
    <contour>
      <point x="393.5757575757575" y="137.37373737373738" type="line"/>
      <point x="543.5151515151514" y="137.37373737373738" type="line"/>
      <point x="734.1414141414141" y="562.6262626262626" type="line"/>
      <point x="543.5151515151514" y="987.8787878787879" type="line"/>
      <point x="393.5757575757575" y="987.8787878787879" type="line"/>
      <point x="584.2020202020202" y="562.6262626262626" type="line"/>
    </contour>
  </outline>
</glyph>
<glyph name="onequarter" format="2">
  <advance width="1660.080808080808"/>
  <unicode hex="00BC"/>
  <outline>
    <contour>
      <point x="332.7676767676768" y="636.0" type="line"/>
      <point x="459.27272727272725" y="636.0" type="line"/>
      <point x="459.27272727272725" y="1620.0" type="line"/>
      <point x="382.4040404040404" y="1620.0" type="line"/>
      <point x="133.57575757575756" y="1440.3030303030303" type="line"/>
      <point x="133.57575757575756" y="1317.7777777777778" type="line"/>
      <point x="382.4040404040404" y="1497.4747474747476" type="line"/>
      <point x="332.7676767676768" y="1527.5353535353536" type="line"/>
    </contour>
    <contour>
      <point x="137.27272727272728" y="616.0" type="line"/>
      <point x="645.2929292929292" y="616.0" type="line"/>
      <point x="645.2929292929292" y="728.9494949494949" type="line"/>
      <point x="137.27272727272728" y="728.9494949494949" type="line"/>
    </contour>
    <contour>
      <point x="403.6363636363636" y="-136.0" type="line"/>
      <point x="535.2929292929292" y="-136.0" type="line"/>
      <point x="1256.4444444444443" y="1616.0" type="line"/>
      <point x="1124.7878787878788" y="1616.0" type="line"/>
    </contour>
    <contour>
      <point x="974.6868686868686" y="98.14141414141416" type="line"/>
      <point x="1632.181818181818" y="98.14141414141416" type="line"/>
      <point x="1632.181818181818" y="201.2121212121212" type="line"/>
      <point x="1081.7373737373737" y="201.2121212121212" type="line"/>
      <point x="1100.9898989898988" y="171.2323232323232" type="line"/>
      <point x="1423.979797979798" y="864.0" type="line"/>
      <point x="1299.7777777777778" y="864.0" type="line"/>
      <point x="974.6868686868686" y="171.2323232323232" type="line"/>
    </contour>
    <contour>
      <point x="1394.060606060606" y="-136.0" type="line"/>
      <point x="1508.060606060606" y="-136.0" type="line"/>
      <point x="1508.060606060606" y="526.0" type="line"/>
      <point x="1420.7676767676767" y="526.0" type="line"/>
      <point x="1394.060606060606" y="201.2121212121212" type="line"/>
    </contour>
  </outline>
</glyph>
<glyph name="onehalf" format="2">
  <advance width="1660.080808080808"/>
  <unicode hex="00BD"/>
  <outline>
    <contour>
      <point x="332.7676767676768" y="636.0" type="line"/>
      <point x="459.27272727272725" y="636.0" type="line"/>
      <point x="459.27272727272725" y="1620.0" type="line"/>
      <point x="382.4040404040404" y="1620.0" type="line"/>
      <point x="133.57575757575756" y="1440.3030303030303" type="line"/>
      <point x="133.57575757575756" y="1317.7777777777778" type="line"/>
      <point x="382.4040404040404" y="1497.4747474747476" type="line"/>
      <point x="332.7676767676768" y="1527.5353535353536" type="line"/>
    </contour>
    <contour>
      <point x="137.27272727272728" y="616.0" type="line"/>
      <point x="645.2929292929292" y="616.0" type="line"/>
      <point x="645.2929292929292" y="728.9494949494949" type="line"/>
      <point x="137.27272727272728" y="728.9494949494949" type="line"/>
    </contour>
    <contour>
      <point x="403.6363636363636" y="-136.0" type="line"/>
      <point x="535.2929292929292" y="-136.0" type="line"/>
      <point x="1256.4444444444443" y="1616.0" type="line"/>
      <point x="1124.7878787878788" y="1616.0" type="line"/>
    </contour>
    <contour>
      <point x="1033.2121212121212" y="-136.0" type="line"/>
      <point x="1558.5858585858584" y="-136.0" type="line"/>
      <point x="1558.5858585858584" y="-23.050505050505087" type="line"/>
      <point x="1164.2222222222222" y="-23.050505050505087" type="line"/>
      <point x="1177.171717171717" y="-56.18181818181821" type="line"/>
      <point x="1395.5353535353534" y="274.1212121212121" type="line" smooth="yes"/>
      <point x="1489.9595959595958" y="415.7171717171717"/>
      <point x="1526.9090909090908" y="510.7676767676768"/>
      <point x="1528.3838383838383" y="609.7171717171717" type="curve" smooth="yes"/>
      <point x="1529.8585858585857" y="800.3232323232323"/>
      <point x="1411.7777777777776" y="876.5252525252525"/>
      <point x="1224.7676767676767" y="876.5252525252525" type="curve" smooth="yes"/>
      <point x="1150.6666666666665" y="876.5252525252525"/>
      <point x="1073.3131313131312" y="864.0"/>
      <point x="1020.6868686868686" y="841.0505050505051" type="curve"/>
      <point x="1020.6868686868686" y="730.3030303030304" type="line"/>
      <point x="1077.6363636363635" y="754.7272727272727"/>
      <point x="1139.8383838383838" y="766.7272727272727"/>
      <point x="1208.1616161616162" y="766.7272727272727" type="curve" smooth="yes"/>
      <point x="1335.4343434343434" y="766.7272727272727"/>
      <point x="1400.9292929292928" y="720.4040404040404"/>
      <point x="1400.9292929292928" y="601.4141414141415" type="curve" smooth="yes"/>
      <point x="1400.9292929292928" y="520.8686868686868"/>
      <point x="1365.030303030303" y="440.1212121212121"/>
      <point x="1284.181818181818" y="317.57575757575756" type="curve" smooth="yes"/>
      <point x="1033.2121212121212" y="-63.43434343434346" type="line"/>
    </contour>
  </outline>
</glyph>
<glyph name="threequarters" format="2">
  <advance width="1660.080808080808"/>
  <unicode hex="00BE"/>
  <outline>
    <contour>
      <point x="292.3030303030303" y="603.4747474747475" type="curve" smooth="yes"/>
      <point x="503.83838383838383" y="603.4747474747475"/>
      <point x="633.8181818181818" y="702.10101010101"/>
      <point x="633.8181818181818" y="881.7777777777778" type="curve" smooth="yes"/>
      <point x="633.8181818181818" y="1024.5252525252524"/>
      <point x="552.1212121212121" y="1117.8989898989898"/>
      <point x="393.99999999999994" y="1141.3737373737374" type="curve"/>
      <point x="393.99999999999994" y="1128.949494949495" type="line"/>
      <point x="527.070707070707" y="1157.3737373737374"/>
      <point x="602.8686868686868" y="1249.2727272727273"/>
      <point x="602.8686868686868" y="1375.6969696969697" type="curve" smooth="yes"/>
      <point x="602.8686868686868" y="1539.3737373737374"/>
      <point x="495.93939393939394" y="1628.5252525252524"/>
      <point x="295.55555555555554" y="1628.5252525252524" type="curve" smooth="yes"/>
      <point x="223.35353535353534" y="1628.5252525252524"/>
      <point x="141.05050505050505" y="1616.0"/>
      <point x="88.84848484848484" y="1593.050505050505" type="curve"/>
      <point x="88.84848484848484" y="1485.979797979798" type="line"/>
      <point x="147.7979797979798" y="1510.929292929293"/>
      <point x="213.05050505050505" y="1522.929292929293"/>
      <point x="282.0" y="1522.929292929293" type="curve" smooth="yes"/>
      <point x="414.969696969697" y="1522.929292929293"/>
      <point x="480.04040404040404" y="1471.858585858586"/>
      <point x="480.04040404040404" y="1364.7676767676767" type="curve" smooth="yes"/>
      <point x="480.04040404040404" y="1254.3030303030303"/>
      <point x="399.37373737373736" y="1183.010101010101"/>
      <point x="241.1111111111111" y="1183.010101010101" type="curve" smooth="yes"/>
      <point x="175.5959595959596" y="1183.010101010101" type="line"/>
      <point x="175.5959595959596" y="1074.3636363636365" type="line"/>
      <point x="274.6060606060606" y="1074.3636363636365" type="line" smooth="yes"/>
      <point x="438.54545454545456" y="1074.3636363636365"/>
      <point x="510.989898989899" y="1004.1212121212121"/>
      <point x="510.989898989899" y="889.030303030303" type="curve" smooth="yes"/>
      <point x="510.989898989899" y="768.040404040404"/>
      <point x="429.6969696969697" y="709.070707070707"/>
      <point x="287.67676767676767" y="709.070707070707" type="curve" smooth="yes"/>
      <point x="220.2020202020202" y="709.070707070707"/>
      <point x="142.0" y="720.5454545454545"/>
      <point x="73.47474747474747" y="744.4444444444445" type="curve"/>
      <point x="73.47474747474747" y="637.3737373737374" type="line"/>
      <point x="140.62626262626262" y="614.9494949494949"/>
      <point x="214.3030303030303" y="603.4747474747475"/>
    </contour>
    <contour>
      <point x="403.6363636363636" y="-136.0" type="line"/>
      <point x="535.2929292929292" y="-136.0" type="line"/>
      <point x="1256.4444444444443" y="1616.0" type="line"/>
      <point x="1124.7878787878788" y="1616.0" type="line"/>
    </contour>
    <contour>
      <point x="974.6868686868686" y="98.14141414141416" type="line"/>
      <point x="1632.181818181818" y="98.14141414141416" type="line"/>
      <point x="1632.181818181818" y="201.2121212121212" type="line"/>
      <point x="1081.7373737373737" y="201.2121212121212" type="line"/>
      <point x="1100.9898989898988" y="171.2323232323232" type="line"/>
      <point x="1423.979797979798" y="864.0" type="line"/>
      <point x="1299.7777777777778" y="864.0" type="line"/>
      <point x="974.6868686868686" y="171.2323232323232" type="line"/>
    </contour>
    <contour>
      <point x="1394.060606060606" y="-136.0" type="line"/>
      <point x="1508.060606060606" y="-136.0" type="line"/>
      <point x="1508.060606060606" y="526.0" type="line"/>
      <point x="1420.7676767676767" y="526.0" type="line"/>
      <point x="1394.060606060606" y="201.2121212121212" type="line"/>
    </contour>
  </outline>
</glyph>
<glyph name="questiondown" format="2">
  <advance width="799.9191919191919"/>
  <unicode hex="00BF"/>
  <outline>
    <contour>
      <point x="502.3232323232323" y="724.3232323232323" type="line"/>
      <point x="404.949494949495" y="724.3232323232323" type="line"/>
      <point x="389.6969696969697" y="391.77777777777777" type="line"/>
      <point x="147.77777777777777" y="287.5353535353535"/>
      <point x="52.121212121212125" y="159.33333333333331"/>
      <point x="52.121212121212125" y="-37.393939393939405" type="curve" smooth="yes"/>
      <point x="52.121212121212125" y="-268.32323232323233"/>
      <point x="199.67676767676767" y="-400.0"/>
      <point x="478.3636363636363" y="-400.0" type="curve" smooth="yes"/>
      <point x="579.6161616161615" y="-400.0"/>
      <point x="694.5454545454545" y="-380.0"/>
      <point x="767.7979797979798" y="-347.050505050505" type="curve"/>
      <point x="767.7979797979798" y="-217.0707070707071" type="line"/>
      <point x="682.8484848484848" y="-252.96969696969703"/>
      <point x="592.020202020202" y="-270.969696969697"/>
      <point x="493.07070707070704" y="-270.969696969697" type="curve" smooth="yes"/>
      <point x="297.35353535353534" y="-270.969696969697"/>
      <point x="201.9595959595959" y="-188.62626262626267"/>
      <point x="201.9595959595959" y="-26.787878787878807" type="curve" smooth="yes"/>
      <point x="201.9595959595959" y="126.62626262626263"/>
      <point x="281.13131313131305" y="227.81818181818184"/>
      <point x="528.5050505050505" y="314.5858585858586" type="curve"/>
    </contour>
    <contour>
      <point x="453.6363636363636" y="1097.8787878787878" type="curve" smooth="yes"/>
      <point x="387.7979797979798" y="1097.8787878787878"/>
      <point x="343.31313131313135" y="1053.4949494949494"/>
      <point x="343.31313131313135" y="990.1818181818182" type="curve" smooth="yes"/>
      <point x="343.31313131313135" y="925.3939393939395"/>
      <point x="388.22222222222223" y="881.010101010101"/>
      <point x="453.6363636363636" y="881.010101010101" type="curve" smooth="yes"/>
      <point x="519.050505050505" y="881.010101010101"/>
      <point x="563.9595959595958" y="924.3434343434344"/>
      <point x="563.9595959595958" y="990.1818181818182" type="curve" smooth="yes"/>
      <point x="563.9595959595958" y="1054.5454545454545"/>
      <point x="518.0" y="1097.8787878787878"/>
    </contour>
  </outline>
</glyph>
<glyph name="Atilde" format="2">
  <advance width="1174.6464646464647"/>
  <unicode hex="00C3"/>
  <anchor x="588.060606060606" y="1520.0" name="_top"/>
  <anchor x="588.060606060606" y="0.0" name="bottom"/>
  <anchor x="1157.5757575757575" y="0.0" name="ogonek"/>
  <anchor x="588.060606060606" y="1520.0" name="top"/>
  <outline>
    <contour>
      <point x="17.07070707070708" y="0.0" type="line"/>
      <point x="169.9595959595959" y="0.0" type="line"/>
      <point x="599.1111111111111" y="1404.8080808080808" type="line"/>
      <point x="571.959595959596" y="1404.8080808080808" type="line"/>
      <point x="1002.1616161616162" y="0.0" type="line"/>
      <point x="1157.5757575757575" y="0.0" type="line"/>
      <point x="696.2424242424241" y="1480.0" type="line"/>
      <point x="478.4040404040404" y="1480.0" type="line"/>
    </contour>
    <contour>
      <point x="246.0" y="479.6767676767677" type="line"/>
      <point x="928.1212121212121" y="479.6767676767677" type="line"/>
      <point x="894.4646464646464" y="615.010101010101" type="line"/>
      <point x="279.65656565656565" y="615.010101010101" type="line"/>
    </contour>
    <contour>
      <point x="727.090909090909" y="1667.111111111111" type="curve" smooth="yes"/>
      <point x="794.020202020202" y="1667.111111111111"/>
      <point x="843.6969696969696" y="1690.5858585858587"/>
      <point x="880.0" y="1732.7878787878788" type="curve"/>
      <point x="880.0" y="1842.909090909091" type="line"/>
      <point x="835.6969696969696" y="1794.3838383838383"/>
      <point x="791.4949494949494" y="1769.858585858586"/>
      <point x="728.1414141414141" y="1769.858585858586" type="curve" smooth="yes"/>
      <point x="637.7373737373737" y="1769.858585858586"/>
      <point x="559.010101010101" y="1848.909090909091"/>
      <point x="449.030303030303" y="1848.909090909091" type="curve" smooth="yes"/>
      <point x="382.1010101010101" y="1848.909090909091"/>
      <point x="332.42424242424244" y="1824.909090909091"/>
      <point x="296.1212121212121" y="1782.7070707070707" type="curve"/>
      <point x="296.1212121212121" y="1672.5858585858587" type="line"/>
      <point x="340.42424242424244" y="1721.111111111111"/>
      <point x="384.62626262626264" y="1745.6363636363637"/>
      <point x="447.979797979798" y="1745.6363636363637" type="curve" smooth="yes"/>
      <point x="538.3838383838383" y="1745.6363636363637"/>
      <point x="617.1111111111111" y="1667.111111111111"/>
    </contour>
  </outline>
</glyph>
<glyph name="Aring" format="2">
  <advance width="1174.6464646464647"/>
  <unicode hex="00C5"/>
  <anchor x="591.010101010101" y="1387.2727272727273" name="_top"/>
  <anchor x="588.060606060606" y="0.0" name="bottom"/>
  <anchor x="1157.5757575757575" y="0.0" name="ogonek"/>
  <anchor x="588.060606060606" y="1520.0" name="top"/>
  <outline>
    <contour>
      <point x="17.07070707070708" y="0.0" type="line"/>
      <point x="169.9595959595959" y="0.0" type="line"/>
      <point x="599.1111111111111" y="1404.8080808080808" type="line"/>
      <point x="571.959595959596" y="1404.8080808080808" type="line"/>
      <point x="1002.1616161616162" y="0.0" type="line"/>
      <point x="1157.5757575757575" y="0.0" type="line"/>
      <point x="696.2424242424241" y="1480.0" type="line"/>
      <point x="478.4040404040404" y="1480.0" type="line"/>
    </contour>
    <contour>
      <point x="246.0" y="479.6767676767677" type="line"/>
      <point x="928.1212121212121" y="479.6767676767677" type="line"/>
      <point x="894.4646464646464" y="615.010101010101" type="line"/>
      <point x="279.65656565656565" y="615.010101010101" type="line"/>
    </contour>
    <contour>
      <point x="591.010101010101" y="1466.7676767676767" type="curve" smooth="yes"/>
      <point x="703.8383838383838" y="1466.7676767676767"/>
      <point x="786.5656565656566" y="1548.4444444444443"/>
      <point x="786.5656565656566" y="1660.2222222222222" type="curve" smooth="yes"/>
      <point x="786.5656565656566" y="1772.0"/>
      <point x="703.8383838383838" y="1853.6767676767677"/>
      <point x="591.010101010101" y="1853.6767676767677" type="curve" smooth="yes"/>
      <point x="478.1818181818182" y="1853.6767676767677"/>
      <point x="395.45454545454544" y="1772.0"/>
      <point x="395.45454545454544" y="1660.2222222222222" type="curve" smooth="yes"/>
      <point x="395.45454545454544" y="1548.4444444444443"/>
      <point x="478.1818181818182" y="1466.7676767676767"/>
    </contour>
    <contour>
      <point x="591.010101010101" y="1541.3535353535353" type="curve" smooth="yes"/>
      <point x="522.8888888888889" y="1541.3535353535353"/>
      <point x="474.66666666666663" y="1586.6262626262626"/>
      <point x="474.66666666666663" y="1660.2222222222222" type="curve" smooth="yes"/>
      <point x="474.66666666666663" y="1733.8181818181818"/>
      <point x="522.8888888888889" y="1779.090909090909"/>
      <point x="591.010101010101" y="1779.090909090909" type="curve" smooth="yes"/>
      <point x="659.1313131313132" y="1779.090909090909"/>
      <point x="707.3535353535353" y="1733.8181818181818"/>
      <point x="707.3535353535353" y="1660.2222222222222" type="curve" smooth="yes"/>
      <point x="707.3535353535353" y="1586.6262626262626"/>
      <point x="659.1313131313132" y="1541.3535353535353"/>
    </contour>
  </outline>
</glyph>
<glyph name="AE" format="2">
  <advance width="1623.7373737373737"/>
  <unicode hex="00C6"/>
  <anchor x="878.7878787878788" y="0.0" name="bottom"/>
  <anchor x="833.070707070707" y="1520.0" name="top"/>
  <outline>
    <contour>
      <point x="17.07070707070708" y="0.0" type="line"/>
      <point x="171.53535353535347" y="0.0" type="line"/>
      <point x="595.2323232323232" y="1343.6161616161617" type="line"/>
      <point x="842.6464646464647" y="1343.6161616161617" type="line"/>
      <point x="842.6464646464647" y="1480.0" type="line"/>
      <point x="487.2525252525253" y="1480.0" type="line"/>
    </contour>
    <contour>
      <point x="247.4747474747475" y="479.1515151515152" type="line"/>
      <point x="859.1919191919192" y="479.1515151515152" type="line"/>
      <point x="859.1919191919192" y="615.5353535353535" type="line"/>
      <point x="281.1313131313131" y="615.5353535353535" type="line"/>
    </contour>
    <contour>
      <point x="836.9090909090909" y="0.0" type="line"/>
      <point x="1583.4343434343434" y="0.0" type="line"/>
      <point x="1583.4343434343434" y="136.38383838383834" type="line"/>
      <point x="978.5454545454545" y="136.38383838383834" type="line"/>
      <point x="915.9191919191918" y="1343.6161616161617" type="line"/>
      <point x="1573.4343434343434" y="1343.6161616161617" type="line"/>
      <point x="1573.4343434343434" y="1480.0" type="line"/>
      <point x="761.3535353535353" y="1480.0" type="line"/>
    </contour>
    <contour>
      <point x="899.5555555555555" y="691.2323232323232" type="line"/>
      <point x="1479.7575757575758" y="691.2323232323232" type="line"/>
      <point x="1479.7575757575758" y="827.6161616161615" type="line"/>
      <point x="899.5555555555555" y="827.6161616161615" type="line"/>
    </contour>
  </outline>
</glyph>
<glyph name="Ccedilla" format="2">
  <advance width="975.1717171717171"/>
  <unicode hex="00C7"/>
  <anchor x="621.6363636363636" y="0.0" name="_bottom"/>
  <anchor x="621.6363636363636" y="0.0" name="bottom"/>
  <anchor x="614.2626262626262" y="1520.0" name="top"/>
  <outline>
    <contour>
      <point x="669.7171717171717" y="-18.525252525252526" type="curve" smooth="yes"/>
      <point x="775.1919191919192" y="-18.525252525252526"/>
      <point x="875.4949494949494" y="2.4242424242424256"/>
      <point x="952.969696969697" y="30.94949494949495" type="curve"/>
      <point x="952.969696969697" y="167.23232323232318" type="line"/>
      <point x="854.1212121212121" y="133.3333333333333"/>
      <point x="771.5959595959596" y="116.80808080808076"/>
      <point x="683.4747474747475" y="116.80808080808076" type="curve" smooth="yes"/>
      <point x="406.9292929292929" y="116.80808080808076"/>
      <point x="247.21212121212116" y="255.15151515151513"/>
      <point x="247.21212121212116" y="741.4747474747475" type="curve" smooth="yes"/>
      <point x="247.21212121212116" y="1214.848484848485"/>
      <point x="403.13131313131305" y="1363.1919191919192"/>
      <point x="689.3737373737373" y="1363.1919191919192" type="curve" smooth="yes"/>
      <point x="777.7979797979798" y="1363.1919191919192"/>
      <point x="859.2727272727273" y="1354.141414141414"/>
      <point x="952.969696969697" y="1324.8686868686868" type="curve"/>
      <point x="952.969696969697" y="1461.1515151515152" type="line"/>
      <point x="867.4949494949494" y="1485.5757575757575"/>
      <point x="774.4444444444445" y="1498.5252525252524"/>
      <point x="685.8181818181818" y="1498.5252525252524" type="curve" smooth="yes"/>
      <point x="307.8787878787879" y="1498.5252525252524"/>
      <point x="86.44444444444446" y="1290.8686868686868"/>
      <point x="86.44444444444446" y="737.4747474747475" type="curve" smooth="yes"/>
      <point x="86.44444444444446" y="172.92929292929293"/>
      <point x="309.1515151515151" y="-18.525252525252526"/>
    </contour>
    <contour>
      <point x="616.8282828282828" y="-415.75757575757575" type="curve" smooth="yes"/>
      <point x="748.7676767676768" y="-415.75757575757575"/>
      <point x="824.3434343434343" y="-358.4040404040404"/>
      <point x="824.3434343434343" y="-257.57575757575756" type="curve" smooth="yes"/>
      <point x="824.3434343434343" y="-155.6969696969697"/>
      <point x="744.5656565656566" y="-101.49494949494951"/>
      <point x="624.7070707070707" y="-101.49494949494951" type="curve"/>
      <point x="659.6161616161615" y="-136.74747474747474" type="line"/>
      <point x="659.6161616161615" y="20.0" type="line"/>
      <point x="569.4747474747475" y="20.0" type="line"/>
      <point x="569.4747474747475" y="-167.67676767676767" type="line"/>
      <point x="608.5252525252525" y="-167.67676767676767" type="line" smooth="yes"/>
      <point x="683.0505050505051" y="-167.67676767676767"/>
      <point x="728.9494949494949" y="-194.1010101010101"/>
      <point x="728.9494949494949" y="-253.37373737373738" type="curve" smooth="yes"/>
      <point x="728.9494949494949" y="-313.1717171717172"/>
      <point x="684.10101010101" y="-338.020202020202"/>
      <point x="611.0505050505051" y="-338.020202020202" type="curve" smooth="yes"/>
      <point x="560.6262626262626" y="-338.020202020202"/>
      <point x="505.37373737373736" y="-328.54545454545456"/>
      <point x="440.1010101010101" y="-300.22222222222223" type="curve"/>
      <point x="440.1010101010101" y="-380.9090909090909" type="line"/>
      <point x="493.57575757575756" y="-404.2828282828283"/>
      <point x="556.10101010101" y="-415.75757575757575"/>
    </contour>
  </outline>
</glyph>
<glyph name="Eacute" format="2">
  <advance width="993.7979797979798"/>
  <unicode hex="00C9"/>
  <anchor x="566.5050505050505" y="1520.0" name="_top"/>
  <anchor x="566.5050505050505" y="0.0" name="bottom"/>
  <anchor x="873.4949494949494" y="0.0" name="ogonek"/>
  <anchor x="566.5050505050505" y="1520.0" name="top"/>
  <anchor x="36.0" y="1480.0" name="topleft"/>
  <outline>
    <contour>
      <point x="144.04040404040404" y="0.0" type="line"/>
      <point x="953.4949494949494" y="0.0" type="line"/>
      <point x="953.4949494949494" y="136.38383838383834" type="line"/>
      <point x="295.5555555555555" y="136.38383838383834" type="line"/>
      <point x="295.5555555555555" y="1343.6161616161617" type="line"/>
      <point x="943.4949494949494" y="1343.6161616161617" type="line"/>
      <point x="943.4949494949494" y="1480.0" type="line"/>
      <point x="144.04040404040404" y="1480.0" type="line"/>
    </contour>
    <contour>
      <point x="261.2929292929293" y="691.2323232323232" type="line"/>
      <point x="849.8181818181818" y="691.2323232323232" type="line"/>
      <point x="849.8181818181818" y="827.6161616161615" type="line"/>
      <point x="261.2929292929293" y="827.6161616161615" type="line"/>
    </contour>
    <contour>
      <point x="500.6868686868687" y="1608.1212121212122" type="line"/>
      <point x="632.3232323232323" y="1608.1212121212122" type="line"/>
      <point x="795.7575757575758" y="1891.6767676767677" type="line"/>
      <point x="637.6161616161617" y="1891.6767676767677" type="line"/>
    </contour>
  </outline>
</glyph>
<glyph name="Edieresis" format="2">
  <advance width="993.7979797979798"/>
  <unicode hex="00CB"/>
  <anchor x="566.5050505050505" y="1520.0" name="_top"/>
  <anchor x="566.5050505050505" y="0.0" name="bottom"/>
  <anchor x="873.4949494949494" y="0.0" name="ogonek"/>
  <anchor x="566.5050505050505" y="1520.0" name="top"/>
  <anchor x="36.0" y="1480.0" name="topleft"/>
  <outline>
    <contour>
      <point x="144.04040404040404" y="0.0" type="line"/>
      <point x="953.4949494949494" y="0.0" type="line"/>
      <point x="953.4949494949494" y="136.38383838383834" type="line"/>
      <point x="295.5555555555555" y="136.38383838383834" type="line"/>
      <point x="295.5555555555555" y="1343.6161616161617" type="line"/>
      <point x="943.4949494949494" y="1343.6161616161617" type="line"/>
      <point x="943.4949494949494" y="1480.0" type="line"/>
      <point x="144.04040404040404" y="1480.0" type="line"/>
    </contour>
    <contour>
      <point x="261.2929292929293" y="691.2323232323232" type="line"/>
      <point x="849.8181818181818" y="691.2323232323232" type="line"/>
      <point x="849.8181818181818" y="827.6161616161615" type="line"/>
      <point x="261.2929292929293" y="827.6161616161615" type="line"/>
    </contour>
    <contour>
      <point x="764.8888888888889" y="1658.4848484848485" type="curve" smooth="yes"/>
      <point x="826.10101010101" y="1658.4848484848485"/>
      <point x="865.2323232323232" y="1692.989898989899"/>
      <point x="865.2323232323232" y="1751.4747474747476" type="curve" smooth="yes"/>
      <point x="865.2323232323232" y="1809.9595959595958"/>
      <point x="826.10101010101" y="1845.939393939394"/>
      <point x="764.8888888888889" y="1845.939393939394" type="curve" smooth="yes"/>
      <point x="703.6767676767677" y="1845.939393939394"/>
      <point x="664.5454545454545" y="1809.9595959595958"/>
      <point x="664.5454545454545" y="1751.4747474747476" type="curve" smooth="yes"/>
      <point x="664.5454545454545" y="1692.989898989899"/>
      <point x="703.6767676767677" y="1658.4848484848485"/>
    </contour>
    <contour>
      <point x="368.1212121212121" y="1658.4848484848485" type="curve" smooth="yes"/>
      <point x="429.3333333333333" y="1658.4848484848485"/>
      <point x="468.4646464646464" y="1692.989898989899"/>
      <point x="468.4646464646464" y="1751.4747474747476" type="curve" smooth="yes"/>
      <point x="468.4646464646464" y="1809.9595959595958"/>
      <point x="429.3333333333333" y="1845.939393939394"/>
      <point x="368.1212121212121" y="1845.939393939394" type="curve" smooth="yes"/>
      <point x="306.90909090909093" y="1845.939393939394"/>
      <point x="267.7777777777778" y="1809.9595959595958"/>
      <point x="267.7777777777778" y="1751.4747474747476" type="curve" smooth="yes"/>
      <point x="267.7777777777778" y="1692.989898989899"/>
      <point x="306.90909090909093" y="1658.4848484848485"/>
    </contour>
  </outline>
</glyph>
<glyph name="Igrave" format="2">
  <advance width="441.17171717171715"/>
  <unicode hex="00CC"/>
  <anchor x="220.58585858585857" y="1520.0" name="_top"/>
  <anchor x="220.58585858585857" y="0.0" name="bottom"/>
  <anchor x="297.13131313131305" y="0.0" name="ogonek"/>
  <anchor x="220.58585858585857" y="1520.0" name="top"/>
  <outline>
    <contour>
      <point x="144.04040404040404" y="0.0" type="line"/>
      <point x="297.13131313131305" y="0.0" type="line"/>
      <point x="297.13131313131305" y="1480.0" type="line"/>
      <point x="144.04040404040404" y="1480.0" type="line"/>
    </contour>
    <contour>
      <point x="154.7676767676768" y="1608.1212121212122" type="line"/>
      <point x="286.40404040404036" y="1608.1212121212122" type="line"/>
      <point x="149.47474747474743" y="1891.6767676767677" type="line"/>
      <point x="-8.666666666666643" y="1891.6767676767677" type="line"/>
    </contour>
  </outline>
</glyph>
<glyph name="Iacute" format="2">
  <advance width="441.17171717171715"/>
  <unicode hex="00CD"/>
  <anchor x="220.58585858585857" y="1520.0" name="_top"/>
  <anchor x="220.58585858585857" y="0.0" name="bottom"/>
  <anchor x="297.13131313131305" y="0.0" name="ogonek"/>
  <anchor x="220.58585858585857" y="1520.0" name="top"/>
  <outline>
    <contour>
      <point x="144.04040404040404" y="0.0" type="line"/>
      <point x="297.13131313131305" y="0.0" type="line"/>
      <point x="297.13131313131305" y="1480.0" type="line"/>
      <point x="144.04040404040404" y="1480.0" type="line"/>
    </contour>
    <contour>
      <point x="154.7676767676768" y="1608.1212121212122" type="line"/>
      <point x="286.40404040404036" y="1608.1212121212122" type="line"/>
      <point x="449.8383838383838" y="1891.6767676767677" type="line"/>
      <point x="291.6969696969697" y="1891.6767676767677" type="line"/>
    </contour>
  </outline>
</glyph>
<glyph name="Icircumflex" format="2">
  <advance width="441.17171717171715"/>
  <unicode hex="00CE"/>
  <anchor x="220.58585858585857" y="1520.0" name="_top"/>
  <anchor x="220.58585858585857" y="0.0" name="bottom"/>
  <anchor x="297.13131313131305" y="0.0" name="ogonek"/>
  <anchor x="220.58585858585857" y="1520.0" name="top"/>
  <outline>
    <contour>
      <point x="144.04040404040404" y="0.0" type="line"/>
      <point x="297.13131313131305" y="0.0" type="line"/>
      <point x="297.13131313131305" y="1480.0" type="line"/>
      <point x="144.04040404040404" y="1480.0" type="line"/>
    </contour>
    <contour>
      <point x="-44.92929292929292" y="1608.1212121212122" type="line"/>
      <point x="73.91919191919189" y="1608.1212121212122" type="line"/>
      <point x="232.26262626262624" y="1843.8181818181818" type="line"/>
      <point x="208.9090909090909" y="1843.8181818181818" type="line"/>
      <point x="367.25252525252523" y="1608.1212121212122" type="line"/>
      <point x="486.10101010101005" y="1608.1212121212122" type="line"/>
      <point x="291.1515151515151" y="1891.6767676767677" type="line"/>
      <point x="150.02020202020202" y="1891.6767676767677" type="line"/>
    </contour>
  </outline>
</glyph>
<glyph name="Idieresis" format="2">
  <advance width="441.17171717171715"/>
  <unicode hex="00CF"/>
  <anchor x="220.58585858585857" y="1520.0" name="_top"/>
  <anchor x="220.58585858585857" y="0.0" name="bottom"/>
  <anchor x="297.13131313131305" y="0.0" name="ogonek"/>
  <anchor x="220.58585858585857" y="1520.0" name="top"/>
  <outline>
    <contour>
      <point x="144.04040404040404" y="0.0" type="line"/>
      <point x="297.13131313131305" y="0.0" type="line"/>
      <point x="297.13131313131305" y="1480.0" type="line"/>
      <point x="144.04040404040404" y="1480.0" type="line"/>
    </contour>
    <contour>
      <point x="418.96969696969694" y="1658.4848484848485" type="curve" smooth="yes"/>
      <point x="480.18181818181813" y="1658.4848484848485"/>
      <point x="519.3131313131313" y="1692.989898989899"/>
      <point x="519.3131313131313" y="1751.4747474747476" type="curve" smooth="yes"/>
      <point x="519.3131313131313" y="1809.9595959595958"/>
      <point x="480.18181818181813" y="1845.939393939394"/>
      <point x="418.96969696969694" y="1845.939393939394" type="curve" smooth="yes"/>
      <point x="357.75757575757575" y="1845.939393939394"/>
      <point x="318.62626262626264" y="1809.9595959595958"/>
      <point x="318.62626262626264" y="1751.4747474747476" type="curve" smooth="yes"/>
      <point x="318.62626262626264" y="1692.989898989899"/>
      <point x="357.75757575757575" y="1658.4848484848485"/>
    </contour>
    <contour>
      <point x="22.2020202020202" y="1658.4848484848485" type="curve" smooth="yes"/>
      <point x="83.4141414141414" y="1658.4848484848485"/>
      <point x="122.5454545454545" y="1692.989898989899"/>
      <point x="122.5454545454545" y="1751.4747474747476" type="curve" smooth="yes"/>
      <point x="122.5454545454545" y="1809.9595959595958"/>
      <point x="83.4141414141414" y="1845.939393939394"/>
      <point x="22.2020202020202" y="1845.939393939394" type="curve" smooth="yes"/>
      <point x="-39.010101010100996" y="1845.939393939394"/>
      <point x="-78.14141414141412" y="1809.9595959595958"/>
      <point x="-78.14141414141412" y="1751.4747474747476" type="curve" smooth="yes"/>
      <point x="-78.14141414141412" y="1692.989898989899"/>
      <point x="-39.010101010100996" y="1658.4848484848485"/>
    </contour>
  </outline>
</glyph>
<glyph name="Ntilde" format="2">
  <advance width="1282.6666666666667"/>
  <unicode hex="00D1"/>
  <anchor x="641.3333333333334" y="1520.0" name="_top"/>
  <anchor x="641.3333333333334" y="0.0" name="bottom"/>
  <anchor x="641.3333333333334" y="1520.0" name="top"/>
  <outline>
    <contour>
      <point x="144.04040404040404" y="0.0" type="line"/>
      <point x="288.8282828282828" y="0.0" type="line"/>
      <point x="288.8282828282828" y="1291.3131313131314" type="line"/>
      <point x="249.99999999999997" y="1291.3131313131314" type="line"/>
      <point x="980.1616161616162" y="0.0" type="line"/>
      <point x="1138.6262626262626" y="0.0" type="line"/>
      <point x="1138.6262626262626" y="1480.0" type="line"/>
      <point x="993.8383838383838" y="1480.0" type="line"/>
      <point x="993.8383838383838" y="188.6868686868686" type="line"/>
      <point x="1032.6666666666667" y="188.6868686868686" type="line"/>
      <point x="302.50505050505046" y="1480.0" type="line"/>
      <point x="144.04040404040404" y="1480.0" type="line"/>
    </contour>
    <contour>
      <point x="780.3636363636364" y="1667.111111111111" type="curve" smooth="yes"/>
      <point x="847.2929292929292" y="1667.111111111111"/>
      <point x="896.969696969697" y="1690.5858585858587"/>
      <point x="933.2727272727273" y="1732.7878787878788" type="curve"/>
      <point x="933.2727272727273" y="1842.909090909091" type="line"/>
      <point x="888.969696969697" y="1794.3838383838383"/>
      <point x="844.7676767676768" y="1769.858585858586"/>
      <point x="781.4141414141413" y="1769.858585858586" type="curve" smooth="yes"/>
      <point x="691.010101010101" y="1769.858585858586"/>
      <point x="612.2828282828283" y="1848.909090909091"/>
      <point x="502.3030303030303" y="1848.909090909091" type="curve" smooth="yes"/>
      <point x="435.37373737373736" y="1848.909090909091"/>
      <point x="385.6969696969697" y="1824.909090909091"/>
      <point x="349.3939393939394" y="1782.7070707070707" type="curve"/>
      <point x="349.3939393939394" y="1672.5858585858587" type="line"/>
      <point x="393.6969696969697" y="1721.111111111111"/>
      <point x="437.8989898989899" y="1745.6363636363637"/>
      <point x="501.25252525252523" y="1745.6363636363637" type="curve" smooth="yes"/>
      <point x="591.6565656565656" y="1745.6363636363637"/>
      <point x="670.3838383838383" y="1667.111111111111"/>
    </contour>
  </outline>
</glyph>
<glyph name="Oacute" format="2">
  <advance width="1224.9292929292928"/>
  <unicode hex="00D3"/>
  <anchor x="612.4646464646464" y="1520.0" name="_top"/>
  <anchor x="612.4646464646464" y="0.0" name="bottom"/>
  <anchor x="612.4646464646464" y="740.0" name="center"/>
  <anchor x="766.1212121212121" y="0.0" name="ogonek"/>
  <anchor x="612.4646464646464" y="1520.0" name="top"/>
  <anchor x="39.05050505050505" y="1480.0" name="topleft"/>
  <anchor x="764.020202020202" y="1480.0" name="topright"/>
  <outline>
    <contour>
      <point x="612.4646464646464" y="-18.525252525252526" type="curve" smooth="yes"/>
      <point x="930.5252525252524" y="-18.525252525252526"/>
      <point x="1138.4848484848485" y="187.77777777777777"/>
      <point x="1138.4848484848485" y="740.0" type="curve" smooth="yes"/>
      <point x="1138.4848484848485" y="1292.2222222222222"/>
      <point x="930.5252525252524" y="1498.5252525252524"/>
      <point x="612.4646464646464" y="1498.5252525252524" type="curve" smooth="yes"/>
      <point x="294.4040404040404" y="1498.5252525252524"/>
      <point x="86.44444444444446" y="1292.2222222222222"/>
      <point x="86.44444444444446" y="740.0" type="curve" smooth="yes"/>
      <point x="86.44444444444446" y="187.77777777777777"/>
      <point x="294.4040404040404" y="-18.525252525252526"/>
    </contour>
    <contour>
      <point x="612.4646464646464" y="115.23232323232318" type="curve" smooth="yes"/>
      <point x="389.1515151515151" y="115.23232323232318"/>
      <point x="245.63636363636357" y="260.6262626262626"/>
      <point x="245.63636363636357" y="745.0505050505051" type="curve" smooth="yes"/>
      <point x="245.63636363636357" y="1219.3737373737374"/>
      <point x="389.1515151515151" y="1364.767676767677"/>
      <point x="612.4646464646464" y="1364.767676767677" type="curve" smooth="yes"/>
      <point x="835.7777777777778" y="1364.767676767677"/>
      <point x="979.2929292929293" y="1219.3737373737374"/>
      <point x="979.2929292929293" y="734.9494949494949" type="curve" smooth="yes"/>
      <point x="979.2929292929293" y="260.6262626262626"/>
      <point x="835.7777777777778" y="115.23232323232318"/>
    </contour>
    <contour>
      <point x="546.6464646464647" y="1608.1212121212122" type="line"/>
      <point x="678.2828282828282" y="1608.1212121212122" type="line"/>
      <point x="841.7171717171716" y="1891.6767676767677" type="line"/>
      <point x="683.5757575757576" y="1891.6767676767677" type="line"/>
    </contour>
  </outline>
</glyph>
<glyph name="Otilde" format="2">
  <advance width="1224.9292929292928"/>
  <unicode hex="00D5"/>
  <anchor x="612.4646464646464" y="1520.0" name="_top"/>
  <anchor x="612.4646464646464" y="0.0" name="bottom"/>
  <anchor x="612.4646464646464" y="740.0" name="center"/>
  <anchor x="766.1212121212121" y="0.0" name="ogonek"/>
  <anchor x="612.4646464646464" y="1520.0" name="top"/>
  <anchor x="39.05050505050505" y="1480.0" name="topleft"/>
  <anchor x="764.020202020202" y="1480.0" name="topright"/>
  <outline>
    <contour>
      <point x="612.4646464646464" y="-18.525252525252526" type="curve" smooth="yes"/>
      <point x="930.5252525252524" y="-18.525252525252526"/>
      <point x="1138.4848484848485" y="187.77777777777777"/>
      <point x="1138.4848484848485" y="740.0" type="curve" smooth="yes"/>
      <point x="1138.4848484848485" y="1292.2222222222222"/>
      <point x="930.5252525252524" y="1498.5252525252524"/>
      <point x="612.4646464646464" y="1498.5252525252524" type="curve" smooth="yes"/>
      <point x="294.4040404040404" y="1498.5252525252524"/>
      <point x="86.44444444444446" y="1292.2222222222222"/>
      <point x="86.44444444444446" y="740.0" type="curve" smooth="yes"/>
      <point x="86.44444444444446" y="187.77777777777777"/>
      <point x="294.4040404040404" y="-18.525252525252526"/>
    </contour>
    <contour>
      <point x="612.4646464646464" y="115.23232323232318" type="curve" smooth="yes"/>
      <point x="389.1515151515151" y="115.23232323232318"/>
      <point x="245.63636363636357" y="260.6262626262626"/>
      <point x="245.63636363636357" y="745.0505050505051" type="curve" smooth="yes"/>
      <point x="245.63636363636357" y="1219.3737373737374"/>
      <point x="389.1515151515151" y="1364.767676767677"/>
      <point x="612.4646464646464" y="1364.767676767677" type="curve" smooth="yes"/>
      <point x="835.7777777777778" y="1364.767676767677"/>
      <point x="979.2929292929293" y="1219.3737373737374"/>
      <point x="979.2929292929293" y="734.9494949494949" type="curve" smooth="yes"/>
      <point x="979.2929292929293" y="260.6262626262626"/>
      <point x="835.7777777777778" y="115.23232323232318"/>
    </contour>
    <contour>
      <point x="751.4949494949494" y="1667.111111111111" type="curve" smooth="yes"/>
      <point x="818.4242424242424" y="1667.111111111111"/>
      <point x="868.10101010101" y="1690.5858585858587"/>
      <point x="904.4040404040404" y="1732.7878787878788" type="curve"/>
      <point x="904.4040404040404" y="1842.909090909091" type="line"/>
      <point x="860.10101010101" y="1794.3838383838383"/>
      <point x="815.8989898989898" y="1769.858585858586"/>
      <point x="752.5454545454545" y="1769.858585858586" type="curve" smooth="yes"/>
      <point x="662.1414141414141" y="1769.858585858586"/>
      <point x="583.4141414141413" y="1848.909090909091"/>
      <point x="473.4343434343434" y="1848.909090909091" type="curve" smooth="yes"/>
      <point x="406.5050505050505" y="1848.909090909091"/>
      <point x="356.8282828282828" y="1824.909090909091"/>
      <point x="320.52525252525254" y="1782.7070707070707" type="curve"/>
      <point x="320.52525252525254" y="1672.5858585858587" type="line"/>
      <point x="364.8282828282828" y="1721.111111111111"/>
      <point x="409.030303030303" y="1745.6363636363637"/>
      <point x="472.3838383838384" y="1745.6363636363637" type="curve" smooth="yes"/>
      <point x="562.7878787878788" y="1745.6363636363637"/>
      <point x="641.5151515151515" y="1667.111111111111"/>
    </contour>
  </outline>
</glyph>
<glyph name="multiply" format="2">
  <advance width="963.7575757575758"/>
  <unicode hex="00D7"/>
  <outline>
    <contour>
      <point x="193.3131313131313" y="383.31313131313135" type="line"/>
      <point x="481.8787878787879" y="671.8787878787879" type="line"/>
      <point x="770.4444444444445" y="383.31313131313135" type="line"/>
      <point x="858.5656565656566" y="471.4343434343434" type="line"/>
      <point x="570.0" y="760.0" type="line"/>
      <point x="858.5656565656566" y="1048.5656565656566" type="line"/>
      <point x="770.4444444444445" y="1136.6868686868686" type="line"/>
      <point x="481.8787878787879" y="848.1212121212121" type="line"/>
      <point x="193.3131313131313" y="1136.6868686868686" type="line"/>
      <point x="105.1919191919192" y="1048.5656565656566" type="line"/>
      <point x="393.7575757575758" y="760.0" type="line"/>
      <point x="105.1919191919192" y="471.4343434343434" type="line"/>
    </contour>
  </outline>
</glyph>
<glyph name="Uacute" format="2">
  <advance width="1234.7676767676767"/>
  <unicode hex="00DA"/>
  <anchor x="619.4343434343434" y="1520.0" name="_top"/>
  <anchor x="619.4343434343434" y="0.0" name="bottom"/>
  <anchor x="772.6262626262626" y="0.0" name="ogonek"/>
  <anchor x="619.4343434343434" y="1520.0" name="top"/>
  <anchor x="966.5454545454545" y="1480.0" name="topright"/>
  <outline>
    <contour>
      <point x="619.4343434343434" y="-18.525252525252526" type="curve" smooth="yes"/>
      <point x="951.9191919191919" y="-18.525252525252526"/>
      <point x="1098.20202020202" y="149.15151515151516"/>
      <point x="1098.20202020202" y="521.4141414141413" type="curve" smooth="yes"/>
      <point x="1098.20202020202" y="1480.0" type="line"/>
      <point x="948.6868686868687" y="1480.0" type="line"/>
      <point x="948.6868686868687" y="502.4848484848485" type="line" smooth="yes"/>
      <point x="948.6868686868687" y="237.27272727272725"/>
      <point x="851.0909090909091" y="116.28282828282823"/>
      <point x="619.4343434343434" y="116.28282828282823" type="curve" smooth="yes"/>
      <point x="387.7777777777777" y="116.28282828282823"/>
      <point x="289.6565656565656" y="237.27272727272725"/>
      <point x="289.6565656565656" y="502.4848484848485" type="curve" smooth="yes"/>
      <point x="289.6565656565656" y="1480.0" type="line"/>
      <point x="136.56565656565658" y="1480.0" type="line"/>
      <point x="136.56565656565658" y="521.4141414141413" type="line" smooth="yes"/>
      <point x="136.56565656565658" y="149.15151515151516"/>
      <point x="285.8989898989899" y="-18.525252525252526"/>
    </contour>
    <contour>
      <point x="553.6161616161617" y="1608.1212121212122" type="line"/>
      <point x="685.2525252525252" y="1608.1212121212122" type="line"/>
      <point x="848.6868686868686" y="1891.6767676767677" type="line"/>
      <point x="690.5454545454545" y="1891.6767676767677" type="line"/>
    </contour>
  </outline>
</glyph>
<glyph name="Udieresis" format="2">
  <advance width="1234.7676767676767"/>
  <unicode hex="00DC"/>
  <anchor x="619.4343434343434" y="1520.0" name="_top"/>
  <anchor x="619.4343434343434" y="0.0" name="bottom"/>
  <anchor x="772.6262626262626" y="0.0" name="ogonek"/>
  <anchor x="619.4343434343434" y="1520.0" name="top"/>
  <anchor x="966.5454545454545" y="1480.0" name="topright"/>
  <outline>
    <contour>
      <point x="619.4343434343434" y="-18.525252525252526" type="curve" smooth="yes"/>
      <point x="951.9191919191919" y="-18.525252525252526"/>
      <point x="1098.20202020202" y="149.15151515151516"/>
      <point x="1098.20202020202" y="521.4141414141413" type="curve" smooth="yes"/>
      <point x="1098.20202020202" y="1480.0" type="line"/>
      <point x="948.6868686868687" y="1480.0" type="line"/>
      <point x="948.6868686868687" y="502.4848484848485" type="line" smooth="yes"/>
      <point x="948.6868686868687" y="237.27272727272725"/>
      <point x="851.0909090909091" y="116.28282828282823"/>
      <point x="619.4343434343434" y="116.28282828282823" type="curve" smooth="yes"/>
      <point x="387.7777777777777" y="116.28282828282823"/>
      <point x="289.6565656565656" y="237.27272727272725"/>
      <point x="289.6565656565656" y="502.4848484848485" type="curve" smooth="yes"/>
      <point x="289.6565656565656" y="1480.0" type="line"/>
      <point x="136.56565656565658" y="1480.0" type="line"/>
      <point x="136.56565656565658" y="521.4141414141413" type="line" smooth="yes"/>
      <point x="136.56565656565658" y="149.15151515151516"/>
      <point x="285.8989898989899" y="-18.525252525252526"/>
    </contour>
    <contour>
      <point x="817.8181818181818" y="1658.4848484848485" type="curve" smooth="yes"/>
      <point x="879.030303030303" y="1658.4848484848485"/>
      <point x="918.1616161616162" y="1692.989898989899"/>
      <point x="918.1616161616162" y="1751.4747474747476" type="curve" smooth="yes"/>
      <point x="918.1616161616162" y="1809.9595959595958"/>
      <point x="879.030303030303" y="1845.939393939394"/>
      <point x="817.8181818181818" y="1845.939393939394" type="curve" smooth="yes"/>
      <point x="756.6060606060606" y="1845.939393939394"/>
      <point x="717.4747474747475" y="1809.9595959595958"/>
      <point x="717.4747474747475" y="1751.4747474747476" type="curve" smooth="yes"/>
      <point x="717.4747474747475" y="1692.989898989899"/>
      <point x="756.6060606060606" y="1658.4848484848485"/>
    </contour>
    <contour>
      <point x="421.050505050505" y="1658.4848484848485" type="curve" smooth="yes"/>
      <point x="482.2626262626262" y="1658.4848484848485"/>
      <point x="521.3939393939394" y="1692.989898989899"/>
      <point x="521.3939393939394" y="1751.4747474747476" type="curve" smooth="yes"/>
      <point x="521.3939393939394" y="1809.9595959595958"/>
      <point x="482.2626262626262" y="1845.939393939394"/>
      <point x="421.050505050505" y="1845.939393939394" type="curve" smooth="yes"/>
      <point x="359.83838383838383" y="1845.939393939394"/>
      <point x="320.7070707070707" y="1809.9595959595958"/>
      <point x="320.7070707070707" y="1751.4747474747476" type="curve" smooth="yes"/>
      <point x="320.7070707070707" y="1692.989898989899"/>
      <point x="359.83838383838383" y="1658.4848484848485"/>
    </contour>
  </outline>
</glyph>
<glyph name="Yacute" format="2">
  <advance width="1034.1010101010102"/>
  <unicode hex="00DD"/>
  <anchor x="517.8383838383838" y="1520.0" name="_top"/>
  <anchor x="517.3131313131313" y="0.0" name="bottom"/>
  <anchor x="517.8383838383838" y="1520.0" name="top"/>
  <anchor x="-3.232323232323221" y="1480.0" name="topleft"/>
  <outline>
    <contour>
      <point x="440.7676767676768" y="0.0" type="line"/>
      <point x="593.8585858585858" y="0.0" type="line"/>
      <point x="593.8585858585858" y="724.2828282828283" type="line"/>
      <point x="561.050505050505" y="601.5757575757576" type="line"/>
      <point x="1061.7575757575758" y="1480.0" type="line"/>
      <point x="906.969696969697" y="1480.0" type="line"/>
      <point x="497.010101010101" y="762.3434343434343" type="line"/>
      <point x="543.9191919191919" y="762.3434343434343" type="line"/>
      <point x="130.060606060606" y="1480.0" type="line"/>
      <point x="-35.13131313131312" y="1480.0" type="line"/>
      <point x="473.57575757575756" y="601.5757575757576" type="line"/>
      <point x="440.7676767676768" y="725.8585858585858" type="line"/>
    </contour>
    <contour>
      <point x="452.020202020202" y="1608.1212121212122" type="line"/>
      <point x="583.6565656565656" y="1608.1212121212122" type="line"/>
      <point x="747.090909090909" y="1891.6767676767677" type="line"/>
      <point x="588.9494949494949" y="1891.6767676767677" type="line"/>
    </contour>
  </outline>
</glyph>
<glyph name="Thorn" format="2">
  <advance width="1107.070707070707"/>
  <unicode hex="00DE"/>
  <outline>
    <contour>
      <point x="144.04040404040404" y="0.0" type="line"/>
      <point x="297.13131313131305" y="0.0" type="line"/>
      <point x="297.13131313131305" y="261.6161616161616" type="line"/>
      <point x="348.8282828282828" y="257.1919191919192"/>
      <point x="396.4242424242424" y="255.1919191919192"/>
      <point x="452.6464646464646" y="255.1919191919192" type="curve" smooth="yes"/>
      <point x="834.1212121212121" y="255.1919191919192"/>
      <point x="1017.1515151515151" y="427.9191919191919"/>
      <point x="1017.1515151515151" y="758.5252525252525" type="curve" smooth="yes"/>
      <point x="1017.1515151515151" y="1107.1313131313132"/>
      <point x="833.5959595959596" y="1265.3333333333333"/>
      <point x="472.06060606060606" y="1265.3333333333333" type="curve" smooth="yes"/>
      <point x="407.3939393939394" y="1265.3333333333333"/>
      <point x="339.6767676767676" y="1258.909090909091"/>
      <point x="297.13131313131305" y="1253.010101010101" type="curve"/>
      <point x="297.13131313131305" y="1480.0" type="line"/>
      <point x="144.04040404040404" y="1480.0" type="line"/>
    </contour>
    <contour>
      <point x="457.07070707070704" y="386.3232323232323" type="curve" smooth="yes"/>
      <point x="400.8484848484848" y="386.3232323232323"/>
      <point x="349.25252525252523" y="388.3232323232323"/>
      <point x="297.13131313131305" y="395.27272727272725" type="curve"/>
      <point x="297.13131313131305" y="1120.3030303030303" type="line"/>
      <point x="355.5757575757575" y="1129.2525252525252"/>
      <point x="414.4444444444444" y="1134.2020202020203"/>
      <point x="480.98989898989896" y="1134.2020202020203" type="curve" smooth="yes"/>
      <point x="742.1212121212121" y="1134.2020202020203"/>
      <point x="864.2626262626263" y="1020.909090909091"/>
      <point x="864.2626262626263" y="754.5252525252525" type="curve" smooth="yes"/>
      <point x="864.2626262626263" y="501.4141414141414"/>
      <point x="734.7474747474747" y="386.3232323232323"/>
    </contour>
  </outline>
</glyph>
<glyph name="germandbls" format="2">
  <advance width="1207.8383838383838"/>
  <unicode hex="00DF"/>
  <outline>
    <contour>
      <point x="783.1515151515151" y="-19.05050505050505" type="curve" smooth="yes"/>
      <point x="1017.2121212121211" y="-19.05050505050505"/>
      <point x="1155.919191919192" y="99.35353535353535"/>
      <point x="1155.919191919192" y="296.9090909090909" type="curve" smooth="yes"/>
      <point x="1155.919191919192" y="450.5656565656565"/>
      <point x="1091.4141414141413" y="546.4646464646464"/>
      <point x="908.3434343434343" y="596.2626262626262" type="curve" smooth="yes"/>
      <point x="798.4848484848484" y="625.4141414141413" type="line" smooth="yes"/>
      <point x="701.5959595959596" y="652.5858585858585"/>
      <point x="656.10101010101" y="702.4040404040404"/>
      <point x="656.10101010101" y="794.2424242424242" type="curve" smooth="yes"/>
      <point x="656.10101010101" y="892.6060606060606"/>
      <point x="727.3939393939393" y="973.7979797979798"/>
      <point x="901.4141414141413" y="973.7979797979798" type="curve" smooth="yes"/>
      <point x="955.2121212121211" y="973.7979797979798"/>
      <point x="989.9393939393939" y="968.8484848484849"/>
      <point x="1030.888888888889" y="959.89898989899" type="curve"/>
      <point x="1043.6161616161617" y="1011.1313131313132"/>
      <point x="1058.6666666666665" y="1098.909090909091"/>
      <point x="1058.6666666666665" y="1183.7373737373737" type="curve" smooth="yes"/>
      <point x="1058.6666666666665" y="1510.2222222222222"/>
      <point x="881.8585858585858" y="1636.0"/>
      <point x="645.2727272727273" y="1636.0" type="curve" smooth="yes"/>
      <point x="365.77777777777777" y="1636.0"/>
      <point x="192.24242424242425" y="1470.7878787878788"/>
      <point x="192.24242424242425" y="1135.2323232323233" type="curve" smooth="yes"/>
      <point x="192.24242424242425" y="0.0" type="line"/>
      <point x="343.7575757575757" y="0.0" type="line"/>
      <point x="343.7575757575757" y="1130.2828282828284" type="line" smooth="yes"/>
      <point x="343.7575757575757" y="1411.79797979798"/>
      <point x="459.1515151515151" y="1514.848484848485"/>
      <point x="653.5757575757575" y="1514.848484848485" type="curve" smooth="yes"/>
      <point x="814.5454545454545" y="1514.848484848485"/>
      <point x="939.5151515151515" y="1433.6767676767677"/>
      <point x="939.5151515151515" y="1183.3131313131314" type="curve" smooth="yes"/>
      <point x="939.5151515151515" y="1125.111111111111"/>
      <point x="932.4646464646464" y="1072.909090909091"/>
      <point x="922.3636363636364" y="1022.1818181818182" type="curve"/>
      <point x="1004.989898989899" y="1088.20202020202" type="line"/>
      <point x="968.989898989899" y="1095.1515151515152"/>
      <point x="919.5353535353535" y="1097.1515151515152"/>
      <point x="890.9090909090909" y="1097.1515151515152" type="curve" smooth="yes"/>
      <point x="645.070707070707" y="1097.1515151515152"/>
      <point x="513.090909090909" y="971.0505050505051"/>
      <point x="513.090909090909" y="791.8181818181819" type="curve" smooth="yes"/>
      <point x="513.090909090909" y="640.1616161616162"/>
      <point x="583.070707070707" y="544.5858585858587"/>
      <point x="756.7676767676768" y="498.26262626262627" type="curve" smooth="yes"/>
      <point x="866.6262626262626" y="469.11111111111114" type="line" smooth="yes"/>
      <point x="962.040404040404" y="441.93939393939394"/>
      <point x="1012.9090909090909" y="396.020202020202"/>
      <point x="1012.9090909090909" y="291.85858585858585" type="curve" smooth="yes"/>
      <point x="1012.9090909090909" y="174.7474747474747"/>
      <point x="933.8181818181818" y="108.92929292929288"/>
      <point x="779.1515151515151" y="108.92929292929288" type="curve" smooth="yes"/>
      <point x="701.2727272727273" y="108.92929292929288"/>
      <point x="623.8181818181818" y="119.97979797979794"/>
      <point x="536.3434343434343" y="146.9292929292929" type="curve"/>
      <point x="536.3434343434343" y="17.474747474747474" type="line"/>
      <point x="613.1717171717171" y="-7.05050505050505"/>
      <point x="696.0" y="-19.05050505050505"/>
    </contour>
    <contour>
      <point x="8.0" y="957.7979797979798" type="line"/>
      <point x="267.55555555555554" y="957.7979797979798" type="line"/>
      <point x="267.55555555555554" y="1085.2525252525252" type="line"/>
      <point x="8.0" y="1085.2525252525252" type="line"/>
    </contour>
  </outline>
</glyph>
